<?xml version="1.0" encoding="utf-8"?>
<!-- Generator: Adobe Illustrator 22.1.0, SVG Export Plug-In . SVG Version: 6.00 Build 0)  -->
<svg version="1.1" id="Capa_1" xmlns="http://www.w3.org/2000/svg" xmlns:xlink="http://www.w3.org/1999/xlink" x="0px" y="0px"
	 viewBox="0 0 289.8 289.8" style="enable-background:new 0 0 289.8 289.8;" xml:space="preserve">
<style type="text/css">
	.st0{fill:#FFFFFF;}
</style>
<g>
	<path class="st0" d="M227.4,140.4c-0.9-1.8-2.7-2.9-4.7-2.9h-9.9c-0.4-38.8-32-70.2-70.9-70.2c-4.8,0-8.6,3.8-8.6,8.6
		c0,4.8,3.8,8.6,8.6,8.6c29.4,0,53.3,23.7,53.7,52.9h-9.8c-2,0-3.8,1.1-4.7,2.9c-0.9,1.8-0.6,3.9,0.6,5.5l18.5,23.8
		c1,1.3,2.5,2,4.1,2c1.6,0,3.2-0.7,4.1-2l18.5-23.8C228.1,144.3,228.4,142.2,227.4,140.4z"/>
	<path class="st0" d="M142,194.5c-4.8,0-8.6,3.8-8.6,8.6v10.7c0,4.8,3.8,8.6,8.6,8.6s8.6-3.8,8.6-8.6V203
		C150.6,198.3,146.7,194.5,142,194.5z"/>
	<path class="st0" d="M104.1,93.8c1.6,2.8,4.5,4.3,7.5,4.3c1.4,0,2.9-0.3,4.3-1.1c4.1-2.4,5.5-7.6,3.2-11.8l-5.3-9.3
		c-2.4-4.1-7.6-5.5-11.8-3.2c-4.1,2.4-5.5,7.6-3.2,11.8L104.1,93.8z"/>
	<path class="st0" d="M179.9,190.7c-2.4-4.1-7.6-5.5-11.8-3.2c-4.1,2.4-5.5,7.6-3.2,11.8l5.3,9.3c1.6,2.8,4.5,4.3,7.5,4.3
		c1.4,0,2.9-0.3,4.3-1.1c4.1-2.4,5.5-7.6,3.2-11.8L179.9,190.7z"/>
	<path class="st0" d="M75.7,113.8l9.3,5.3c1.4,0.8,2.8,1.1,4.3,1.1c3,0,5.9-1.5,7.5-4.3c2.4-4.1,1-9.3-3.2-11.8l-9.3-5.3
		c-4.1-2.4-9.3-1-11.8,3.2C70.2,106.2,71.5,111.4,75.7,113.8z"/>
	<path class="st0" d="M89.7,142.2c0-4.8-3.8-8.6-8.6-8.6H70.4c-4.8,0-8.6,3.8-8.6,8.6s3.8,8.6,8.6,8.6h10.7
		C85.9,150.8,89.7,146.9,89.7,142.2z"/>
	<path class="st0" d="M96.7,168.3c-2.4-4.1-7.6-5.5-11.8-3.2l-9.3,5.3c-4.1,2.4-5.5,7.6-3.2,11.8c1.6,2.8,4.5,4.3,7.5,4.3
		c1.4,0,2.9-0.3,4.3-1.1l9.3-5.3C97.7,177.7,99.1,172.5,96.7,168.3z"/>
	<path class="st0" d="M115.9,187.5c-4.1-2.4-9.3-1-11.8,3.2l-5.3,9.3c-2.4,4.1-1,9.3,3.2,11.8c1.4,0.8,2.8,1.1,4.3,1.1
		c3,0,5.9-1.5,7.5-4.3l5.3-9.3C121.4,195.1,119.9,189.8,115.9,187.5z"/>
	<path class="st0" d="M137,159.2c0-2.6-2.2-4.8-4.8-4.8h-9.8c0.1-0.1,0.2-0.2,0.2-0.3c0.6-0.7,2.2-2.2,4.6-4.5
		c2.6-2.4,4.3-4.1,5.3-5.4c1.5-1.9,2.6-3.8,3.3-5.6c0.7-1.8,1.1-3.7,1.1-5.7c0-3.6-1.3-6.6-3.8-9c-2.5-2.4-6-3.6-10.4-3.6
		c-4,0-7.3,1-10,3.1c-1.6,1.2-2.9,2.9-3.7,5c-0.6,1.4-0.4,3.1,0.4,4.4c0.8,1.3,2.2,2.2,3.7,2.4c0.2,0,0.3,0,0.5,0
		c2.2,0,4.1-1.4,4.8-3.4c0.2-0.6,0.5-1.1,0.9-1.5c0.7-0.7,1.8-1.1,3.1-1.1c1.4,0,2.4,0.3,3.1,1.1s1.1,1.8,1.1,3.3
		c0,1.4-0.5,2.8-1.4,4.2c-0.5,0.7-2.1,2.5-6.4,6.5c-4.5,4.2-7.5,7.5-9.1,10.1c-1.1,1.8-1.9,3.8-2.4,5.7c-0.2,0.9,0,1.9,0.6,2.6
		c0.6,0.7,1.5,1.2,2.5,1.2h21.7C134.9,164,137,161.9,137,159.2z"/>
	<path class="st0" d="M165.5,159v-3.3h0.5c2.5,0,4.6-2.1,4.6-4.6s-2.1-4.6-4.6-4.6h-0.5v-23c0-1.7-1.4-3.1-3.1-3.1h-3.7
		c-1,0-2,0.5-2.6,1.4l-16.7,24.5c-0.5,0.7-0.7,1.5-0.7,2.4v4c0,1.7,1.4,3.1,3.1,3.1h13.7v3.3c0,2.8,2.2,5,5,5
		C163.3,164,165.5,161.8,165.5,159z M155.6,146.5h-6.1l6.1-9.2V146.5z"/>
</g>
</svg>
