<?xml version="1.0" encoding="utf-8"?>
<!-- Generator: Adobe Illustrator 22.1.0, SVG Export Plug-In . SVG Version: 6.00 Build 0)  -->
<svg version="1.1" id="Capa_1" xmlns="http://www.w3.org/2000/svg" xmlns:xlink="http://www.w3.org/1999/xlink" x="0px" y="0px"
	 viewBox="0 0 283.5 198.4" style="enable-background:new 0 0 283.5 198.4;" xml:space="preserve">
<style type="text/css">
	.st0{fill:#FFFFFF;}
	.st1{fill:#FF5D5D;}
	.st2{fill:#898998;}
	.st3{fill:#ADE5FF;}
</style>
<path class="st0" d="M251.8,43.6H31.6c-13.5,0-24.4,10.9-24.4,24.5v107h41.2h11.2c0-15.9,12.6-28.7,28.1-28.7s28.1,12.9,28.1,28.7
	h87.3c0-15.9,12.6-28.7,28.1-28.7s28.1,12.9,28.1,28.7h17v-107C276.3,54.6,265.3,43.6,251.8,43.6z"/>
<g>
	<polygon class="st1" points="253.8,175.1 270.1,175.1 276.3,175.1 276.3,118.3 7.2,118.3 7.2,175.1 40.1,175.1 59.9,175.1 	"/>
</g>
<rect x="158.1" y="68.6" class="st2" width="43.8" height="106.5"/>
<rect x="105.6" y="65.5" class="st3" width="30.6" height="30.6"/>
<g>
	<circle class="st2" cx="87.6" cy="175" r="18.6"/>
	<circle class="st2" cx="231.3" cy="175" r="18.6"/>
</g>
<g>
	<polygon class="st3" points="274.6,68.6 223.8,68.6 223.8,117.7 274.2,117.7 	"/>
	<rect x="53.1" y="65.5" class="st3" width="30.6" height="30.6"/>
	<rect x="7.2" y="65.5" class="st3" width="24.1" height="30.6"/>
</g>
<path d="M87.7,150.9c-13.3,0-24.1,10.8-24.1,24.1c0,13.3,10.8,24.1,24.1,24.1s24.1-10.8,24.1-24.1S100.9,150.9,87.7,150.9z
	 M87.7,188.1c-7.2,0-13.1-5.9-13.1-13.1s5.9-13.1,13.1-13.1s13.1,5.9,13.1,13.1C100.8,182.2,94.9,188.1,87.7,188.1z"/>
<path d="M251.8,38.1h-28.1c-3,0-5.5,2.5-5.5,5.5s2.5,5.5,5.5,5.5h28.1c8.8,0,16.1,6,18.3,14h-46.4c-3,0-5.5,2.5-5.5,5.5v49.2
	c0,3,2.5,5.5,5.5,5.5h47v46.4h-16c-2.5-10.7-12-18.7-23.5-18.7c-11.4,0-21,8-23.5,18.7h-0.5v-101c0-3-2.5-5.5-5.5-5.5h-43.8
	c-3,0-5.5,2.5-5.5,5.5v43.9H51.1c-3,0-5.5,2.5-5.5,5.5s2.5,5.5,5.5,5.5h101.6v46.2h-27.9c-3,0-5.5,2.5-5.5,5.5s2.5,5.5,5.5,5.5h83.1
	c2.5,10.6,12,18.5,23.4,18.5s20.9-7.9,23.4-18.5h21.5c3,0,5.5-2.5,5.5-5.5v-107C281.7,51.6,268.3,38.1,251.8,38.1z M163.6,74.1h32.8
	v42.3H193c-3,0-5.5,2.5-5.5,5.5s2.5,5.5,5.5,5.5h3.4v42.3h-32.8L163.6,74.1L163.6,74.1z M231.3,188.1c-7.2,0-13.1-5.9-13.1-13.1
	s5.9-13.1,13.1-13.1c7.2,0,13.1,5.9,13.1,13.1C244.4,182.2,238.5,188.1,231.3,188.1z M229.2,112.2V74h41.6v38.2H229.2z"/>
<path d="M201.9,49.1c1.4,0,2.8-0.6,3.9-1.6c1-1,1.6-2.4,1.6-3.9s-0.6-2.8-1.6-3.9c-1-1-2.5-1.6-3.9-1.6s-2.8,0.6-3.9,1.6
	c-1,1-1.6,2.4-1.6,3.9s0.6,2.8,1.6,3.9C199,48.5,200.5,49.1,201.9,49.1z"/>
<path d="M48.4,169.6H12.7v-68h18.6c3,0,5.5-2.5,5.5-5.5V65.5c0-3-2.5-5.5-5.5-5.5H14.5c3.1-6.5,9.6-10.9,17.2-10.9H180
	c3,0,5.5-2.5,5.5-5.5s-2.5-5.5-5.5-5.5H31.6c-15,0-27.4,11.1-29.6,25.5c-0.2,0.6-0.3,1.2-0.3,1.9v109.6c0,3,2.5,5.5,5.5,5.5h41.2
	c3,0,5.5-2.5,5.5-5.5S51.4,169.6,48.4,169.6z M25.8,90.6H12.7V70.9h13.1V90.6z"/>
<path d="M31.3,112.5c-1.4,0-2.8,0.6-3.9,1.6c-1,1-1.6,2.5-1.6,3.9s0.6,2.8,1.6,3.9c1,1,2.4,1.6,3.9,1.6s2.8-0.6,3.9-1.6
	c1-1,1.6-2.4,1.6-3.9s-0.6-2.8-1.6-3.9C34.1,113.1,32.7,112.5,31.3,112.5z"/>
<path d="M105.6,60c-3,0-5.5,2.5-5.5,5.5v30.6c0,3,2.5,5.5,5.5,5.5h30.6c3,0,5.5-2.5,5.5-5.5V65.5c0-3-2.5-5.5-5.5-5.5H105.6z
	 M130.8,90.6h-19.7V70.9h19.7V90.6z"/>
<path d="M53.1,60c-3,0-5.5,2.5-5.5,5.5v30.6c0,3,2.5,5.5,5.5,5.5h30.6c3,0,5.5-2.5,5.5-5.5V65.5c0-3-2.5-5.5-5.5-5.5H53.1z
	 M78.3,90.6H58.6V70.9h19.7V90.6z"/>
</svg>
