<?xml version="1.0" encoding="utf-8"?>
<!-- Generator: Adobe Illustrator 22.1.0, SVG Export Plug-In . SVG Version: 6.00 Build 0)  -->
<svg version="1.1" id="Layer_1" xmlns="http://www.w3.org/2000/svg" xmlns:xlink="http://www.w3.org/1999/xlink" x="0px" y="0px"
	 viewBox="0 0 283.5 198.4" style="enable-background:new 0 0 283.5 198.4;" xml:space="preserve">
<style type="text/css">
	.st0{fill:#008DB3;}
	.st1{fill:#CCCCCC;}
	.st2{fill:#666666;}
	.st3{fill:#E6E6E6;}
	.st4{fill:#76CDCE;}
	.st5{fill:#FFFFFF;}
	.st6{fill:#96E0DE;}
</style>
<g>
	<path class="st0" d="M254.6,137.8c-3.6-8.3-11.3-14.5-20.9-15.6l-36.4-4.2l-19.4-31.6c-5-8.1-13.8-13-23.4-13H91.7
		c-16.4,0-30.7,10.9-35,26.7l-0.5,1.8c-1.4,5-4,9.5-7.5,13c-3.5,3.6-8,6.3-13,7.6c-5.4,1.5-9.1,6.5-9.1,12v35.1l19.8-4.6
		c0.4-1,0.9-1.9,1.4-2.8c5-8.6,14.2-13.9,24.1-13.9S91,153.6,96,162.2c0.5,0.9,1,1.9,1.4,2.8h84.3c0.4-1,0.9-1.9,1.4-2.8
		c5-8.6,14.2-13.9,24.1-13.9c9.9,0,19.1,5.3,24.1,13.9c0.5,0.9,1,1.9,1.4,2.8h22.1h0.2l1.6-14.2c0.1-0.6,0.1-1.1,0.2-1.7
		C256.8,145.2,256.1,141.3,254.6,137.8z"/>
	<path class="st1" d="M261.1,171.3L261.1,171.3c0,3.5-2.8,6.2-6.2,6.2h-20c0-0.5,0.1-1,0.1-1.4c0-3.8-0.8-7.5-2.3-11H255
		C258.3,165.1,261.1,167.8,261.1,171.3z"/>
	<path class="st2" d="M229.2,176.1c0,0.5,0,1-0.1,1.4c-0.7,11.5-10.3,20.7-22.1,20.7c-11.7,0-21.3-9.1-22.1-20.7
		c-0.1-0.5-0.1-1-0.1-1.4c0-4,1.1-7.7,2.9-11c3.8-6.6,11-11.1,19.2-11.1s15.3,4.4,19.1,11.1C228.2,168.3,229.2,172,229.2,176.1z
		 M216.2,176.1c0-5-4.1-9-9-9c-5,0-9,4.1-9,9s4.1,9,9,9C212.2,185.1,216.2,181,216.2,176.1z"/>
	<path class="st3" d="M207.1,167c5,0,9,4.1,9,9c0,5-4.1,9-9,9c-5,0-9-4.1-9-9C198,171,202.1,167,207.1,167z"/>
	<path class="st1" d="M179.3,176.1c0,0.5,0,1,0.1,1.4H99.6c0.1-0.5,0.1-1,0.1-1.4c0-3.8-0.8-7.5-2.3-11h84.3
		C180.1,168.5,179.3,172.2,179.3,176.1z"/>
	<path class="st4" d="M82.3,87.9V118H65c0,0,2-8.2,3.3-12.8l0.5-1.8c0.3-0.9,0.6-1.9,0.9-2.7C72.1,94.9,76.6,90.3,82.3,87.9z"/>
	<path class="st4" d="M125.7,85.9V118H90V86c0.6-0.1,1.2-0.1,1.8-0.1H125.7L125.7,85.9z"/>
	<path class="st4" d="M182.5,118h-49.1V85.9h21.1c5.1,0,10,2.7,12.7,7.1L182.5,118z"/>
	<path class="st2" d="M93.9,177.5c-0.7,11.5-10.3,20.7-22.1,20.7s-21.3-9.1-22.1-20.7c-0.1-0.5-0.1-1-0.1-1.4c0-4,1.1-7.8,2.9-11
		c3.8-6.6,11-11.1,19.2-11.1s15.3,4.4,19.2,11.1c1.9,3.3,2.9,7,2.9,11C94,176.5,93.9,177,93.9,177.5z M81,176.1c0-5-4.1-9-9-9
		c-5,0-9,4.1-9,9s4.1,9,9,9S81,181,81,176.1z"/>
	<path class="st3" d="M71.9,167c5,0,9,4.1,9,9c0,5-4.1,9-9,9c-5,0-9-4.1-9-9C62.8,171,66.9,167,71.9,167z"/>
	<path class="st1" d="M44.1,176.1c0,0.5,0,1,0.1,1.4H28.6c-3.5,0-6.3-2.8-6.3-6.3l0,0c0-3.5,2.8-6.3,6.3-6.3h17.8
		C44.9,168.5,44.1,172.2,44.1,176.1z"/>
	<path class="st1" d="M154.7,135h-8.2c-1.7,0-3.1-1.4-3.1-3.1c0-1.7,1.4-3.1,3.1-3.1h8.2c1.7,0,3.1,1.4,3.1,3.1
		C157.8,133.6,156.4,135,154.7,135z"/>
	<path class="st1" d="M98.8,135h-8.2c-1.7,0-3.1-1.4-3.1-3.1c0-1.7,1.4-3.1,3.1-3.1h8.2c1.7,0,3.1,1.4,3.1,3.1
		C101.9,133.6,100.5,135,98.8,135z"/>
	<path class="st5" d="M256.6,149.1h-6.2c-6.3,0-11.4-5.1-11.4-11.4l0,0h15.6C256.3,141.5,257.1,145.2,256.6,149.1z"/>
	<polygon class="st6" points="125.7,86 125.7,118 122,118 90,86 	"/>
	<path class="st6" d="M182.5,118h-17l-32.1-32.1h21.1c5.1,0,10,2.7,12.7,7.1L182.5,118z"/>
	<path class="st6" d="M82.3,87.9v25.4l-12.6-12.6C72.1,94.9,76.6,90.3,82.3,87.9z"/>
</g>
</svg>
