<?xml version="1.0" encoding="utf-8"?>
<!-- Generator: Adobe Illustrator 22.1.0, SVG Export Plug-In . SVG Version: 6.00 Build 0)  -->
<svg version="1.1" id="Layer_1" xmlns="http://www.w3.org/2000/svg" xmlns:xlink="http://www.w3.org/1999/xlink" x="0px" y="0px"
	 viewBox="0 0 41.9 41.9" style="enable-background:new 0 0 41.9 41.9;" xml:space="preserve">
<style type="text/css">
	.st0{fill:#F6E84C;}
	.st1{fill:#323030;}
</style>
<g>
	<circle class="st0" cx="20.9" cy="20.9" r="20.9"/>
	<path class="st1" d="M21.8,18.2c-0.2-0.3-0.5-0.5-0.9-0.5l-3.6,0c1-0.9,1.6-2.2,1.6-3.6c0-2.6-2.1-4.7-4.7-4.7
		c-2.6,0-4.7,2.1-4.7,4.7c0,1.4,0.6,2.7,1.6,3.6l-3.6,0c-0.3,0-0.7,0.2-0.9,0.5c-0.2,0.3-0.2,0.7,0,1l6.7,12.6
		c0.2,0.3,0.5,0.5,0.9,0.5s0.7-0.2,0.9-0.5l6.7-12.6C22,18.9,22,18.5,21.8,18.2z M19.3,19.7l-5,9.5l-5-9.5L19.3,19.7z M11.5,14.2
		c0-0.7,0.3-1.4,0.8-1.9c0.5-0.5,1.2-0.8,1.9-0.8c1.5,0,2.8,1.2,2.8,2.8c0,1.5-1.2,2.8-2.8,2.8C12.8,16.9,11.5,15.7,11.5,14.2z"/>
	<path class="st1" d="M33.6,30.8l-6.4-12c2.1-0.5,3.6-2.4,3.6-4.6c0-2.6-2.1-4.7-4.7-4.7c-2.6,0-4.7,2.1-4.7,4.7
		c0,2.2,1.5,4.1,3.6,4.6l-6.4,12.1c-0.2,0.3-0.2,0.7,0,1c0.2,0.3,0.5,0.5,0.9,0.5l13.4,0c0.5,0,1-0.4,1-1
		C33.8,31.1,33.7,30.9,33.6,30.8z M31.1,30.4l-10.1,0l5-9.5L31.1,30.4z M23.3,14.2c0-1.5,1.2-2.8,2.8-2.8c1.5,0,2.8,1.2,2.8,2.8
		c0,1.5-1.2,2.8-2.8,2.8C24.6,16.9,23.3,15.7,23.3,14.2z"/>
</g>
<g>
</g>
<g>
</g>
<g>
</g>
<g>
</g>
<g>
</g>
<g>
</g>
</svg>
