<?xml version="1.0" encoding="utf-8"?>
<!-- Generator: Adobe Illustrator 22.1.0, SVG Export Plug-In . SVG Version: 6.00 Build 0)  -->
<svg version="1.1" id="Layer_1" xmlns="http://www.w3.org/2000/svg" xmlns:xlink="http://www.w3.org/1999/xlink" x="0px" y="0px"
	 viewBox="0 0 150 150" enable-background="new 0 0 150 150" xml:space="preserve">
<g>
	<path fill="#84BE81" d="M126.1,50.2C126.1,22.5,103.7,0,75.9,0S25.8,22.5,25.8,50.2c0,10.8,3.4,20.7,9.2,28.9l18.5,32l22.5,39
		l22.5-39l18.5-32C122.7,70.9,126.1,60.9,126.1,50.2z"/>
	<circle fill-rule="evenodd" clip-rule="evenodd" fill="#FFFFFF" cx="75.9" cy="51.4" r="42.4"/>
	<g>
		<g>
			<path fill="#84BE81" d="M62.8,36.1c0-0.1,0-0.2,0.1-0.3c0-0.1,0-0.1,0-0.2c0.1,0,0.1,0.1,0.2,0.1c2.4,1.4,4.8,2.7,7.1,4.1
				c0.1,0.1,0.2,0.1,0.3,0c3.6-2.1,7.2-4.1,10.7-6.2c1.6-0.9,3.2-1.8,4.8-2.7c0,0,0.1-0.1,0.1-0.1c0,0,0,0.1,0.1,0.1
				c0.5,1.1,0.9,2.3,1.1,3.5c0.1,0.9,0.2,1.7,0.1,2.6c-0.1,2.6-1,5-2.7,7.1c-1.8,2.2-4.1,3.7-6.9,4.3c-1,0.2-2,0.3-3,0.3
				c-2.8-0.1-5.4-1-7.6-2.8c-2.3-1.8-3.7-4.2-4.3-7.1c-0.1-0.6-0.2-1.1-0.2-1.7c0-0.1,0-0.3-0.1-0.4C62.8,36.6,62.8,36.3,62.8,36.1z
				"/>
			<path fill="#84BE81" d="M63.4,32.8c0.1,0,0.1,0.1,0.1,0.1c2.2,1.3,4.4,2.5,6.6,3.8c0.1,0.1,0.2,0.1,0.3,0c4-2.3,8-4.6,12-6.9
				c0.7-0.4,1.3-0.8,2-1.2c0.1,0,0.1-0.1,0.2-0.1c0.3,0.3,0.5,0.7,0.8,1.1c-0.1,0-0.1,0.1-0.2,0.1c-3.2,1.9-6.5,3.7-9.7,5.6
				c-1.7,1-3.4,1.9-5,2.9c-0.3,0.2-0.2,0.2-0.5,0c-2.3-1.3-4.6-2.6-6.8-3.9c-0.2-0.1-0.2-0.1-0.2-0.3c0.1-0.3,0.2-0.6,0.2-1
				C63.4,32.9,63.4,32.9,63.4,32.8z"/>
			<path fill="#84BE81" d="M83.8,27.5c-0.1,0-0.1,0.1-0.1,0.1c-4.4,2.5-8.7,5-13.1,7.5c-0.1,0.1-0.2,0.1-0.3,0
				c-2.1-1.2-4.1-2.4-6.2-3.5c-0.1,0-0.1-0.1-0.2-0.1c0.2-0.4,0.4-0.8,0.6-1.2c0.1,0,0.1,0.1,0.2,0.1c1.8,1.1,3.7,2.1,5.5,3.2
				c0.3,0.2,0.2,0.2,0.5,0c4-2.3,8-4.6,12-6.9c0.1-0.1,0.2-0.1,0.3,0c0.3,0.2,0.6,0.5,0.8,0.7C83.7,27.5,83.7,27.5,83.8,27.5z"/>
			<path fill="#84BE81" d="M70.4,32.1c-1.7-1-3.4-2-5.1-2.9c0.3-0.4,0.5-0.7,0.8-1c0.1,0,0.1,0.1,0.2,0.1c1.3,0.8,2.7,1.5,4,2.3
				c0.1,0.1,0.2,0.1,0.3,0c3.1-1.8,6.2-3.6,9.3-5.4c0.1-0.1,0.2-0.1,0.3,0c0.4,0.2,0.7,0.4,1.1,0.6c0,0,0.1,0,0.1,0.1
				C81.3,25.9,71.2,31.7,70.4,32.1z"/>
		</g>
	</g>
	<g>
		<g>
			<polygon fill-rule="evenodd" clip-rule="evenodd" fill="#84BE81" points="41.9,67.8 41.9,67.3 108.5,67.3 108.5,68.2 41.9,68.2 
				41.9,67.8 			"/>
			<path fill-rule="evenodd" clip-rule="evenodd" fill="#84BE81" d="M48.6,64c-0.1,0.1-0.3,0.1-0.5,0.2c-0.2,0.1-0.4,0.1-0.6,0.1
				c-0.2,0-0.5,0-0.8,0c-0.6,0-1-0.1-1.4-0.3c-0.4-0.2-0.6-0.5-0.8-0.9c-0.2-0.4-0.3-0.8-0.4-1.3c-0.1-0.5-0.1-1-0.1-1.6
				c0-0.5,0-0.9,0.1-1.4c0-0.5,0.1-0.9,0.3-1.3c0.2-0.4,0.4-0.7,0.7-0.9c0.3-0.2,0.8-0.4,1.3-0.4c0.5,0,0.9,0.1,1.3,0.4
				c0.4,0.3,0.6,0.7,0.7,1.2l0.6,0v-1.8c-0.2-0.1-0.4-0.1-0.6-0.2c-0.2-0.1-0.5-0.1-0.7-0.1c-0.2,0-0.5-0.1-0.7-0.1
				c-0.2,0-0.4,0-0.6,0c-0.8,0-1.5,0.1-2.1,0.3c-0.6,0.2-1,0.5-1.4,0.9c-0.4,0.4-0.6,0.9-0.8,1.5c-0.2,0.6-0.3,1.3-0.3,2
				c0,0.7,0.1,1.4,0.3,1.9c0.2,0.6,0.4,1,0.8,1.4c0.4,0.4,0.8,0.7,1.3,0.9c0.5,0.2,1.2,0.3,1.9,0.3c0.4,0,0.7,0,1-0.1
				c0.3-0.1,0.6-0.1,0.9-0.2c0.3-0.1,0.5-0.2,0.7-0.3c0.2-0.1,0.4-0.2,0.5-0.3L49,63.8C48.9,63.9,48.7,63.9,48.6,64L48.6,64z
				 M56.5,59.8c-0.3-0.2-0.7-0.4-1.2-0.5c-0.5-0.1-1.1-0.1-1.9-0.1l-0.8,0V57c0-0.2,0-0.4,0.1-0.4c0.1-0.1,0.3-0.1,0.6-0.1l1.1,0
				c0.3,0,0.6,0,0.8,0c0.2,0,0.4,0.1,0.5,0.2c0.1,0.1,0.3,0.2,0.3,0.4c0.1,0.2,0.2,0.4,0.3,0.8l0.5,0v-2h-6.2v0h-0.5v0.3
				c0,0,0.1,0,0.2,0.1c0.1,0,0.2,0.1,0.2,0.1c0.1,0.1,0.1,0.1,0.1,0.2c0,0.1,0,0.2,0,0.4v0.2c0,0,0,0,0,0v1.6h0v3.3l0,0v1.3
				c0,0,0,0,0,0v0.5c0,0.2,0,0.3,0,0.4c0,0.1,0,0.2-0.1,0.2c-0.1,0.1-0.1,0.1-0.2,0.1c-0.1,0-0.1,0-0.2,0.1l0,0.3h3.4
				c0.5,0,0.9,0,1.4-0.1c0.5-0.1,0.9-0.2,1.2-0.4c0.4-0.2,0.6-0.5,0.9-0.9c0.2-0.4,0.3-1,0.3-1.7c0-0.5-0.1-0.9-0.2-1.3
				C57.1,60.3,56.8,60,56.5,59.8L56.5,59.8z M55.2,63.3c-0.1,0.3-0.2,0.6-0.4,0.7c-0.2,0.2-0.4,0.3-0.6,0.3c-0.2,0-0.4,0.1-0.7,0.1
				c-0.2,0-0.4,0-0.5,0c-0.1,0-0.2-0.1-0.3-0.2c-0.1-0.1-0.1-0.2-0.1-0.3c0-0.1,0-0.3,0-0.4v-3.8h0.8c0.7,0,1.2,0.2,1.5,0.5
				c0.3,0.4,0.4,1,0.4,1.8C55.4,62.6,55.3,63,55.2,63.3L55.2,63.3z M64.2,63.7c-0.1,0.2-0.2,0.4-0.3,0.5c-0.1,0.1-0.3,0.2-0.5,0.2
				c-0.2,0-0.5,0-0.9,0c-0.4,0-0.7,0-0.9,0c-0.2,0-0.4-0.1-0.5-0.1C61,64.2,61,64.1,61,63.9c0-0.1,0-0.3,0-0.5v-2.9h1.2
				c0.1,0,0.2,0,0.4,0c0.1,0,0.3,0,0.4,0c0.2,0,0.3,0,0.4,0.1c0.1,0,0.3,0.1,0.4,0.2v-1.2c-0.1,0.1-0.2,0.1-0.4,0.1
				c-0.1,0-0.3,0.1-0.4,0.1c-0.2,0-0.3,0-0.4,0c-0.1,0-0.3,0-0.4,0l-1.2,0v-3c0-0.2,0-0.3,0.1-0.4c0.1-0.1,0.2-0.1,0.4-0.1l1,0
				c0.3,0,0.6,0,0.8,0c0.2,0,0.4,0.1,0.5,0.2c0.1,0.1,0.3,0.2,0.3,0.4c0.1,0.2,0.2,0.4,0.3,0.8l0.5,0v-2H59v0h-0.5v0.3
				c0,0,0.1,0,0.2,0.1c0.1,0,0.2,0.1,0.2,0.1c0.1,0.1,0.1,0.1,0.1,0.2c0,0.1,0,0.2,0,0.4l0,7c0,0.2,0,0.3,0,0.4c0,0.1,0,0.2-0.1,0.2
				c-0.1,0.1-0.1,0.1-0.2,0.1c-0.1,0-0.1,0-0.2,0.1V65H65v-2.1h-0.6C64.3,63.2,64.3,63.5,64.2,63.7L64.2,63.7z M72.1,56.3
				C71.8,56.1,71.4,56,71,56c-0.4,0-0.8-0.1-1.2-0.1l-3.1,0v0h-0.5v0.3c0,0,0.1,0,0.2,0.1c0.1,0,0.2,0.1,0.2,0.1
				c0.1,0.1,0.1,0.1,0.1,0.2c0,0.1,0,0.2,0,0.4v7c0,0.2,0,0.3,0,0.4c0,0.1,0,0.2-0.1,0.2c-0.1,0.1-0.1,0.1-0.2,0.1
				c-0.1,0-0.1,0-0.2,0.1V65h3v-0.3c0,0-0.1,0-0.2-0.1c-0.1,0-0.2-0.1-0.2-0.1c-0.1-0.1-0.1-0.1-0.1-0.2c0-0.1,0-0.2,0-0.4v-2.5h0.9
				c0.5,0,0.9,0,1.3-0.1c0.4-0.1,0.8-0.2,1.1-0.4c0.3-0.2,0.6-0.5,0.8-0.9c0.2-0.4,0.3-0.9,0.3-1.5c0-0.6-0.1-1.1-0.3-1.4
				C72.6,56.8,72.4,56.5,72.1,56.3L72.1,56.3z M70.7,60.2c-0.2,0.4-0.6,0.6-1.2,0.6l-0.9,0V57c0-0.1,0-0.2,0-0.2
				c0-0.1,0-0.1,0.1-0.2c0,0,0.1-0.1,0.2-0.1c0.1,0,0.2,0,0.4,0c0.2,0,0.5,0,0.7,0.1c0.2,0.1,0.4,0.2,0.5,0.3
				c0.2,0.2,0.3,0.4,0.4,0.6c0.1,0.3,0.1,0.6,0.1,1C71.1,59.2,71,59.8,70.7,60.2L70.7,60.2z M80.3,59.8c-0.3-0.2-0.7-0.4-1.2-0.5
				c-0.5-0.1-1.1-0.1-1.9-0.1l-0.8,0V57c0-0.2,0-0.4,0.1-0.4c0.1-0.1,0.3-0.1,0.6-0.1l1.1,0c0.3,0,0.6,0,0.8,0
				c0.2,0,0.4,0.1,0.5,0.2c0.1,0.1,0.3,0.2,0.3,0.4c0.1,0.2,0.2,0.4,0.3,0.8l0.5,0v-2h-6.2v0H74v0.3c0,0,0.1,0,0.2,0.1
				c0.1,0,0.2,0.1,0.2,0.1c0.1,0.1,0.1,0.1,0.1,0.2c0,0.1,0,0.2,0,0.4v1.8v3.3v0v1.8c0,0.2,0,0.3,0,0.4c0,0.1,0,0.2-0.1,0.2
				c-0.1,0.1-0.1,0.1-0.2,0.1c-0.1,0-0.1,0-0.2,0.1V65h3.4c0.5,0,0.9,0,1.4-0.1c0.5-0.1,0.9-0.2,1.2-0.4c0.4-0.2,0.6-0.5,0.9-0.9
				c0.2-0.4,0.3-1,0.3-1.7c0-0.5-0.1-0.9-0.2-1.3C80.9,60.3,80.6,60,80.3,59.8L80.3,59.8z M79,63.3c-0.1,0.3-0.2,0.6-0.4,0.7
				c-0.2,0.2-0.4,0.3-0.6,0.3c-0.2,0-0.4,0.1-0.7,0.1c-0.2,0-0.4,0-0.5,0c-0.1,0-0.2-0.1-0.3-0.2c-0.1-0.1-0.1-0.2-0.1-0.3
				c0-0.1,0-0.3,0-0.4v-3.8h0.8c0.7,0,1.2,0.2,1.5,0.5c0.3,0.4,0.4,1,0.4,1.8C79.2,62.6,79.1,63,79,63.3L79,63.3z M98.3,55.9h-1.9v0
				h-0.5v0.3c0,0,0.1,0,0.2,0.1c0.1,0,0.2,0.1,0.2,0.1c0.1,0.1,0.1,0.1,0.1,0.2c0,0.1,0,0.2,0,0.4v2.9h-3.5v-1.1V57
				c0-0.2,0-0.3,0-0.4c0-0.1,0-0.2,0.1-0.2c0.1-0.1,0.1-0.1,0.2-0.1c0.1,0,0.1,0,0.2-0.1l0-0.3h-0.5h-1.9v0h-0.5v0.3
				c0,0,0.1,0,0.2,0.1c0.1,0,0.2,0.1,0.2,0.1c0.1,0.1,0.1,0.1,0.1,0.2c0,0.1,0,0.2,0,0.4l0,0.2c0,0,0,0,0,0l0,6.3c0,0,0,0,0,0l0,0.5
				c0,0.1,0,0.3,0,0.4c0,0.1,0,0.2-0.1,0.2c-0.1,0.1-0.1,0.1-0.2,0.1c-0.1,0-0.1,0-0.2,0.1V65h3v-0.3c0,0-0.1,0-0.2-0.1
				c-0.1,0-0.2-0.1-0.2-0.1c-0.1-0.1-0.1-0.1-0.1-0.2c0-0.1,0-0.2,0-0.4v-1.8v0v-1.6h3.5v3.5c0,0.2,0,0.3,0,0.4c0,0.1,0,0.2-0.1,0.2
				c-0.1,0.1-0.1,0.1-0.2,0.1c-0.1,0-0.1,0-0.2,0.1l0,0.3h3v-0.3c0,0-0.1,0-0.2-0.1c-0.1,0-0.2-0.1-0.2-0.1
				c-0.1-0.1-0.1-0.1-0.1-0.2c0-0.1,0-0.2,0-0.4l0-1.8l0,0v-3.4l0,0V57c0-0.2,0-0.3,0-0.4c0-0.1,0-0.2,0.1-0.2
				c0.1-0.1,0.1-0.1,0.2-0.1c0.1,0,0.1,0,0.2-0.1l0-0.3H98.3L98.3,55.9z M89.1,63L87,57c-0.1-0.3-0.2-0.5-0.2-0.7
				c0-0.2-0.1-0.3-0.1-0.4l-2.6,0v0.3c0,0,0.1,0,0.2,0.1c0.1,0,0.2,0.1,0.2,0.1c0.1,0.1,0.1,0.1,0.1,0.2c0,0.1,0,0.1,0,0.2
				c0,0.2,0,0.4-0.1,0.6L83.1,61c-0.3,0.7-0.5,1.2-0.7,1.7c-0.2,0.5-0.4,0.8-0.5,1.1c-0.1,0.3-0.3,0.5-0.4,0.7
				c-0.1,0.2-0.2,0.3-0.3,0.5l1.6,0c0-0.2,0.1-0.6,0.2-1.1c0.1-0.5,0.3-1.3,0.6-2.2l2.9,0l0.4,1.2c0.2,0.5,0.3,1,0.4,1.3
				c0.1,0.4,0.2,0.6,0.2,0.8l2.3,0c-0.1-0.2-0.2-0.4-0.4-0.7C89.5,64,89.3,63.5,89.1,63L89.1,63z M84,61.1l1.3-3.7l1.2,3.7H84
				L84,61.1z M107.5,64c-0.3-0.3-0.6-0.6-0.7-0.8c-0.3-0.3-0.5-0.6-0.8-0.9c-0.2-0.3-0.5-0.6-0.7-0.8c-0.2-0.3-0.4-0.5-0.6-0.8
				c-0.2-0.3-0.4-0.6-0.6-0.9l0.1-0.2c0.2-0.3,0.5-0.6,0.8-1c0.3-0.4,0.6-0.7,0.9-1.1c0.3-0.4,0.6-0.7,0.9-1
				c0.3-0.3,0.6-0.5,0.9-0.7l0,0h-2.1c-0.1,0.2-0.2,0.4-0.3,0.7c-0.1,0.3-0.3,0.6-0.5,0.9c-0.2,0.3-0.4,0.6-0.6,0.9
				c-0.2,0.3-0.4,0.6-0.6,0.9c-0.2,0.3-0.4,0.6-0.6,0.8c-0.2,0.3-0.3,0.5-0.5,0.6c0.2,0.3,0.4,0.6,0.6,0.8c0.2,0.2,0.3,0.5,0.5,0.7
				c0.2,0.2,0.3,0.4,0.5,0.7c0.2,0.2,0.3,0.4,0.5,0.7c0.2,0.2,0.3,0.5,0.5,0.7c0.1,0.2,0.3,0.5,0.4,0.7l3.1,0
				C108.2,64.7,107.8,64.4,107.5,64L107.5,64z M102.5,64.5c-0.1-0.1-0.1-0.1-0.1-0.2c0-0.1,0-0.2,0-0.4l0-0.7v-5.6V57
				c0-0.2,0-0.3,0-0.4c0-0.1,0-0.2,0.1-0.2c0.1-0.1,0.1-0.1,0.2-0.1c0.1,0,0.1,0,0.2-0.1v-0.3h-0.5h-1.9v0h-0.5v0.3
				c0,0,0.1,0,0.2,0.1c0.1,0,0.2,0.1,0.2,0.1c0.1,0.1,0.1,0.1,0.1,0.2c0,0.1,0,0.2,0,0.4v7c0,0.2,0,0.3,0,0.4c0,0.1,0,0.2-0.1,0.2
				c-0.1,0.1-0.1,0.1-0.2,0.1c-0.1,0-0.1,0-0.2,0.1l0,0.3h3v-0.3c0,0-0.1,0-0.2-0.1C102.6,64.6,102.5,64.6,102.5,64.5L102.5,64.5z"
				/>
		</g>
	</g>
</g>
<g>
</g>
<g>
</g>
<g>
</g>
<g>
</g>
<g>
</g>
<g>
</g>
</svg>
