<?xml version="1.0" encoding="utf-8"?>
<!-- Generator: Adobe Illustrator 22.1.0, SVG Export Plug-In . SVG Version: 6.00 Build 0)  -->
<svg version="1.1" id="Layer_1" xmlns="http://www.w3.org/2000/svg" xmlns:xlink="http://www.w3.org/1999/xlink" x="0px" y="0px"
	 viewBox="0 0 41.9 41.9" style="enable-background:new 0 0 41.9 41.9;" xml:space="preserve">
<style type="text/css">
	.st0{fill:#F6F7F6;}
	.st1{fill:#754C29;}
</style>
<g>
	<circle class="st0" cx="20.8" cy="21.1" r="20.8"/>
	<path class="st1" d="M34.4,23.5c-0.2-1.1-1-2-2.1-2.4c-0.5-0.2-1.2-0.3-1.9-0.3l-22.1,0l0,0.1c0.4,10.9,8.6,11.8,11.1,11.8
		c1.7,0,6-0.4,8.7-4c0.3,0.1,0.7,0.1,1.1,0.1c1.6,0,3-0.5,3.9-1.4C34.2,26.3,34.7,24.8,34.4,23.5z M29.2,26.8
		c0.6-1.2,0.9-2.6,1.1-4.1c0,0,0,0,0,0c0.5,0,0.9,0.1,1.2,0.2c0.5,0.2,0.8,0.5,0.9,1c0.1,0.7-0.2,1.5-0.8,2.1
		C31.2,26.5,30.3,26.8,29.2,26.8z M28.4,22.7c-0.5,3.1-1.7,5.3-3.8,6.6c-1.9,1.2-4,1.4-5.1,1.4c-1.1,0-3.2-0.2-5.1-1.4
		c-2.1-1.3-3.4-3.5-3.8-6.6L28.4,22.7z"/>
	<path class="st1" d="M15.6,19.7c0.2,0,0.4-0.1,0.6-0.2c0.2-0.2,0.3-0.4,0.4-0.7c0-0.3,0-0.5-0.2-0.7c-0.6-0.8-0.8-1.5-0.7-2.1
		c0.1-0.3,0.2-0.6,0.4-0.9c0.3-0.4,0.6-0.9,0.7-1.7c0.2-1.2-0.2-2.4-1.3-3.7c-0.3-0.4-1-0.5-1.4-0.2c-0.2,0.2-0.3,0.4-0.4,0.7
		c0,0.3,0,0.5,0.2,0.7c0.7,0.8,1,1.6,0.9,2.2c-0.1,0.3-0.2,0.5-0.4,0.9c-0.3,0.4-0.6,0.9-0.7,1.7c-0.2,1.1,0.2,2.3,1.1,3.6
		C15,19.6,15.2,19.7,15.6,19.7z"/>
	<path class="st1" d="M19.5,19.7c0.2,0,0.4-0.1,0.6-0.2c0.2-0.2,0.3-0.4,0.4-0.7c0-0.3,0-0.5-0.2-0.7c-0.6-0.8-0.8-1.5-0.7-2.1
		c0.1-0.3,0.2-0.6,0.4-0.9c0.3-0.4,0.6-0.9,0.7-1.7c0.2-1.2-0.2-2.4-1.3-3.7c-0.2-0.2-0.4-0.3-0.7-0.4c-0.3,0-0.5,0-0.7,0.2
		c-0.2,0.2-0.3,0.4-0.4,0.7c0,0.3,0,0.5,0.2,0.7c0.7,0.8,1,1.6,0.9,2.2c-0.1,0.3-0.2,0.5-0.4,0.9c-0.3,0.4-0.6,0.9-0.7,1.7
		c-0.2,1.1,0.2,2.3,1.1,3.6C18.9,19.6,19.2,19.7,19.5,19.7z"/>
	<path class="st1" d="M23.3,19.7c0.2,0,0.4-0.1,0.6-0.2c0.2-0.2,0.3-0.4,0.4-0.7c0-0.3,0-0.5-0.2-0.7c-0.6-0.8-0.8-1.5-0.7-2.1
		c0.1-0.3,0.2-0.6,0.4-0.9c0.3-0.4,0.6-0.9,0.7-1.7c0.2-1.2-0.2-2.4-1.3-3.7c-0.3-0.4-1-0.5-1.4-0.2c-0.2,0.2-0.3,0.4-0.4,0.7
		c0,0.3,0,0.5,0.2,0.7c0.7,0.8,1,1.6,0.9,2.2c-0.1,0.3-0.2,0.5-0.4,0.9c-0.3,0.4-0.6,0.9-0.7,1.7c-0.2,1.1,0.2,2.3,1.1,3.6
		C22.7,19.6,23,19.7,23.3,19.7z"/>
</g>
<g>
</g>
<g>
</g>
<g>
</g>
<g>
</g>
<g>
</g>
<g>
</g>
</svg>
