<?xml version="1.0" encoding="utf-8"?>
<!-- Generator: Adobe Illustrator 22.1.0, SVG Export Plug-In . SVG Version: 6.00 Build 0)  -->
<svg version="1.1" id="Layer_1" xmlns="http://www.w3.org/2000/svg" xmlns:xlink="http://www.w3.org/1999/xlink" x="0px" y="0px"
	 viewBox="0 0 41.9 41.9" style="enable-background:new 0 0 41.9 41.9;" xml:space="preserve">
<style type="text/css">
	.st0{fill:#356736;}
</style>
<g>
	<path class="st0" d="M33.5,16.1h-7.7V8.4c0-0.5-0.4-1-1-1H17c-0.5,0-1,0.4-1,1v7.7H8.4c-0.5,0-1,0.4-1,1v7.8c0,0.5,0.4,1,1,1h7.7
		v7.7c0,0.5,0.4,1,1,1h7.8c0.5,0,1-0.4,1-1v-7.7h7.7c0.5,0,1-0.4,1-1V17C34.4,16.5,34,16.1,33.5,16.1z"/>
	<path class="st0" d="M20.9,0C9.4,0,0,9.4,0,20.9s9.4,20.9,20.9,20.9c11.5,0,20.9-9.4,20.9-20.9S32.5,0,20.9,0z M20.9,39.8
		C10.5,39.8,2,31.4,2,20.9C2,10.5,10.5,2,20.9,2c10.4,0,18.9,8.5,18.9,18.9C39.8,31.4,31.4,39.8,20.9,39.8z"/>
</g>
<g>
</g>
<g>
</g>
<g>
</g>
<g>
</g>
<g>
</g>
<g>
</g>
</svg>
