<?xml version="1.0" encoding="utf-8"?>
<!-- Generator: Adobe Illustrator 22.1.0, SVG Export Plug-In . SVG Version: 6.00 Build 0)  -->
<svg version="1.1" id="Layer_1" xmlns="http://www.w3.org/2000/svg" xmlns:xlink="http://www.w3.org/1999/xlink" x="0px" y="0px"
	 viewBox="0 0 41.9 41.9" style="enable-background:new 0 0 41.9 41.9;" xml:space="preserve">
<style type="text/css">
	.st0{fill:#F6F7F6;}
	.st1{fill:#C5322C;}
</style>
<g>
	<g>
		<circle class="st0" cx="20.9" cy="21" r="20.7"/>
		<path class="st1" d="M31.9,27.8h-4.2L16.3,16.3c-0.4-0.4-1-0.7-1.6-0.7H8.3c-1.3,0-2.3,1-2.3,2.3c0,1.3,1,2.3,2.3,2.3h5.4
			l11.5,11.4c0.4,0.4,1,0.7,1.6,0.7h5.1c1.3,0,2.3-1,2.3-2.3C34.2,28.8,33.2,27.8,31.9,27.8z M31.9,31.2h-5.1
			c-0.3,0-0.6-0.1-0.8-0.3L14.2,19.1H8.3c-0.6,0-1.1-0.5-1.1-1.1s0.5-1.1,1.1-1.1h6.4c0.3,0,0.6,0.1,0.8,0.3L27.3,29h4.6
			c0.6,0,1.1,0.5,1.1,1.1S32.5,31.2,31.9,31.2z"/>
		<path class="st1" d="M18.2,10.4c1.3,0,2.3-1,2.3-2.3s-1-2.3-2.3-2.3s-2.3,1-2.3,2.3S17,10.4,18.2,10.4z M18.2,7
			c0.6,0,1.1,0.5,1.1,1.1s-0.5,1.1-1.1,1.1s-1.1-0.5-1.1-1.1S17.6,7,18.2,7z"/>
		<path class="st1" d="M19.5,18.3c0.1,0.1,0.3,0.2,0.4,0.2s0.1,0,0.2,0c0.2-0.1,0.4-0.3,0.4-0.5v-5c0-1.3-1-2.3-2.3-2.3
			s-2.3,1-2.3,2.3v1.6c0,0.2,0.1,0.3,0.2,0.4L19.5,18.3z M17.1,12.9c0-0.6,0.5-1.1,1.1-1.1s1.1,0.5,1.1,1.1v3.6L17,14.2L17.1,12.9z"
			/>
		<path class="st1" d="M14.2,27.4L14.2,27.4l1.9,0.1c0.3,0,0.5,0.2,0.5,0.5l0,0c0,0.3-0.2,0.5-0.5,0.5h-0.6l1.8,1.8
			c0.2,0.2,0.2,0.5,0,0.7s-0.5,0.2-0.7,0l-1.8-1.8v0.6l0,0c0,0.3-0.2,0.5-0.5,0.5s-0.5-0.2-0.5-0.5l-0.1-1.9l0,0l0,0l0,0l0,0l0,0
			l0,0l0,0l0,0l0,0c0,0,0,0,0-0.1l0,0l0,0l0,0l0,0l0,0l0,0l0,0l0,0l0,0l0,0l0,0l0,0l0,0l0,0l0,0l0,0l0,0l0,0l0,0l0,0l0,0
			C14,27.4,14,27.4,14.2,27.4C14.1,27.4,14.1,27.4,14.2,27.4C14.1,27.4,14.1,27.4,14.2,27.4C14.1,27.4,14.1,27.4,14.2,27.4
			C14.1,27.4,14.1,27.4,14.2,27.4z"/>
	</g>
	<path class="st1" d="M16.1,26.1L16.1,26.1L16,24.2c0-0.3-0.2-0.5-0.5-0.5l0,0c-0.3,0-0.5,0.2-0.5,0.5v0.6L13.2,23
		c-0.2-0.2-0.5-0.2-0.7,0s-0.2,0.5,0,0.7l1.8,1.8h-0.6l0,0c-0.3,0-0.5,0.2-0.5,0.5s0.2,0.5,0.5,0.5l1.9,0.1l0,0l0,0l0,0l0,0l0,0l0,0
		l0,0l0,0l0,0l0,0l0,0l0,0l0,0l0,0l0,0l0,0l0,0l0,0l0,0l0,0l0,0l0,0l0,0l0,0l0,0l0,0l0,0l0,0l0,0l0,0l0,0l0,0
		C16.1,26.2,16.1,26.2,16.1,26.1L16.1,26.1L16.1,26.1L16.1,26.1z"/>
</g>
</svg>
