<?xml version="1.0" encoding="utf-8"?>
<!-- Generator: Adobe Illustrator 22.1.0, SVG Export Plug-In . SVG Version: 6.00 Build 0)  -->
<svg version="1.1" id="Layer_1" xmlns="http://www.w3.org/2000/svg" xmlns:xlink="http://www.w3.org/1999/xlink" x="0px" y="0px"
	 viewBox="0 0 283.5 198.4" style="enable-background:new 0 0 283.5 198.4;" xml:space="preserve">
<style type="text/css">
	.st0{fill:#A1D51C;}
	.st1{fill:#FCBC04;}
	.st2{fill:#F9E109;}
	.st3{fill:#4891D3;}
	.st4{fill:#2D72BC;}
	.st5{fill:#E59730;}
	.st6{fill:#57B7EB;}
	.st7{fill:#C4F236;}
	.st8{fill:#39519D;}
</style>
<path class="st0" d="M24.4,174.7H4.7V70.8h189v103.9H24.4z"/>
<path class="st1" d="M193.7,155.8H4.7v18.9h189V155.8z"/>
<path class="st2" d="M170.1,155.8H4.7v9.4h155.9C165.8,165.3,170.1,161,170.1,155.8z"/>
<path class="st2" d="M232.3,174.7h-19.7v-85h37.8c15.6,0,28.3,12.7,28.3,28.3v56.7H259"/>
<path class="st1" d="M259.8,127.5V91.4c11.3,4,18.9,14.7,18.9,26.7v56.7h-66.1v-18.9h18.9C247.1,155.8,259.8,143.1,259.8,127.5z"/>
<path class="st3" d="M250.4,89.7h-14.2v47.2h42.5V118C278.7,102.4,266,89.7,250.4,89.7z"/>
<path class="st3" d="M231.5,179.5c0,7.9,6.3,14.2,14.2,14.2s14.2-6.3,14.2-14.2c0-7.9-6.3-14.2-14.2-14.2S231.5,171.6,231.5,179.5z"
	/>
<path class="st3" d="M146.5,179.5c0,7.9,6.3,14.2,14.2,14.2s14.2-6.3,14.2-14.2c0-7.9-6.3-14.2-14.2-14.2
	C152.8,165.3,146.5,171.6,146.5,179.5z"/>
<path class="st3" d="M118.1,179.5c0,7.9,6.3,14.2,14.2,14.2s14.2-6.3,14.2-14.2c0-7.9-6.3-14.2-14.2-14.2S118.1,171.6,118.1,179.5z"
	/>
<path class="st3" d="M52,179.5c0,7.9,6.3,14.2,14.2,14.2s14.2-6.3,14.2-14.2c0-7.9-6.3-14.2-14.2-14.2S52,171.6,52,179.5z"/>
<path class="st3" d="M23.6,179.5c0,7.9,6.3,14.2,14.2,14.2S52,187.3,52,179.5c0-7.9-6.3-14.2-14.2-14.2S23.6,171.6,23.6,179.5z"/>
<path class="st4" d="M245.7,165.3c7.4,0,13.6,5.7,14.2,13.1c-4.2-3.7-10.2-4.7-15.2-2.4c-5.1,2.3-8.4,7.4-8.4,12.9v1.1
	c-4.4-3.9-5.9-10.2-3.8-15.6C234.5,168.9,239.8,165.3,245.7,165.3z"/>
<path class="st4" d="M160.6,165.3c7.4,0,13.6,5.7,14.2,13.1c-4.2-3.7-10.2-4.7-15.2-2.4c-5.1,2.3-8.4,7.4-8.4,12.9v1.1
	c-4.4-3.9-5.9-10.2-3.8-15.6C149.5,168.9,154.7,165.3,160.6,165.3z"/>
<path class="st4" d="M132.3,165.3c7.4,0,13.6,5.7,14.2,13.1c-4.2-3.7-10.2-4.7-15.2-2.4c-5.1,2.3-8.4,7.4-8.4,12.9v1.1
	c-4.4-3.9-5.9-10.2-3.8-15.6C121.1,168.9,126.4,165.3,132.3,165.3z"/>
<path class="st4" d="M66.1,165.3c7.4,0,13.6,5.7,14.2,13.1c-4.2-3.7-10.2-4.7-15.2-2.4c-5.1,2.2-8.4,7.3-8.4,12.9v1.1
	c-4.4-3.9-5.9-10.2-3.8-15.6C55,168.9,60.2,165.3,66.1,165.3z"/>
<path class="st4" d="M37.8,165.3c7.4,0,13.6,5.7,14.2,13.1c-4.2-3.7-10.2-4.7-15.2-2.4c-5.1,2.2-8.4,7.3-8.4,12.9v1.1
	c-4.4-3.9-5.9-10.2-3.8-15.6C26.6,168.9,31.9,165.3,37.8,165.3z"/>
<path class="st0" d="M240.9,179.5c0,2.6,2.1,4.7,4.7,4.7s4.7-2.1,4.7-4.7s-2.1-4.7-4.7-4.7S240.9,176.9,240.9,179.5z"/>
<path class="st0" d="M155.9,179.5c0,2.6,2.1,4.7,4.7,4.7c2.6,0,4.7-2.1,4.7-4.7s-2.1-4.7-4.7-4.7C158,174.7,155.9,176.9,155.9,179.5
	z"/>
<path class="st0" d="M127.6,179.5c0,2.6,2.1,4.7,4.7,4.7s4.7-2.1,4.7-4.7s-2.1-4.7-4.7-4.7S127.6,176.9,127.6,179.5z"/>
<path class="st0" d="M61.4,179.5c0,2.6,2.1,4.7,4.7,4.7s4.7-2.1,4.7-4.7s-2.1-4.7-4.7-4.7S61.4,176.9,61.4,179.5z"/>
<path class="st0" d="M33.1,179.5c0,2.6,2.1,4.7,4.7,4.7s4.7-2.1,4.7-4.7s-2.1-4.7-4.7-4.7S33.1,176.9,33.1,179.5z"/>
<path class="st5" d="M212.6,155.8h-18.9v18.9h18.9V155.8z"/>
<path class="st6" d="M278.7,118v9.1c-18.9-2.4-33.1-18.4-33.1-37.4h4.7C266,89.7,278.7,102.4,278.7,118z"/>
<path class="st7" d="M170.1,70.8H4.7v66.1h99.2C140.5,136.9,170.1,107.4,170.1,70.8z"/>
<g>
	<path class="st8" d="M4.7,66.1h189c2.6,0,4.7,2.1,4.7,4.7v29.5c0,2.6-2.1,4.7-4.7,4.7s-4.7-2.1-4.7-4.7V75.5H9.4v75.6h5.9
		c2.6,0,4.7,2.1,4.7,4.7s-2.1,4.7-4.7,4.7H9.4v9.4h12.1c3.1-5.2,8.4-8.6,14.5-9.2c6-0.6,11.9,1.8,15.9,6.3c4-4.5,9.9-6.9,15.9-6.3
		c6,0.6,11.4,4,14.5,9.2H116c3.1-5.2,8.4-8.6,14.5-9.2c6-0.6,11.9,1.8,15.9,6.3c4-4.5,9.9-6.9,15.9-6.3c6,0.6,11.4,4,14.5,9.2H189
		v-9.4h-7.7c-2.6,0-4.7-2.1-4.7-4.7s2.1-4.7,4.7-4.7h7.7v-28.3c0-2.6,2.1-4.7,4.7-4.7s4.7,2.1,4.7,4.7v28.3h9.4V89.7
		c0-2.6,2.1-4.7,4.7-4.7h37.8c18.2,0,33.1,14.8,33.1,33.1v56.7c0,2.6-2.1,4.7-4.7,4.7h-14.2c0,10.5-8.4,18.9-18.9,18.9
		s-18.9-8.4-18.9-18.9h-47.2c-0.1,7.9-5,14.8-12.3,17.6c-7.3,2.8-15.6,0.6-20.8-5.2c-5.2,5.9-13.5,8-20.8,5.2s-12.2-9.7-12.3-17.6
		H85c-0.1,7.9-5,14.8-12.3,17.6c-7.3,2.8-15.6,0.6-20.8-5.2c-5.2,5.9-13.5,8-20.8,5.2s-12.2-9.7-12.3-17.6H4.7
		c-2.6,0-4.7-2.1-4.7-4.7v-104C0,68.2,2.1,66.1,4.7,66.1z M245.7,188.9c5.2,0,9.4-4.3,9.4-9.4c0-5.2-4.3-9.4-9.4-9.4
		c-5.2,0-9.4,4.3-9.4,9.4C236.2,184.7,240.5,188.9,245.7,188.9z M229.4,170c3.4-5.7,9.6-9.3,16.2-9.3c6.7,0,12.9,3.5,16.2,9.3H274
		v-9.4h-4.7c-2.6,0-4.7-2.1-4.7-4.7s2.1-4.7,4.7-4.7h4.7v-9.4h-37.8c-2.6,0-4.7-2.1-4.7-4.7v-28.3c0-2.6,2.1-4.7,4.7-4.7
		s4.7,2.1,4.7,4.7v23.6H274v-14.2c0-13.1-10.6-23.6-23.6-23.6h-33.1v75.6h12.1V170z M207.9,160.6h-9.4v9.4h9.4V160.6z M160.6,188.9
		c5.2,0,9.4-4.3,9.4-9.4c0-5.2-4.3-9.4-9.4-9.4c-5.2,0-9.4,4.3-9.4,9.4C151.2,184.7,155.4,188.9,160.6,188.9z M132.3,188.9
		c5.2,0,9.4-4.3,9.4-9.4c0-5.2-4.3-9.4-9.4-9.4s-9.4,4.3-9.4,9.4C122.8,184.7,127.1,188.9,132.3,188.9z M66.1,188.9
		c5.2,0,9.4-4.3,9.4-9.4c0-5.2-4.3-9.4-9.4-9.4s-9.4,4.3-9.4,9.4C56.7,184.7,60.9,188.9,66.1,188.9z M37.8,188.9
		c5.2,0,9.4-4.3,9.4-9.4c0-5.2-4.3-9.4-9.4-9.4s-9.4,4.3-9.4,9.4C28.3,184.7,32.6,188.9,37.8,188.9z"/>
	<path class="st8" d="M160.6,136.9V89.7c0-2.6,2.1-4.7,4.7-4.7c2.6,0,4.7,2.1,4.7,4.7v47.2c0,2.6-2.1,4.7-4.7,4.7
		C162.8,141.7,160.6,139.5,160.6,136.9z"/>
	<path class="st8" d="M141.7,136.9V89.7c0-2.6,2.1-4.7,4.7-4.7s4.7,2.1,4.7,4.7v47.2c0,2.6-2.1,4.7-4.7,4.7S141.7,139.5,141.7,136.9
		z"/>
	<path class="st8" d="M122.8,136.9V89.7c0-2.6,2.1-4.7,4.7-4.7c2.6,0,4.7,2.1,4.7,4.7v47.2c0,2.6-2.1,4.7-4.7,4.7
		S122.8,139.5,122.8,136.9z"/>
	<path class="st8" d="M108.7,141.7c-2.6,0-4.7-2.1-4.7-4.7V89.8c0-2.6,2.1-4.7,4.7-4.7s4.7,2.1,4.7,4.7v47.1
		C113.4,139.5,111.3,141.7,108.7,141.7z"/>
	<path class="st8" d="M85,136.9V89.7c0-2.6,2.1-4.7,4.7-4.7s4.7,2.1,4.7,4.7v47.2c0,2.6-2.1,4.7-4.7,4.7S85,139.5,85,136.9z"/>
	<path class="st8" d="M75.6,136.9c0,2.6-2.1,4.7-4.7,4.7s-4.7-2.1-4.7-4.7v-9.4c0-2.6,2.1-4.7,4.7-4.7s4.7,2.1,4.7,4.7V136.9z"/>
	<path class="st8" d="M70.9,108.6c-2.6,0-4.7-2.1-4.7-4.7V89.7c0-2.6,2.1-4.7,4.7-4.7s4.7,2.1,4.7,4.7v14.2
		C75.6,106.5,73.5,108.6,70.9,108.6z"/>
	<path class="st8" d="M47.2,136.9V89.7c0-2.6,2.1-4.7,4.7-4.7c2.6,0,4.7,2.1,4.7,4.7v47.2c0,2.6-2.1,4.7-4.7,4.7
		C49.4,141.7,47.2,139.5,47.2,136.9z"/>
	<path class="st8" d="M28.3,136.9V89.7c0-2.6,2.1-4.7,4.7-4.7s4.7,2.1,4.7,4.7v47.2c0,2.6-2.1,4.7-4.7,4.7S28.3,139.5,28.3,136.9z"
		/>
	<path class="st8" d="M108.7,160.6h-16c-2.6,0-4.7-2.1-4.7-4.7s2.1-4.7,4.7-4.7h15.9c2.6,0,4.7,2.1,4.7,4.7S111.3,160.6,108.7,160.6
		z"/>
</g>
</svg>
