<?xml version="1.0" encoding="utf-8"?>
<!-- Generator: Adobe Illustrator 22.1.0, SVG Export Plug-In . SVG Version: 6.00 Build 0)  -->
<svg version="1.1" id="Layer_1" xmlns="http://www.w3.org/2000/svg" xmlns:xlink="http://www.w3.org/1999/xlink" x="0px" y="0px"
	 viewBox="0 0 283.5 198.4" style="enable-background:new 0 0 283.5 198.4;" xml:space="preserve">
<style type="text/css">
	.st0{fill:#E9CFB7;}
	.st1{fill:#60A2D7;}
	.st2{fill:#FEF1D8;}
	.st3{fill:#A3D4F7;}
	.st4{fill:#AC8168;}
	.st5{fill:#4F3328;}
</style>
<path class="st0" d="M31.7,23.9h144.2v113.8H31.7V23.9z"/>
<path class="st1" d="M251.7,114.9l-21.8-65.5c-2.1-6.2-7.9-10.3-14.4-10.3h-39.7v98.6H31.7V168h220V114.9z"/>
<path class="st2" d="M229,99.8h-37.9V54.3h11.8c6.5,0,12.3,4.2,14.4,10.3L229,99.8z"/>
<path class="st3" d="M58.3,80.8c0,2.1-1.7,3.8-3.8,3.8s-3.8-1.7-3.8-3.8c0-2,1.7-3.8,3.8-3.8S58.3,78.7,58.3,80.8z"/>
<path class="st2" d="M236.5,114.9h15.2v15.2h-15.2V114.9z"/>
<path class="st4" d="M229,175.6c0,12.6-10.2,22.7-22.7,22.7s-22.7-10.2-22.7-22.7s10.2-22.7,22.7-22.7S229,163,229,175.6z"/>
<path class="st5" d="M210,175.6c0,2.1-1.7,3.8-3.8,3.8c-2,0-3.8-1.7-3.8-3.8c0-2,1.7-3.8,3.8-3.8C208.2,171.9,210,173.5,210,175.6z"
	/>
<path class="st5" d="M206.2,183.2c-4.2,0-7.6-3.4-7.6-7.6s3.4-7.6,7.6-7.6s7.6,3.4,7.6,7.6S210.4,183.2,206.2,183.2z"/>
<path class="st4" d="M100,175.6c0,12.6-10.2,22.7-22.7,22.7s-22.7-10.2-22.7-22.7s10.2-22.7,22.7-22.7S100,163,100,175.6z"/>
<path class="st5" d="M81,175.6c0,2.1-1.7,3.8-3.8,3.8c-2.1,0-3.8-1.7-3.8-3.8c0-2,1.7-3.8,3.8-3.8C79.4,171.9,81,173.5,81,175.6z"/>
<path class="st5" d="M77.3,183.2c-4.2,0-7.6-3.4-7.6-7.6s3.4-7.6,7.6-7.6s7.6,3.4,7.6,7.6S81.4,183.2,77.3,183.2z"/>
<path class="st3" d="M168.3,107.4c-10.3,0-19-5.2-19-11.4c0-2.1-1.7-3.8-3.8-3.8s-3.8,1.7-3.8,3.8c0,6.2-8.7,11.4-19,11.4
	s-19-5.2-19-11.4c0-2.1-1.7-3.8-3.8-3.8c-2.1,0-3.8,1.7-3.8,3.8c0,6.2-8.7,11.4-19,11.4s-19-5.2-19-11.4c0-2.1-1.7-3.8-3.8-3.8
	s-3.8,1.7-3.8,3.8c0,6.2-8.7,11.4-19,11.4v30.3h144.2v-31.3C173.4,107,170.8,107.4,168.3,107.4z"/>
</svg>
