<svg xmlns="http://www.w3.org/2000/svg" width="76.43" height="98.219" viewBox="0 0 76.43 98.219">
  <defs>
    <style>
      .cls-1 {
        fill: #ffd36e;
        fill-rule: evenodd;
      }
    </style>
  </defs>
  <path id="boot.svg" class="cls-1" d="M1983.99,716.129a1.445,1.445,0,1,1,.45-1.994A1.449,1.449,0,0,1,1983.99,716.129Zm-26.16,73.343c0.66-3.142,2.8-6.371,6.73-9.581,7.31-5.975,11.61-14.488,11.53-23.29-0.06-7.756-3.41-14.936-14.57-32.651a4.439,4.439,0,0,1,1.14-6.281l11.03-6.974,9.8-6.2,8.58-5.424a4.336,4.336,0,0,1,6.11,1.525c1.94,3.475,3.84,6.741,5.68,9.75,0.01,0.016.03,0.024,0.04,0.041,1.58,2.579,3.15,5,4.67,7.2,0.04,0.067.05,0.145,0.09,0.216,4.17,6.06,7.77,10.076,10.36,10.936,0.02,0.008.04,0.026,0.06,0.034a1.319,1.319,0,0,1,.37.213c0.03,0.023.06,0.043,0.09,0.068a1.262,1.262,0,0,1,.25.324c0.02,0.034.05,0.062,0.07,0.1,0,0.009.01,0.014,0.01,0.023l14.05,30.365a1.445,1.445,0,0,1-.54,1.829l-12.26,7.75a1.453,1.453,0,0,1-1.89-.294l-8.5-10.215c-3.37,10.31-5.28,16.057-5.58,16.652a26.382,26.382,0,0,1-9.79,10.145c-13.27,8.027-26.03,12.654-35.92,10.233a1.442,1.442,0,0,1-.87-0.628A8.016,8.016,0,0,1,1957.83,789.472Zm6.14-67.068c1.92,3.049,3.6,5.774,5.1,8.276l11.1-7.019-6.17-9.753-9.8,6.2A1.586,1.586,0,0,0,1963.97,722.4Zm9.38,15.8,11.44-7.233-3.08-4.876-11.17,7.06C1971.61,735,1972.54,736.666,1973.35,738.209Zm3.1-25.85,12.79,20.219,5.99,1.333,1.36-5.982L1995.37,726h0l-4.62-7.315h-0.01l-6.93-10.971Zm25.71,0.809-8.19,5.182,3.08,4.877,8.23-5.2Q2003.765,715.754,2002.16,713.168Zm-8.55-11.658-7.35,4.649,6.17,9.753,8.23-5.208q-2.43-4.051-5.01-8.692A1.449,1.449,0,0,0,1993.61,701.51Zm18.18,54.164,8.86,10.647,10.11-6.388-11.97-25.858c-0.35,1.085-.72,2.239-1.11,3.451-1.69,5.239-3.39,10.48-4.99,15.377l-0.06.182c-0.24.74-.47,1.459-0.7,2.173-0.03.083-.06,0.171-0.09,0.253A0.985,0.985,0,0,1,2011.79,755.674Zm-17.93,27.585a23.512,23.512,0,0,0,8.7-8.96c0.22-.443,2.68-7.855,6.35-19.125,0.29-.863.57-1.745,0.87-2.648,0.03-.11.07-0.213,0.1-0.323,1.65-5.074,3.35-10.315,5.04-15.552,0.6-1.833,1.15-3.534,1.64-5.061,0.11-.333.17-0.536,0.22-0.693-2.86-1.568-6.17-5.235-9.87-10.489l-8.32,5.257,0.77,1.219a1.439,1.439,0,0,1,.19,1.089l-1.82,7.976a1.457,1.457,0,0,1-1.73,1.1l-7.99-1.777a1.427,1.427,0,0,1-.9-0.635l-0.78-1.219-11.67,7.381c3.12,6.381,4.29,10.913,4.33,15.768,0.08,9.711-4.64,19.044-12.61,25.559-3.43,2.812-5.2,5.476-5.71,7.925a6.209,6.209,0,0,0,.03,2.857,2.983,2.983,0,0,0,.11.4C1969.63,795.106,1981.56,790.709,1993.86,783.259Z" transform="translate(-1957.63 -698.375)"/>
</svg>
