<svg xmlns="http://www.w3.org/2000/svg" width="33.16" height="59.218" viewBox="0 0 33.16 59.218">
  <defs>
    <style>
      .cls-1 {
        fill: #4f4f4f;
        fill-rule: evenodd;
      }
    </style>
  </defs>
  <path id="car1.svg" class="cls-1" d="M2105.11,895.443c2.74-.425,4.67-1.218,5.74-2.362a2.413,2.413,0,0,0,.55-1.968c0-.227-0.3-23.017-0.35-24.486-0.1-3.56-3.38-5.365-9.73-5.364s-9.63,1.8-9.74,5.364c-0.04,1.467-.34,24.258-0.34,24.461a3.83,3.83,0,0,0-.04.4,2.415,2.415,0,0,0,.6,1.594c1.06,1.143,2.99,1.94,5.73,2.364a26.066,26.066,0,0,0,3.79.3A25.737,25.737,0,0,0,2105.11,895.443Zm-4.25-28.985a0.708,0.708,0,0,1,.46-0.806,0.718,0.718,0,0,1,.46.806A0.534,0.534,0,1,1,2100.86,866.458Zm10.62,48.017,0.3-.234c1.66-1.34,2.98-2.4,2.98-5.846V896.132c0-.162-0.01-0.649-0.01-0.916a2.488,2.488,0,0,0,2.71-.462,1.864,1.864,0,0,0,.16-2.172c-0.09-.177-0.4-0.149-1.6.069a8.76,8.76,0,0,1-1.26.176c0-1.861-.02-4.618-0.04-7.536-0.05-7.009-.11-15.732.04-18.392,0.18-3.236-.33-5.408-1.57-6.644-1.01-1.011-3.89-2.7-11.87-2.7s-10.87,1.693-11.88,2.7c-1.24,1.239-1.75,3.41-1.56,6.648,0.15,2.656.09,11.379,0.03,18.39-0.02,2.917-.04,5.674-0.04,7.537a8.826,8.826,0,0,1-1.26-.178c-1.2-.218-1.51-0.248-1.6-0.067a2.226,2.226,0,0,0-.27,1.027,1.706,1.706,0,0,0,.43,1.142,2.486,2.486,0,0,0,2.71.461c0,0.271-.01.754-0.01,0.917V908.4c0,3.449,1.32,4.5,2.99,5.845l0.29,0.235c2.7,2.19,8.94,2.3,10.16,2.3S2108.78,916.666,2111.48,914.475Zm2.01-3a7.167,7.167,0,0,1-1.41,1.575,14.3,14.3,0,0,1-1.76,1.176,1.879,1.879,0,0,1,.51-2.726C2111.88,910.639,2112.88,910.723,2113.49,911.471Zm-6.7,3.866c-0.17.026-2.14,0.26-2.24,0.267,0.13-.011,1.38-7.5,1.76-10.56-0.05,0,1.65-.264,2.52-0.519C2108.83,904.524,2107.9,912.016,2106.79,915.337Zm-15.44-12.892c-2.07-1.187-2.12-3.442-2.16-5.254v-0.136c-0.01-.245-0.01-0.59-0.01-1.015,0-2.794.12-9.057,0.27-13.089,0.17-4.514.48-15.149,0.44-17.279-0.05-2.052-.07-3.289,2.33-4.783,2.35-1.459,7.57-1.94,9.1-1.94s6.75,0.48,9.11,1.939c2.4,1.5,2.37,2.736,2.33,4.783-0.05,2.128.26,12.765,0.43,17.279,0.18,4.646.31,12.252,0.26,14.1v0.136c-0.04,1.812-.09,4.068-2.16,5.255-2.25,1.295-5.98,2.07-9.97,2.07S2093.6,903.739,2091.35,902.445Zm-0.79,10.6a7.172,7.172,0,0,1-1.41-1.571c0.61-.751,1.6-0.833,2.66.023a1.879,1.879,0,0,1,.51,2.726A13.922,13.922,0,0,1,2090.56,913.044Zm5.29,2.292c-1.11-3.319-2.04-10.812-2.04-10.812,0.87,0.256,2.57.524,2.52,0.52,0.38,3.065,1.63,10.549,1.76,10.561C2097.98,915.6,2096.01,915.362,2095.85,915.336Z" transform="translate(-2084.75 -857.563)"/>
</svg>
