<svg xmlns="http://www.w3.org/2000/svg" width="28" height="61" viewBox="0 0 28 61">
  <defs>
    <style>
      .cls-1 {
        fill: #4f4f4f;
        fill-rule: evenodd;
      }
    </style>
  </defs>
  <path id="car2.svg" class="cls-1" d="M2233,917.91a0.051,0.051,0,0,0,.02.006,17.668,17.668,0,0,0,5.03-.585,12.246,12.246,0,0,0,5.52-4.555,2.54,2.54,0,0,1,.4-0.444,2.138,2.138,0,0,0,.5-0.629,11.574,11.574,0,0,0,.47-1.6c0.03-.115.05-0.218,0.08-0.3a31.712,31.712,0,0,0,.35-6.332v-0.336a4.263,4.263,0,0,0-.11-0.782,8.723,8.723,0,0,1-.22-1.775V893.05a10.1,10.1,0,0,0,1.64-1.6,1.019,1.019,0,0,0,.21-1.221l-0.01-.017a0.086,0.086,0,0,0-.1-0.044l-1.83.448c-0.04-1.242-.48-13.249-0.19-16.189a1.928,1.928,0,0,1,.08-0.736,4.826,4.826,0,0,0,.16-1.054,16.363,16.363,0,0,0-.2-3.92,2.276,2.276,0,0,0-.59-1.326,1.843,1.843,0,0,1-.35-0.5c-0.13-.261-0.38-0.944-0.68-1.735-0.43-1.175-.97-2.637-1.36-3.4-0.62-1.209-.82-1.536-1.21-1.662a5.427,5.427,0,0,0-.69-1.469c-0.34-.444-4-1.624-6.89-1.624a0.093,0.093,0,0,1-.06,0c-2.89,0-6.55,1.18-6.89,1.624a5.427,5.427,0,0,0-.69,1.469c-0.39.126-.59,0.453-1.21,1.662-0.39.768-.93,2.23-1.37,3.4-0.29.791-.54,1.474-0.67,1.735a2.1,2.1,0,0,1-.35.5,2.269,2.269,0,0,0-.59,1.326,16.366,16.366,0,0,0-.2,3.92,4.239,4.239,0,0,0,.16,1.054,1.945,1.945,0,0,1,.08.744c0.29,2.933-.15,14.939-0.19,16.182l-1.83-.448a0.083,0.083,0,0,0-.1.045l-0.01.017a0.959,0.959,0,0,0-.11.409,1.44,1.44,0,0,0,.32.81,10.1,10.1,0,0,0,1.64,1.6v7.518a8.837,8.837,0,0,1-.21,1.778,3.543,3.543,0,0,0-.11.782c0,0.068-.01.183-0.01,0.336a31.705,31.705,0,0,0,.35,6.332c0.03,0.085.05,0.188,0.08,0.3a13.087,13.087,0,0,0,.47,1.6,2.178,2.178,0,0,0,.5.629,2.54,2.54,0,0,1,.4.444,12.246,12.246,0,0,0,5.52,4.555,17.668,17.668,0,0,0,5.03.585Zm8.66-46.345a109.19,109.19,0,0,1,1.8,11.095c0.2,2.369,0,11.593,0,11.457s-2.18-7.547-2.35-9.942-0.09-11.316,0-12.884C2241.11,871.289,2241.14,870.077,2241.66,871.565Zm-13.53-7.4a2.954,2.954,0,0,1,1.87-2.145,10.81,10.81,0,0,1,2.97-.415,11.164,11.164,0,0,1,3.03.415,2.974,2.974,0,0,1,1.87,2.145s0.94,5.844.94,6.856-0.22,1.156-1.07,1.156-3.46-.165-4.75-0.165-3.88.165-4.73,0.165-1.07-.143-1.07-1.156S2228.13,864.163,2228.13,864.163Zm-5.59,18.5a109.236,109.236,0,0,1,1.8-11.1c0.52-1.487.55-.275,0.55-0.275,0.09,1.568.17,10.489,0,12.884s-2.35,9.807-2.35,9.942S2222.34,885.029,2222.54,882.659Zm10.47,16.849h0c-9.9-.028-10.38-3.135-10.35-3.163,0.29-1.047,2.33-8.121,2.33-8.121a0.722,0.722,0,0,1,1.04-.553,38.957,38.957,0,0,0,7.05.989,37.241,37.241,0,0,0,6.89-.989,0.722,0.722,0,0,1,1.04.553s2.04,7.076,2.33,8.121c0.03,0.029-.29,3.136-10.18,3.163h-0.15Zm5.65,8.385a3.9,3.9,0,0,1-.4,1.771c-0.4.957-.79,1.624-1.12,1.583-0.22-.015.16-1.324,0.25-1.713a4.091,4.091,0,0,1,.66-1.641A0.623,0.623,0,0,1,2238.66,907.893Zm-10.92,1.773a3.906,3.906,0,0,1-.4-1.772,0.626,0.626,0,0,1,.61,0,3.943,3.943,0,0,1,.65,1.641c0.1,0.389.48,1.7,0.25,1.713C2228.53,911.289,2228.13,910.622,2227.74,909.666Zm-1.26,5.823a15.21,15.21,0,0,1-4.29-4.2c-0.08-.126-0.37-0.673-0.05-0.389,1.01,0.9,3.36,1.806,4.06,2.36a4.339,4.339,0,0,1,1.21,1.57C2227.63,915.4,2227.48,915.967,2226.48,915.489Zm12.1-.663a4.482,4.482,0,0,1,1.22-1.57c0.69-.554,3.04-1.465,4.05-2.36,0.33-.283.04,0.265-0.04,0.389a15.237,15.237,0,0,1-4.29,4.2C2238.52,915.967,2238.37,915.4,2238.58,914.826Z" transform="translate(-2219 -857)"/>
</svg>
