<svg xmlns="http://www.w3.org/2000/svg" width="90" height="49" viewBox="0 0 90 49">
  <defs>
    <style>
      .cls-1 {
        fill: #4a9fee;
        fill-rule: evenodd;
      }
    </style>
  </defs>
  <path id="dish.svg" class="cls-1" d="M2209.5,689.03H2205a38.8,38.8,0,0,0-37.5-38.606v-4.455h3V643h-9v2.969h3v4.455A38.777,38.777,0,0,0,2127,689.03h-4.5a1.494,1.494,0,0,0-1.5,1.485,8.055,8.055,0,0,0,.12,1.485h89.77a9.152,9.152,0,0,0,.11-1.485A1.5,1.5,0,0,0,2209.5,689.03Zm-79.5,0a36,36,0,0,1,72,0h-72Zm8.44-17.952,2.51,1.618a27.64,27.64,0,0,1,2.62-3.385l-2.25-1.975A33.077,33.077,0,0,0,2138.44,671.078Zm7.04-3.7a30.05,30.05,0,0,1,20.52-8.048v-2.97a33,33,0,0,0-22.5,8.909Z" transform="translate(-2121 -643)"/>
</svg>
