<svg xmlns="http://www.w3.org/2000/svg" width="58.5" height="82.593" viewBox="0 0 58.5 82.593">
  <defs>
    <style>
      .cls-1 {
        fill: #ffbd23;
        fill-rule: evenodd;
      }
    </style>
  </defs>
  <path id="parachute_big.svg" class="cls-1" d="M1976.05,930.987l3.45-.011a1.721,1.721,0,0,0-.02-3.441l-3.44.011A1.721,1.721,0,1,0,1976.05,930.987Zm29.09-46.625v-0.027a29.26,29.26,0,0,0-58.52.175v0.039c0,0.03-.01.055-0.01,0.082a1.631,1.631,0,0,0,.05.22,1.738,1.738,0,0,0,.08.392,1.318,1.318,0,0,0,.18.3,1.1,1.1,0,0,0,.13.227l25.11,28.024-6.5.02a1.727,1.727,0,0,0-1.72,1.726l0.08,20.642a1.729,1.729,0,0,0,1.73,1.715l20.66-.063a1.712,1.712,0,0,0,1.71-1.726l-0.08-20.642a1.714,1.714,0,0,0-1.72-1.715l-6.5.02,24.89-28.178a1.731,1.731,0,0,0,.13-0.221,2.779,2.779,0,0,0,.18-0.313,1.573,1.573,0,0,0,.07-0.368,1.959,1.959,0,0,0,.05-0.242v-0.089Zm-29.36-25.624a25.894,25.894,0,0,1,25.2,19.754,22.886,22.886,0,0,0-11.37-2.594c-6.14.019-11.23,1.823-13.75,4.573-2.54-2.73-7.64-4.508-13.79-4.489a22.831,22.831,0,0,0-11.34,2.664A25.845,25.845,0,0,1,1975.78,858.738Zm-25.6,25.373c0.64-2.293,5.48-4.668,11.91-4.688,6.89-.021,12.06,2.688,12.06,5.124l0.11,26.439Zm34.43,33.087,0.06,17.2-17.21.053-0.07-17.2Zm-6.91-6.223-0.1-26.439c-0.01-2.436,5.13-5.177,12.03-5.2,6.42-.019,11.28,2.326,11.93,4.615Z" transform="translate(-1946.63 -855.313)"/>
</svg>
