<svg xmlns="http://www.w3.org/2000/svg" width="46.9" height="66.188" viewBox="0 0 46.9 66.188">
  <defs>
    <style>
      .cls-1 {
        fill: #ffbd23;
        fill-rule: evenodd;
      }
    </style>
  </defs>
  <path id="parachute_small.svg" class="cls-1" d="M1779.69,960.027l2.76,0a1.379,1.379,0,0,0-.01-2.757l-2.76,0A1.378,1.378,0,0,0,1779.69,960.027Zm23.37-37.316v-0.022a23.445,23.445,0,0,0-46.89.059v0.1a1.044,1.044,0,0,0,.03.176,1.66,1.66,0,0,0,.07.314,1.233,1.233,0,0,0,.14.243c0.04,0.06.06,0.126,0.1,0.181l20.08,22.489-5.2.007a1.377,1.377,0,0,0-1.38,1.381l0.03,16.539a1.377,1.377,0,0,0,1.38,1.376l16.56-.022a1.373,1.373,0,0,0,1.37-1.379l-0.03-16.54a1.378,1.378,0,0,0-1.38-1.376l-5.21.006,19.98-22.542a1.234,1.234,0,0,0,.11-0.176,1.211,1.211,0,0,0,.14-0.251,1.019,1.019,0,0,0,.06-0.295,1.247,1.247,0,0,0,.04-0.193v-0.072Zm-23.49-20.571A20.735,20.735,0,0,1,1799.73,918a18.288,18.288,0,0,0-9.1-2.094c-4.92.006-9,1.445-11.02,3.645-2.04-2.192-6.12-3.622-11.05-3.616a18.309,18.309,0,0,0-9.09,2.118A20.709,20.709,0,0,1,1779.57,902.14Zm-20.54,20.293c0.51-1.837,4.4-3.733,9.54-3.74,5.53-.007,9.66,2.171,9.66,4.122L1778.28,944Zm27.53,26.559,0.03,13.783-13.79.018-0.03-13.783Zm-5.52-5-0.05-21.184c0-1.952,4.12-4.14,9.65-4.148,5.14-.006,9.03,1.88,9.56,3.715Z" transform="translate(-1756.16 -899.375)"/>
</svg>
