<svg id="parking.svg" xmlns="http://www.w3.org/2000/svg" width="198" height="87.594" viewBox="0 0 198 87.594">
  <defs>
    <style>
      .cls-1 {
        fill: #fff;
        fill-rule: evenodd;
      }
    </style>
  </defs>
  <path id="parking" class="cls-1" d="M2242.95,932.287h4.61v4.7h-4.61v-4.7Zm9.22,0h4.61v4.7h-4.61v-4.7Zm-13.83,4.7h0.11v-4.7h-4.72v4.7h4.61Zm-9.22,0h0.11v-4.7h-4.72v4.7h4.61Zm-9.22,0h0.11v-4.7h-4.72v4.7h4.61Zm-9.22,0h0.11v-4.7h-4.72v4.7h4.61Zm-78.24.011h4.69v-0.011h0.01v-4.7h-4.72v4.7h0.02V937ZM2266,863.241v-4.606h-4.69V863.3H2266v-0.06Zm0,9.213v-4.6h-4.69v4.659H2266v-0.054Zm0-18.425v-4.608h-4.69v4.666H2266v-0.058Zm0,27.639V877.06h-4.69v4.662H2266v-0.054Zm0,9.208v-4.6h-4.69v4.661H2266v-0.059Zm0,27.639v-4.606h-4.69v4.664H2266v-0.058Zm0-9.21v-4.6h-4.69v4.661H2266v-0.056Zm0-9.216v-4.6h-4.69v4.661H2266v-0.058Zm0,36.9v-4.7h-4.61v0.047h-0.08V937H2266v-0.011Zm0-9.258v-4.608h-4.69v4.665H2266v-0.057Zm-188.78,4.558h4.6v4.7h-4.6v-4.7Zm9.22,0h4.6v4.7h-4.6v-4.7Zm92.09,4.7h4.61v-4.7h-4.72v4.7h0.11Zm9.22,0h4.61v-4.7h-4.72v4.7h0.11Zm-18.44,0h4.71v-4.7h-4.82v4.7h0.11Zm-9.22,0h4.71v-4.7h-4.82v4.7h0.11Zm-9.12,0h4.6v-4.7h-4.72v4.7h0.12Zm-9.22,0h4.61v-4.7h-4.73v4.7h0.12Zm-32.38,0h0.11v-4.7h-4.72v4.7h4.61Zm-9.22,0h0.11v-4.7h-4.72v4.7h4.61Zm27.66,0h0.11v-4.7h-4.72v4.7h4.61Zm-9.22,0h0.11v-4.7h-4.72v4.7h4.61Zm18.53-55.265h0.01V877.06h-4.69v4.662h4.68Zm0-9.214h0.01v-4.659h-4.69v4.659h4.68Zm0,18.427h0.01v-4.661h-4.69v4.661h4.68Zm0,18.426h0.01V904.7h-4.69v4.661h4.68Zm0-9.214h0.01v-4.661h-4.69v4.661h4.68Zm0-36.846h0.01v-4.666h-4.69V863.3h4.68Zm0-9.214h0.01v-4.666h-4.69v4.666h4.68Zm0,64.486h0.01v-4.664h-4.69v4.664h4.68Zm0,9.213h0.01v-4.665h-4.69v4.665h4.68Zm-64.44-73.757v-4.608H2068v4.666h4.68v-0.058Zm0,9.212v-4.606H2068V863.3h4.68v-0.06Zm0,9.213v-4.6H2068v4.659h4.68v-0.054Zm0,9.214V877.06H2068v4.662h4.68v-0.054Zm0,9.208v-4.6H2068v4.661h4.68v-0.059Zm0,18.429v-4.6H2068v4.661h4.68v-0.056Zm0,18.424v-4.608H2068v4.665h4.68v-0.057Zm0-9.214v-4.606H2068v4.664h4.68v-0.058Zm0-18.426v-4.6H2068v4.661h4.68v-0.058Zm0,36.909v-4.664h-0.07v-0.047H2068V937h4.68Zm128.88-73.7h0.01v-4.666h-4.7V863.3h4.69Zm0,9.207h0.01v-4.659h-4.7v4.659h4.69Zm0-18.421h0.01v-4.666h-4.7v4.666h4.69Zm0,27.635h0.01V877.06h-4.7v4.662h4.69Zm0,9.213h0.01v-4.661h-4.7v4.661h4.69Zm0,27.638h0.01v-4.664h-4.7v4.664h4.69Zm0-9.212h0.01V904.7h-4.7v4.661h4.69Zm0-9.214h0.01v-4.661h-4.7v4.661h4.69ZM2196.87,937h4.7v-0.011h0.01v-4.7h-4.72v4.7h0.01V937Zm4.69-9.212h0.01v-4.665h-4.7v4.665h4.69Z" transform="translate(-2068 -849.406)"/>
  <path class="cls-1" d="M2188,878.627c0-5.336-1.44-9.312-4.27-11.823-2.85-2.531-6.75-3.814-11.6-3.814H2151V913h9.36v-18.4h11.09c5.34,0,9.48-1.218,12.31-3.616C2186.58,888.617,2188,884.459,2188,878.627Zm-11.56,6.325a8.556,8.556,0,0,1-6,1.987h-10.08V870.731h10.08a8.98,8.98,0,0,1,5.99,1.832c1.46,1.238,2.21,3.306,2.21,6.132S2177.9,883.617,2176.44,884.952Z" transform="translate(-2068 -849.406)"/>
</svg>
