<svg xmlns="http://www.w3.org/2000/svg" width="283" height="34" viewBox="0 0 283 34">
  <defs>
    <style>
      .cls-1 {
        fill: #fff;
        fill-rule: evenodd;
      }
    </style>
  </defs>
  <path id="roof.svg" class="cls-1" d="M2025.94,652.384c0-.11.01-0.513,0-0.6V634.5H2026V631H1744.83a1.792,1.792,0,0,0-1.83,1.75v19.218a0.646,0.646,0,0,0,.01.139,2.6,2.6,0,0,0-.01.279c0,6.954,7.08,12.612,15.79,12.612,6.05,0,11.31-2.729,13.97-6.725,2.65,4,7.91,6.725,13.96,6.725s11.31-2.729,13.97-6.725c2.65,4,7.91,6.725,13.96,6.725s11.31-2.729,13.96-6.725c2.66,4,7.92,6.725,13.97,6.725s11.31-2.729,13.96-6.725c2.66,4,7.92,6.725,13.97,6.725s11.31-2.729,13.96-6.725c2.65,4,7.92,6.725,13.97,6.725s11.31-2.732,13.96-6.731c2.65,4,7.91,6.731,13.96,6.731,8.05,0,11.99-3.428,13.93-6.791,2.64,4.031,7.92,6.791,14,6.791,6.05,0,11.32-2.729,13.97-6.725,2.65,4,7.91,6.725,13.96,6.725s11.31-2.729,13.97-6.725c2.65,4,7.91,6.725,13.96,6.725C2026,665,2025.94,652.678,2025.94,652.384Zm-255.01-.611a1.271,1.271,0,0,0-.01.276c0,0.111.01,0.222,0.01,0.335,0,5.024-5.45,9.112-12.14,9.112s-12.13-4.088-12.13-9.112c0-.11,0-0.219.01-0.337a2.753,2.753,0,0,0-.01-0.288V634.5h24.27v17.274Zm15.79,9.723c-6.69,0-12.14-4.088-12.14-9.112,0-.113.01-0.224,0.02-0.335a1.184,1.184,0,0,0-.02-0.266V634.5h24.26v17.885a1.087,1.087,0,0,0,.01.181C1798.72,657.506,1793.33,661.5,1786.72,661.5Zm40.07-9.711a2.434,2.434,0,0,0-.02.271c0.01,0.109.02,0.218,0.02,0.328,0,5.024-5.45,9.112-12.14,9.112s-12.14-4.088-12.14-9.112c0-.113.01-0.224,0.02-0.335a2.348,2.348,0,0,0-.03-0.377V634.5h24.29v17.286Zm27.94-.124a2.5,2.5,0,0,0-.03.388c0.01,0.111.01,0.222,0.01,0.335,0,5.024-5.44,9.112-12.13,9.112s-12.14-4.088-12.14-9.112c0-.11.01-0.219,0.01-0.337a1.157,1.157,0,0,0-.01-0.263V634.5h24.29v17.162Zm27.95-.073a1.43,1.43,0,0,0-.05.461c0.01,0.111.01,0.222,0.01,0.335,0,5.024-5.44,9.112-12.13,9.112-6.61,0-12-3.99-12.13-8.931,0-.059.01-0.12,0.01-0.181V634.5h24.29v17.089Zm27.89,0.177a2.81,2.81,0,0,0-.01.291c0.01,0.109.01,0.218,0.01,0.328,0,5.024-5.44,9.112-12.13,9.112-6.58,0-11.95-3.946-12.13-8.849a2.259,2.259,0,0,0,.02-0.263V634.5h24.24v17.266Zm27.93,0.008a1.271,1.271,0,0,0-.01.276c0,0.111.01,0.222,0.01,0.335,0,5.024-5.44,9.112-12.14,9.112s-12.13-4.088-12.13-9.112c0-.11,0-0.219.01-0.337a2.753,2.753,0,0,0-.01-0.288V634.5h24.27v17.274Zm27.93,0a1.271,1.271,0,0,0-.01.276c0,0.111.01,0.222,0.01,0.335,0,5.024-5.44,9.112-12.14,9.112s-12.13-4.088-12.13-9.112c0-.11,0-0.219.01-0.337a2.753,2.753,0,0,0-.01-0.288V634.5h24.27v17.274Zm15.79,9.723c-6.69,0-12.13-4.088-12.13-9.112,0-.113,0-0.224.01-0.335a2.348,2.348,0,0,0-.01-0.266V634.5h24.25v17.885c0,0.061.01,0.122,0.01,0.181C1994.22,657.506,1988.83,661.5,1982.22,661.5Zm40.07-9.711a1.226,1.226,0,0,0-.01.271c0,0.109.01,0.218,0.01,0.328,0,5.024-5.45,9.112-12.14,9.112s-12.14-4.088-12.14-9.112c0-.113.01-0.224,0.02-0.335a2.348,2.348,0,0,0-.03-0.377V634.5h24.29v17.286Z" transform="translate(-1743 -631)"/>
</svg>
