<svg xmlns="http://www.w3.org/2000/svg" width="83" height="92" viewBox="0 0 83 92">
  <defs>
    <style>
      .cls-1 {
        fill: #ffd36e;
        fill-rule: evenodd;
      }
    </style>
  </defs>
  <path id="tshirt.svg" class="cls-1" d="M1817.25,748.294l-15.61,37.1a7.713,7.713,0,0,1-10.13,3.987l-31.5-13.315a1.729,1.729,0,1,1,1.34-3.187l31.5,13.315a4.208,4.208,0,0,0,5.53-2.177L1814,746.917c0.99-2.353.31-4.807-1.33-7.186-2.08-3.016-5.63-5.906-9.45-8.413-4.57,5.077-12.76,5.04-18.78,2.5-6.04-2.556-11.83-8.482-11.31-15.346-4.44-1.019-8.96-1.568-12.55-.942-2.85.5-5.09,1.768-6.13,4.222l-13.9,33.022,5.36,2.266a1.729,1.729,0,1,1-1.34,3.187l-5.36-2.266-0.37.886a4.227,4.227,0,0,0,2.3,5.489q5.46,2.3,10.91,4.608a1.731,1.731,0,1,1-1.35,3.187q-5.445-2.3-10.9-4.608a7.733,7.733,0,0,1-4.22-10.053l15.62-37.1c1.55-3.681,4.73-5.555,8.72-6.251,5.63-.982,11.83.42,17.33,1.82a22.643,22.643,0,0,0-.58,2.554,24.98,24.98,0,0,1,8.68.852,18.41,18.41,0,0,1,7.57-5.6c1.92-.887,4.37-2.122,3.3-4.675a3,3,0,0,0-3.83-1.617c-1.4.553-1.72,1.88-2.25,3.13q-4.335-1.835-8.69-3.671c1.6-3.8,3.19-6.432,7.33-8.061a12.608,12.608,0,0,1,16.1,6.807c2.93,6.976-.55,12.688-6.85,15.881a20.039,20.039,0,0,0-3.32,1.97,23.141,23.141,0,0,1,5.94,5.394,18.729,18.729,0,0,0,1.56-2.313c4.81,3,10.11,6.521,13.35,11.218C1817.86,741.15,1818.77,744.7,1817.25,748.294Zm-36.35-20.707a18.3,18.3,0,0,0,10.27,4.4A34.541,34.541,0,0,0,1780.9,727.587Zm15.16,4.023a10.873,10.873,0,0,0,1.79-.647c-2.28-3.1-5.43-4.872-8.74-6.686a19.427,19.427,0,0,1,7.27-5.822c4.63-2.346,7.46-6.246,5.25-11.51a9.007,9.007,0,0,0-11.5-4.861,8.544,8.544,0,0,0-3.91,3.093l2.23,0.943a6.3,6.3,0,0,1,2.59-1.888,6.607,6.607,0,0,1,8.43,3.564c1.91,4.544-1.2,7.342-5.01,9.1a15.656,15.656,0,0,0-7.67,6.487,24.181,24.181,0,0,0-9.75-1.436,11.4,11.4,0,0,0,.75,1.761C1782.63,723.667,1792.52,727.569,1796.06,731.61Zm-5.71,12.683,13.01,5.5a1.728,1.728,0,1,1-1.34,3.186l-13.01-5.5A1.729,1.729,0,1,1,1790.35,744.293Zm-7.37-6.988a1.723,1.723,0,1,0,.95,2.272A1.749,1.749,0,0,0,1782.98,737.305Zm-3.87,9.17a1.722,1.722,0,1,0,.96,2.274A1.741,1.741,0,0,0,1779.11,746.475Zm-3.86,9.172a1.721,1.721,0,1,0,.96,2.273A1.74,1.74,0,0,0,1775.25,755.647Zm-24.86,3.29a1.724,1.724,0,1,0,.96,2.274A1.736,1.736,0,0,0,1750.39,758.937Z" transform="translate(-1735 -698)"/>
</svg>
