<svg id="brand1.svg" xmlns="http://www.w3.org/2000/svg" width="175" height="100" viewBox="0 0 175 100">
  <defs>
    <style>
      .cls-1 {
        fill: none;
      }

      .cls-2 {
        fill: #112236;
        fill-rule: evenodd;
      }
    </style>
  </defs>
  <rect class="cls-1" width="175" height="100"/>
  <path class="cls-2" d="M1502.27,1198.53a11.357,11.357,0,0,0-1.7,3.01,9.681,9.681,0,0,0-.5,3.1,5.363,5.363,0,0,0,1.94,4.18,7.586,7.586,0,0,0,4.65,1.5,9.259,9.259,0,0,0,6.76-2.67c1.95-1.84,2.87-3.68,2.87-5.52a2.271,2.271,0,0,0-.58-1.68,1.908,1.908,0,0,0-1.44-.58,0.423,0.423,0,0,0-.34.08l-0.08.17v0.08a2.058,2.058,0,0,0,.33.5,2.5,2.5,0,0,1,.18.42v0.58a5.57,5.57,0,0,1-2.21,4.52,7.7,7.7,0,0,1-5.06,1.85,5.207,5.207,0,0,1-5.42-5.44,4.24,4.24,0,0,1,.26-1.43,4.952,4.952,0,0,1,.76-1.75,8.1,8.1,0,0,0,.43-0.84l0.08-.25a0.683,0.683,0,0,1-.08-0.25l-0.18-.08-0.25.08a1.979,1.979,0,0,1-.42.42h0Zm-1.95-7.45-0.33-.25a13.479,13.479,0,0,0-4.15-1.41,10.262,10.262,0,0,0-4.47.25,11.779,11.779,0,0,0-6.01,3.84c-1.52,1.84-2.1,3.68-1.6,5.44,0.51,1.84,2.03,3,4.56,3.59a17.284,17.284,0,0,0,8.45-.33,8.386,8.386,0,0,0,3.89-2.09,6.16,6.16,0,0,0,1.95-3.18c0.08-.42.16-0.75,0.25-1.17,0-.33.08-0.5,0.08-0.67v-0.25a1.294,1.294,0,0,1,.18-0.16l0.08-.09h0.08a0.182,0.182,0,0,1,.17.16,0.18,0.18,0,0,1,.09.18v0.07a2.631,2.631,0,0,1,.16.26l0.09,0.17c0.43,1.5.08,3.25-1.1,5.26a8.3,8.3,0,0,1-5.5,4.02c-4.14,1.09-7.77,1-10.81-.34s-4.99-3.26-5.67-5.69c-0.59-2.17-.07-4.34,1.36-6.68a11.443,11.443,0,0,1,6.85-4.77,19.308,19.308,0,0,1,7.6,0c2.88,0.5,4.56,1.43,4.9,2.76a1.5,1.5,0,0,1-.08.83,1.3,1.3,0,0,1-.26.59l-0.16-.09a6.254,6.254,0,0,1-.6-0.25h0Zm17.16,1.93c2.96-1.43,4.99-2.93,6-4.51a9.777,9.777,0,0,0,1.52-5.35,7.891,7.891,0,0,0-2.87-6.44c-1.94-1.68-4.65-2.51-8.12-2.51a15.851,15.851,0,0,0-10.56,3.76c-2.95,2.51-4.47,5.35-4.47,8.53a7.754,7.754,0,0,0,.58,3.09c0.34,0.92.76,1.42,1.27,1.42a0.714,0.714,0,0,0,.51-0.17,0.326,0.326,0,0,0,.17-0.33,2.964,2.964,0,0,0-.26-1.41,9.382,9.382,0,0,1,3.13-8.95,12.106,12.106,0,0,1,8.12-2.84,11.218,11.218,0,0,1,7.1,2.09,6.789,6.789,0,0,1,2.44,5.51,7.421,7.421,0,0,1-2.44,5.68c-1.61,1.68-2.46,2.43-2.37,2.34l0.07,0.09h0.18Zm-31.79,16.63c0.69,0.15.46,0.84,1.07,1.22-0.61-.38-0.38-1.07-1.07-1.22h0Zm-18.62-10.18c-0.55-.84-1.33-0.77-1.4-0.23,0.07-.54.85-0.61,1.4,0.23h0Zm-13.23,2.37-0.54.16v-0.69a1.7,1.7,0,0,1,.54.53h0Zm25.37-17.63-0.7.69c-1.93.99-3.63,2.67-5.86,2.67a7.4,7.4,0,0,1-1.59.59v-2.45c2.9-.68,5.82-1.61,7.3-4.18,0.39-1.14-.23-2.07-1-2.91a7.369,7.369,0,0,0-6.3-.95v-2.94a14.761,14.761,0,0,1,4.82.07c2.01,0.38,3.41,2.37,4.03,4.21a3.889,3.889,0,0,1,.31,1.35v0.32a11.091,11.091,0,0,1-1.01,3.53h0Zm-8.15,3.95a10.661,10.661,0,0,1-6.68-.67c-0.62-.53-1.68-0.64-1.92-1.4-0.69-.32-1.18-1.58-1.41-2.42a4.762,4.762,0,0,1-.19-1.16v-0.32a5.425,5.425,0,0,1,1.82-3.72,19.444,19.444,0,0,1,8.38-3.74v2.94a20.162,20.162,0,0,0-4.83,1.95c-1.24,1.14-3.17,2.53-2.4,4.59a15.384,15.384,0,0,1,1.16,1.46c1.08,0.61,2.47.45,3.8,0.61a7.04,7.04,0,0,0,1.92-.49c0.11-.02.24-0.05,0.35-0.08v2.45h0Zm-0.43-18.21a26.869,26.869,0,0,1,3.63-.43l1.24-4.68v-0.99c0.92-.91,1.08-2.06,1.62-3.13a8.951,8.951,0,0,1,.77-2.61c0.08-.53-0.07-1.91.86-1.45a1.958,1.958,0,0,1,.62,1.99,5.555,5.555,0,0,1-.08,2.76,15.49,15.49,0,0,1-.85,4.28c-0.23,1.3-.77,2.45-1.08,3.75,1,0.31,2.47.08,3.32,0.84,1.54,1.76,2.4-.76,3.79-0.76a24.714,24.714,0,0,1,3.94-2.15,9.4,9.4,0,0,1,3.25-1.22c0.86,0.07,1.94-.39,2.47.31a1.953,1.953,0,0,1-1.31,1.14l-0.62.54c-0.54.08-1.02,0.73-1.72,0.88-1.07.94-2.3,2.41-3.85,2.64l-4.09,2.22c0.92,1.14,2.47,2.67,2.55,4.66h6.26c2.63-.07,5.68.05,7.62,1.57,0.62,0.54-.24.7-0.24,1.08l-5.29-.12c-0.92,0-1.78.69-2.63,0.46-2.09.3-4.1-.23-5.96,0a7.16,7.16,0,0,1-1.7,3.37c-0.61,1.07.86,0.84,1.09,1.52,1.08,0.39,1.86,1.39,2.86,1.61a9.385,9.385,0,0,0,3.25,2.22c0.23,0.61,1,.83,1.85,1.68,1.16,0.3,1.4,1.3,1.93,2.37a1.391,1.391,0,0,1-1.08.84c-1.01-.84-2.47-1.22-3.25-2.14-2.09-.57-3.19-2.93-5.79-3.44-0.39-.84-1.71-0.68-2.87-1.99a44.66,44.66,0,0,1-4.63,3.21,4.008,4.008,0,0,0-2.01,1.15c0.07,1.15,1,2.37,1.38,3.6a13.215,13.215,0,0,1,.63,2.67c0,0.61.54,1.08,0.54,1.84,0.07,1.45,1.39,3.37-.23,4.67a1.8,1.8,0,0,1-1.48-.77c-1.08-2.22-2.42-5.58-2.16-6.88l-0.23-2.15a11.776,11.776,0,0,0-.78-2.44c-0.48.08-1,.18-1.54,0.25v-2.33a2.358,2.358,0,0,0,1.48-.6c1.92-.08,3.55-1.22,5.17-2.22,0-.61.85-0.76,1.23-1.37l0.07-1.25,0.69-.69c0.61-.15,1.18.1,1.64-0.59a9.784,9.784,0,0,0,.93-2.06c0.85-1.92,1.24-4.67-.16-6.35-0.69-1.62-3.17-.54-2.7-2.68l-0.31-.31a33.825,33.825,0,0,0-7.96.54l-0.08.15v-3.01h0Zm-3.01-5.64,1.17,4.21a11,11,0,0,1,.54,1.53,10.258,10.258,0,0,0,1.3-.1v3.01a2.323,2.323,0,0,1-1.76,1.3,1.758,1.758,0,0,1-1.41-.31c-4.17,2.06-8.89,5.51-8.81,10.8a9.486,9.486,0,0,0,2.09,3.44c0.54,0.38,1.16.99,1.71,1.29l1.31,0.31c0.07-.53.85-0.61,1.39,0.22l4.48,0.53c0.32-.08.66-0.1,1-0.15v2.33a13.658,13.658,0,0,1-6.02-.25l-1.32,1.29a10.757,10.757,0,0,0-1.39,1.99,16.676,16.676,0,0,1-1.93,1.92c-1.93,1.9-3.41,4.59-5.8,5.74-0.78.22-1.08-.77-1.62-1.15-0.39-1.07.54-1.53,1.09-2.15,0.61-.07,1.07-1.06,1.62-1.06,1.95-2.94,3.58-3.29,5.33-5.75,0.23-.53,1.01-0.83,1.08-1.37-1.23-.85-2.78-1.39-3.71-2.52-1.31.91-4.94,2.25-6.99,3.25-0.42-.92-1.13-1.91.96-3.1l3.01-1.37c2.55-.92-0.69-2.76,0-4.52v-2.14l-3.24.08h-2.32a33.575,33.575,0,0,0-7.35-.37,0.847,0.847,0,0,1-.54-0.61c0.96-1.55,5.02-2.32,8.05-2.09h6.64c0.47-1.14,2.09-1.99,2.39-3.2h-0.22c-1.93-1.23-3.81-2.45-5.54-3.63l-0.94-.7c-1.08-.77-2.03-1.42-2.88-2.11a2.343,2.343,0,0,1-1.23-2.44c0.16-.46.69-0.31,1.16-0.31a3.993,3.993,0,0,1,1.7,1.22c1.54,0.46,2.63,1.91,4.02,2.68,2.01,0.76,3.63,2.53,5.8,3.3,2.24,0.06,3.71-2.15,5.95-2.46a55.319,55.319,0,0,1-.93-6.34c-0.31-.31.08-1-0.47-1.23l-0.54-2.76c-0.07-.42-0.33-2.33,0-2.6,0.46-.76.78-1.38,1.32-1.3a1.591,1.591,0,0,1,.62.92,6.351,6.351,0,0,1,.53,2.37,19.112,19.112,0,0,1,.7,4.36h0Zm-41.72,27.13c-3.32.56-5.75,1.52-7.2,2.88a9.531,9.531,0,0,0-2.92,4.89,8.385,8.385,0,0,0,1.13,7.21c1.46,2.08,3.89,3.6,7.37,4.56a16.773,16.773,0,0,0,11.57-.96c3.56-1.68,5.83-4.17,6.64-7.29a8.314,8.314,0,0,0,.32-3.12c-0.08-1.04-.4-1.68-0.89-1.77a0.683,0.683,0,0,0-.57,0,0.361,0.361,0,0,0-.24.33,3.039,3.039,0,0,0-.16,1.36,5.961,5.961,0,0,1-.4,2.16,9.188,9.188,0,0,1-5.02,5.93,12.492,12.492,0,0,1-8.9.64c-3.08-.8-5.27-2.09-6.48-3.92a7.059,7.059,0,0,1-1.05-6.09,8.359,8.359,0,0,1,3.96-4.98,20.025,20.025,0,0,1,3.08-1.67v-0.08l-0.08-.08h-0.16Zm-9.06-7.2-0.49.72a6.973,6.973,0,0,1-.73.96,2.334,2.334,0,0,1-.73.16,0.927,0.927,0,0,1-.72-0.25,0.909,0.909,0,0,1-.17-0.79c0-1.84,1.21-3.92,3.56-6.09a11.459,11.459,0,0,1,7.93-3.28,13.7,13.7,0,0,1,6.24,1.84,19.41,19.41,0,0,1,5.74,4.57l0.89,1.03c0.49,0.65.89,1.2,1.21,1.69a4.141,4.141,0,0,1,.41,1.2,0.639,0.639,0,0,1-.17.56c-0.07.16-.15,0.24-0.24,0.16h-0.16c-0.07-.08-0.4-0.47-1.05-1.36l-0.65-.96a14.764,14.764,0,0,0-5.18-4.16,15.353,15.353,0,0,0-6.63-1.61,8.867,8.867,0,0,0-4.7,1.28,13.657,13.657,0,0,0-4.36,4.33h0Zm22.41,1.12a9.339,9.339,0,0,1,5.83-2.08,4.893,4.893,0,0,1,4.05,1.84,6.368,6.368,0,0,1,1.53,4.4,8.822,8.822,0,0,1-2.67,6.4c-1.78,1.84-3.56,2.81-5.26,2.81a1.969,1.969,0,0,1-2.27-1.92,0.7,0.7,0,0,1,.09-0.32l0.16-.08h0.16s0.16,0.08.4,0.23a0.839,0.839,0,0,0,.41.17,1.6,1.6,0,0,0,.57.07,5.3,5.3,0,0,0,4.37-2.16,7.59,7.59,0,0,0,1.77-4.88,4.889,4.889,0,0,0-1.45-3.68,5.072,5.072,0,0,0-3.81-1.36,8.023,8.023,0,0,0-1.37.16,13.3,13.3,0,0,0-1.7.72c-0.49.32-.72,0.4-0.81,0.48h-0.24c-0.16,0-.24,0-0.24-0.08v-0.32a3.046,3.046,0,0,1,.48-0.4h0Zm-8.41-18.02,0.75-.72a3.287,3.287,0,0,1,1,1.96,3.07,3.07,0,0,1-.51,2.03,3.632,3.632,0,0,1-1.49,1.42,3.214,3.214,0,0,1-1.86.23,5.682,5.682,0,0,1-1.95-.74,4.53,4.53,0,0,1-1.51-1.47,3.149,3.149,0,0,1-.47-1.79,3.853,3.853,0,0,1,.6-1.8,2.938,2.938,0,0,1,3.48-1.36l-0.33.96a2.261,2.261,0,0,0-1.44.01,1.984,1.984,0,0,0-.99.86,2.526,2.526,0,0,0-.43,1.45,2.149,2.149,0,0,0,.53,1.29,4.521,4.521,0,0,0,1.11.98,4.738,4.738,0,0,0,1.6.65,2.053,2.053,0,0,0,1.37-.18,2.421,2.421,0,0,0,1-.9,2.156,2.156,0,0,0,.35-1.45,2.445,2.445,0,0,0-.81-1.43h0Zm4.8-1.77-0.06-.13v-3.87l1.7-1.43-1.7-.94v-1.04l5.52,2.87-0.88.73-2.17-1.19-2.44,2.03,0.84,2.29-0.81.68h0Zm-0.06-.13-2.61-7.51,0.84-.7,1.77,0.93v1.04l-0.26-.14c-0.6-.34-1.08-0.62-1.43-0.85a10.59,10.59,0,0,1,.62,1.36l0.79,2.23,0.28-.23v3.87h0Zm6.06-13.62,4.34-2,3.21,6.83-0.91.43-2.84-6.03-2.5,1.14,1.66,3.53a10.369,10.369,0,0,1,.64,1.62,1.5,1.5,0,0,1-.06.97,1.3,1.3,0,0,1-.7.66,2.916,2.916,0,0,1-.78.23l-0.21-.88a1.16,1.16,0,0,0,.42-0.08,0.582,0.582,0,0,0,.36-0.45,2.612,2.612,0,0,0-.36-1.16l-2.27-4.81h0Zm14.18-5.12a3.716,3.716,0,0,1,1.1.17,3.309,3.309,0,0,1,1.57,1.07,4.439,4.439,0,0,1,.89,1.88,4.394,4.394,0,0,1,.02,2.1,3.159,3.159,0,0,1-.99,1.63,3.782,3.782,0,0,1-1.7.87,3.94,3.94,0,0,1-.89.11v-0.87a2.82,2.82,0,0,0,.7-0.07,2.459,2.459,0,0,0,1.65-1.19,3.183,3.183,0,0,0,.2-2.36,3.6,3.6,0,0,0-.68-1.49,2.332,2.332,0,0,0-1.13-.84,2.612,2.612,0,0,0-.74-0.13v-0.88h0Zm-3.52,4.83a4.011,4.011,0,0,1,.32-3.1,3.48,3.48,0,0,1,2.32-1.62,3.855,3.855,0,0,1,.88-0.11v0.88a2.349,2.349,0,0,0-.68.07,2.546,2.546,0,0,0-1.63,1.11,3.246,3.246,0,0,0-.19,2.55,3,3,0,0,0,1.2,1.93,2.416,2.416,0,0,0,1.3.42v0.87a3.437,3.437,0,0,1-2.67-1.27,4.189,4.189,0,0,1-.85-1.73h0Zm12.12,1.33-0.39-7.55,1.01-.04,0.16,3.09,3.96-.2-0.16-3.1,1.01-.05,0.38,7.54-0.99.05-0.2-3.55-3.96.2,0.2,3.56-1.02.05h0Zm19.61-6.27,3.41,0.78-0.2.86-3.21-.73v-0.91h0Zm0,3.3,0.61,0.14a5.355,5.355,0,0,1,1.52.54,1.779,1.779,0,0,1,.77.92,2.132,2.132,0,0,1,.07,1.28,2.327,2.327,0,0,1-.49.98,2.151,2.151,0,0,1-.93.62,3.384,3.384,0,0,1-1.55-.03v-0.87h0.01a1.929,1.929,0,0,0,1.28-.05,1.175,1.175,0,0,0,.61-0.87,1.261,1.261,0,0,0-.04-0.82,1.152,1.152,0,0,0-.54-0.55,6.549,6.549,0,0,0-1.32-.41v-0.88h0Zm-1.41-3.62,1.41,0.32v0.91l-0.63-.14-0.53,2.27,1.16,0.26v0.88l-0.04-.01-1.31-.29-0.6,2.54,1.95,0.46v0.87l-0.21-.06-2.91-.66,1.71-7.35h0Zm13.92,8.69a1.681,1.681,0,0,1,.15.34,2.17,2.17,0,0,1-.15,1.51v-1.85h0Zm0,4.39,0.68,0.35,3.46-6.73-0.9-.46-3.24,6.31v0.53h0Zm-2.7-9.83,0.9,0.45-1.06,2.07v-2.21l0.16-.31h0Zm-0.16,3.54,1.21,0.6a4.12,4.12,0,0,1,1.65,1.3v1.85l-0.03.07a2.258,2.258,0,0,1-1.25,1.1,2.353,2.353,0,0,1-1.58-.12v-0.92a1.894,1.894,0,0,0,1.01.17,1.381,1.381,0,0,0,.98-1.53,1.151,1.151,0,0,0-.41-0.66,6.654,6.654,0,0,0-1.18-.69l-0.4-.2v-0.97h0Zm2.86,5.76v0.53l-0.22-.11,0.22-.42h0Zm-2.86-6.78-0.42.81,0.42,0.21v0.97l-0.81-.42-1.2,2.33,1.65,0.83a1.952,1.952,0,0,0,.36.17v0.92a5.174,5.174,0,0,1-.71-0.3l-2.59-1.31,3.3-6.42v2.21h0Zm8.79,11.55,4.51-4.95-1.87-1.67,0.6-.65,4.49,4-0.61.66-1.88-1.67-4.49,4.95-0.75-.67h0Zm10.12,3.28,2.3-.44,0.58,0.91-2.88,3.96v-1.63l0.85-1.09c0.41-.55.77-0.98,1.05-1.29a10.036,10.036,0,0,1-1.45.41l-0.45.1v-0.93h0Zm-5.71,1.1,5.71-1.1v0.93l-1.89.37,1.37,2.18,0.52-.68v1.63l-1.93,2.66-0.61-.96,1.48-1.96-1.68-2.68-2.4.51-0.57-.9h0Zm-75.67,51.84-2.8.86a4.831,4.831,0,0,1-2.8.26,1.008,1.008,0,0,1-.97-0.95,2.493,2.493,0,0,1,1.49-1.9,21.481,21.481,0,0,1,5.42-1.47c7.09-1.13,11.28-1.82,12.43-2.17,1.21-.43,2.53-0.78,3.84-1.3a14.2,14.2,0,0,0-4.99-7.44,13.449,13.449,0,0,0-8.31-3.03,14.494,14.494,0,0,0-3.66.61,34.6,34.6,0,0,0-4.29,1.81c-1.74.87-2.71,1.39-2.8,1.39a1.006,1.006,0,0,1-.43.08,0.523,0.523,0,0,1-.53-0.26,0.662,0.662,0,0,1-.26-0.6c0-1.21,1.74-2.68,5.16-4.41a21.272,21.272,0,0,1,9.44-2.6,16.522,16.522,0,0,1,10.14,3.38,15.392,15.392,0,0,1,6.03,9.43,6.942,6.942,0,0,1,2.54-.26,1.049,1.049,0,0,1,1.05.87,2.091,2.091,0,0,1-1.05,1.64,4.011,4.011,0,0,1-2.19,1.04,23.82,23.82,0,0,1-6.73,17.57c-4.64,4.93-10.05,7.35-16.17,7.35-2.71,0-4.81-.43-6.13-1.29a3.923,3.923,0,0,1-2.09-3.47,0.93,0.93,0,0,1,.35-0.87,1.5,1.5,0,0,1,1.22-.34,9.861,9.861,0,0,1,2.62.69,10.919,10.919,0,0,0,3.59.61,17.231,17.231,0,0,0,12.59-5.2c3.49-3.37,5.16-7.87,5.16-13.41a89.558,89.558,0,0,1-9.79,1.91,52.579,52.579,0,0,0-7.08,1.47h0Zm23.17-22.24-1.67.51a3.43,3.43,0,0,1-1.83.35,0.687,0.687,0,0,1-.62-0.78c0-.69.8-1.38,2.28-1.99a15.79,15.79,0,0,1,5.24-.86c5.43,0,9.8,2.42,13.2,7.18a26.684,26.684,0,0,1,5.16,15.92c0,5.28-1.22,9.52-3.51,12.64-2.35,3.2-5.23,4.84-8.64,4.76a8.458,8.458,0,0,1-6.73-3.29,11.372,11.372,0,0,1-2.8-7.96,12.592,12.592,0,0,1,3.23-8.66c2.2-2.51,4.38-3.71,6.65-3.71a1.786,1.786,0,0,1,.96.25,0.917,0.917,0,0,1,.35.6v0.44a1.3,1.3,0,0,0-.44.26l-2.18,1.03a7.459,7.459,0,0,0-2.97,3.3,11.908,11.908,0,0,0-1.14,4.84,10.947,10.947,0,0,0,1.66,6.23,5.148,5.148,0,0,0,4.37,2.43c2.28,0,4.11-1.22,5.59-3.47a17.769,17.769,0,0,0,2.27-9.51,25.463,25.463,0,0,0-4.45-14.54c-2.97-4.42-6.47-6.67-10.32-6.67a14.15,14.15,0,0,0-1.83.17,10.145,10.145,0,0,0-1.83.53h0Zm44.76,30.89a31.89,31.89,0,0,1-6.66,3.98,13.034,13.034,0,0,1-5.07,1.04h-0.26v-3.12a5.62,5.62,0,0,0,1.22.09,16.406,16.406,0,0,0,5.34-.96,21.491,21.491,0,0,0,5.25-2.67c0.35-.17.61-0.26,0.78-0.35a1.046,1.046,0,0,1,.44-0.08l0.17,0.08,0.09,0.18v0.34a1.508,1.508,0,0,1-.35.78,7.564,7.564,0,0,0-.95.69h0Zm-11.99-20.33a11.086,11.086,0,0,1,4.9-1.13,6.139,6.139,0,0,1,3.23.86,2.86,2.86,0,0,1,1.23,2.26c0,1.56-1.14,3.54-3.5,5.97a64.387,64.387,0,0,1-5.86,5.18v-3.37c1.05-.78,1.66-1.38,2.02-1.64l1.74-1.74a16.4,16.4,0,0,0,1.57-1.64,5.551,5.551,0,0,0,.36-0.95,1.478,1.478,0,0,0-.7-1.12,3.165,3.165,0,0,0-1.58-.61,6.532,6.532,0,0,0-3.41,1.04v-3.11h0Zm0,25.35v-3.12a5.773,5.773,0,0,1-5.24-5.18c2.01-1.39,3.75-2.69,5.24-3.91v-3.37a6.446,6.446,0,0,1-.87.69c-1.49,1.22-3.06,2.51-4.72,3.81a12.417,12.417,0,0,1,2.8-8.56,11.022,11.022,0,0,1,2.79-2.6v-3.11a17.318,17.318,0,0,0-9.44,15.05c0,3.38.79,5.88,2.45,7.62s3.93,2.59,6.99,2.68h0Zm30.87,3.2-1.23-8.05c-0.18-.86-0.44-2.24-0.87-3.97s-0.88-3.21-1.23-4.51c-4.54,11.6-6.9,17.57-7.17,17.83a1.343,1.343,0,0,1-.95.34,1.046,1.046,0,0,1-1.05-.52,9.036,9.036,0,0,1-.88-2.07l-0.88-2.5c-0.44-1.22-.96-3.13-1.66-5.55q-1.05-3.9-1.83-7.01a25.478,25.478,0,0,0-1.57,5.2,83.189,83.189,0,0,0-.79,11.33v2.08a1.746,1.746,0,0,1-.79,1.3,3.145,3.145,0,0,1-1.58.43,1.108,1.108,0,0,1-1.13-.61,2.883,2.883,0,0,1-.18-1.81l0.18-1.91c0.61-4.84,1.05-8.39,1.31-10.38a44.951,44.951,0,0,1,1.14-5.46l0.96-3.54a7.851,7.851,0,0,1,.96-2.51c0.36-.61,1.22-0.87,2.62-0.87a1.141,1.141,0,0,1,.97.34,4.158,4.158,0,0,1,.52,1.22l0.7,2.17c-0.18-.35.17,1.12,0.88,4.41a66.172,66.172,0,0,0,3.58,10.99c1.22-3.64,2.27-6.4,2.97-8.48,0.8-2,1.32-3.47,1.58-4.33l1.13-2.85c0.71-1.91,1.14-2.87,1.4-3.04a1.239,1.239,0,0,1,.88-0.17,1.464,1.464,0,0,1,.87.26,1.293,1.293,0,0,1,.52.69l0.53,1.91a0.616,0.616,0,0,1,.09.43c0.08,0.18.43,1.82,1.21,5.02,0.28,1.39.54,2.59,0.89,3.81,0.35,1.12.61,2.07,0.79,2.94l0.78,3.64a16.23,16.23,0,0,1,.7,5.71,1.588,1.588,0,0,1-1.66,1.38,1.85,1.85,0,0,1-1.84-.78,5.162,5.162,0,0,1-.87-2.51h0Z" transform="translate(-1383 -1143)"/>
</svg>
