<svg id="brand2.svg" xmlns="http://www.w3.org/2000/svg" width="175" height="100" viewBox="0 0 175 100">
  <defs>
    <style>
      .cls-1 {
        fill: none;
      }

      .cls-2 {
        fill: #112236;
        fill-rule: evenodd;
      }
    </style>
  </defs>
  <rect id="Rectangle_2120_copy" data-name="Rectangle 2120 copy" class="cls-1" width="175" height="100"/>
  <path class="cls-2" d="M1809.01,1144l-6.08,6.52h4.12v5.38l-2.11,2.1h-1.14l-2.11-2.1,1.32-1.39v1.6h0.77v0.78h1.15l0.92-.93v-0.83l-3.85-3.61-6.57,7.03h2.2v0.87l-1.85,1.52h2.78v0.95l-6.23-.02-2.05,2.05h0l2.05,2.05,6.23-.02v0.95h-2.78l1.85,1.52v0.86h-2.2l6.57,7.05,3.85-3.62v-0.83l-0.92-.93h-1.15v0.78h-0.77v1.6l-1.32-1.39,2.11-2.11h1.14l2.11,2.11v5.38h-4.12l6.08,6.52,0.03-17.81-2.11-2.11,2.11-2.1Zm19.57,19.92h0l-2.05-2.05-6.22.02v-0.95h2.78l-1.86-1.52v-0.87h2.2l-6.57-7.03-3.85,3.61v0.83l0.93,0.93h1.14v-0.78h0.77v-1.6l1.32,1.39-2.11,2.1h-1.14l-2.1-2.1v-5.38h4.12l-6.09-6.52-0.03,17.82,2.11,2.1-2.11,2.11,0.03,17.81,6.09-6.52h-4.12v-5.38l2.1-2.11h1.14l2.11,2.11-1.32,1.39v-1.6h-0.77v-0.78h-1.14l-0.93.93v0.83l3.85,3.62,6.57-7.05h-2.2v-0.86l1.86-1.52h-2.78v-0.95l6.22,0.02Zm-57.29,76.23a8.486,8.486,0,0,1-5.28-8.37,31.889,31.889,0,0,1,3.66-13.55c1.15-2.48,5.11-6.97,5.11-6.97l0.12,12.16a24.054,24.054,0,0,1,2.81-5.9c2.1-3.29,3.01-3.54,3.01-3.54l0.41,17.1s-0.04,6.06,3.75,5.98,4.08-1.86,4.08-1.86-0.91,6.8-5.93,6.8-4.99-7.54-4.99-7.99-0.5-11-.5-11-2.97,8.24-3.62,8.24-2.02-3.22-2.23-5.65-0.33-6.34-.33-6.34a29.692,29.692,0,0,0-1.57,8.77C1769.79,1232.44,1770.39,1238.99,1771.29,1240.15Zm31.61-25.18-3.09,1.9s0.28,12.77-1.24,13.43-1.44-1.85-1.44-1.85v-10.43l-3.09,1.9v10.63s-0.05,4.16,2.8,4.16,4.12-4.45,4.12-4.45-0.08,4.37,2.76,4.37c0,0,2.68.08,3.59-5.24s2.49-18.07,2.49-18.07l-4.37,2.85s-0.27,10.73-.92,13c-0.67,2.26-2.64,3.25-2.48-.66S1802.9,1214.97,1802.9,1214.97Zm-7.38,21.18c-3.22,0-3.14-4.9-3.14-4.9v-10.47l-3.09,1.89v3.01a11.548,11.548,0,0,0-3.87,2.93c-1.53,1.9-2.48,4-2.48,5.19s0.79,2.31,2.81,2.31,4.45-2.51,4.45-2.51,0.25,5.76,3.01,5.76,5.65-3.42,5.65-3.42S1798.73,1236.15,1795.52,1236.15Zm-9.03-3.83c-0.74-.08-0.04-2.1.66-3.42a6.2,6.2,0,0,1,2.14-2.14l0.04,4.32S1787.23,1232.4,1786.49,1232.32Zm23.72-5.87c-1.76,2.73-2.77,3.77-2.97,5.91s0.12,3.23,2.51,3.47c1.63,0.17,3.1-2.21,3.1-2.21s-2.27-.53-2.5-1.96,0.63-3.01,1.5-4.28a17.813,17.813,0,0,1,2.47-2.67l0.03,0.4c0.69,5.39.03,11.06,3.93,11.06s4.91-2.55,5.64-3.42c0,0-.12.21-3.33,0.21-3.23,0-3.14-4.91-3.14-4.91v-10.46l-3.09,1.89v3.01A12.144,12.144,0,0,0,1810.21,1226.45Zm24.8,6.47s0.87,3.77,3.96,3.95,3.28-2.22,3.28-2.22l0.12-4.39s6.86,4.33,6.81,6.36c-0.07,2.04-1.18,3.09-2.85,4.02a18.031,18.031,0,0,1-2.79,1.3s10.46-.18,10.46-4.7-9.84-8.4-9.84-8.4,1.92-1.3,3.03-1.18,0.5,1.98.5,1.98,4.39-3.09,1.3-4.33-6.06,2.35-6.06,2.35V1220s0.12-1.3.61-1.36,1.68,1.36,1.68,1.36-1.92-7.91-3.22-7.91-1.86,2.04-2.04,3.21,0,17.18,0,17.18-0.37,1.61-1.05,1.67A5.245,5.245,0,0,1,1835.01,1232.92Zm-1.08,1.61a2.8,2.8,0,0,1-3.27,2.53c-3.1-.21-3.96-4.5-3.96-4.5a4.781,4.781,0,0,0,3.89,1.4c0.68-.06,1.05-1.89,1.05-1.89s-0.18-18.21,0-19.54,0.75-3.66,2.04-3.66,3.22,9,3.22,9-1.17-1.62-1.67-1.55-0.62,1.55-.62,1.55Zm-3.64-10.47c-0.29-3.72-4.4-2.92-6.13-1.02-0.05-5.37-.05-9.35-0.05-9.35a1.849,1.849,0,0,1,1.19-1.73c1.14-.26,1.91,1.73,1.91,1.73s-1.4-8.8-3.56-8.8-1.99,2.46-2.03,4.19,0,17.98,0,17.98a5.384,5.384,0,0,1-2.96-2.45s0.8,7.19,4.52,7.06S1830.59,1227.78,1830.29,1224.06Zm-7.53,4.69c-1.1.04-.21-1.27-0.21-1.27,1.69-1.56,3.6-3.17,4.06-1.52S1823.86,1228.71,1822.76,1228.75Zm-44.27-28.57h-2.72v-8.45h-3.29v8.45h-2.81v-13.31h-3.3v16.56h2.26v0.05h11.71v-0.05h1.45v-11.7h-3.3v8.45Zm58.27,3.28h3.29v-11.65h-3.29v11.65Zm-8.58-16.65h-3.3v13.33h-3.05v3.3h12.9v-3.3h-0.05v-4.92h0.05v-3.3h-6.55v-5.11Zm3.2,8.41v4.92h-3.2v-4.92h3.2Zm19.1-1.6,1.45-1.38v-5.43h-3.3v5.11h-3.07v-5.17h-3.3v0.07h-11.93v3.3h11.93v13.34h3.3v-8.24h3.07v8.24h3.3v-8.69Zm-54.47,4.89h0.04v0.04h13.88v-0.04h1.45v-11.7h-3.3v8.45h-2.72v-8.45h-3.29v8.45h-2.76v-8.45h-0.03v-0.03h-26.75v3.3h23.48v8.43Zm-1.97-6.72h-3.73v0.01h-4.47c-1.44,0-2.5,1.78-2.5,1.78v9.85h3.48v-1.91h3.49v1.91h0.23v0.01h11.1v-3.3h-7.6v-8.35Zm-3.73,6.74h-3.49v-3.75h3.49v3.75Zm32.93,0.13v-8.74h0.03v-2.99h-7.83c-1.44.01-2.5,1.79-2.5,1.79v11.42h-8.73v3.3h8.73v0.05h3.48v-13.57h3.07v8.74h3.75Z" transform="translate(-1722 -1143)"/>
</svg>
