<svg id="brand3.svg" xmlns="http://www.w3.org/2000/svg" width="175" height="100" viewBox="0 0 175 100">
  <defs>
    <style>
      .cls-1 {
        fill: none;
      }

      .cls-2 {
        fill: #112236;
        fill-rule: evenodd;
      }
    </style>
  </defs>
  <rect id="Rectangle_2120_copy_2" data-name="Rectangle 2120 copy 2" class="cls-1" width="175" height="100"/>
  <path class="cls-2" d="M2219.41,1176.94l0.16-.78h1.3l-0.7,5.55h-2.58a6.165,6.165,0,0,0,.66-1,7.616,7.616,0,0,0,.47-1.09c0.13-.39.25-0.8,0.36-1.24S2219.3,1177.46,2219.41,1176.94Zm-4.14,7.42h6.63l-0.38,2.96h2.92l0.7-5.55-1.16-.06,1.03-8.16h-8.33l-0.6,2.92c-0.11.51-.22,1-0.33,1.48a9.542,9.542,0,0,1-.44,1.37,8.184,8.184,0,0,1-.62,1.26,6.494,6.494,0,0,1-.86,1.13l-1.16.06-0.68,5.55h2.9l0.38-2.96h0Zm-13.33,0,1.35-10.81H2212l-0.33,2.64h-4.81l-0.17,1.36h4.03l-0.3,2.49h-4.03l-0.23,1.68h5l-0.32,2.64h-8.9Zm-8.41-5.57,1.13-3.15,0.9-2.09h4.57l-0.2,10.81h-3.76l0.2-3.09,0.21-3.12h-0.08l-1.22,2.92-1,2.02h-2.68l-0.51-2.04-0.47-2.51h-0.08l-0.51,2.9-0.59,2.92h-3.71l2.71-10.81h3.98l0.45,2.02,0.54,3.22h0.12Zm-18.37,5.57,1.35-10.81h8.71l-0.33,2.64h-4.81l-0.17,1.36h4.02l-0.3,2.49h-4.03l-0.22,1.68h5l-0.32,2.64h-8.9Zm-6.31,0,1-8.2h-1.42l-0.09.75c-0.14,1.09-.3,2.08-0.5,2.97a7.394,7.394,0,0,1-.94,2.37,5.421,5.421,0,0,1-1.73,1.74,8.4,8.4,0,0,1-2.91,1.07l-0.8-2.67a8.959,8.959,0,0,0,1.49-.74,3,3,0,0,0,.94-0.9,4.177,4.177,0,0,0,.55-1.3,14.711,14.711,0,0,0,.35-1.94l0.49-3.96H2174l-1.35,10.81h-3.8Zm-17.96,0,1.35-10.81h8.7l-0.33,2.64h-4.8l-0.18,1.36h4.03l-0.3,2.49h-4.03l-0.22,1.68h4.99l-0.31,2.64h-8.9Zm-8.81,0,1-8.11h-3.28l0.35-2.7h10.43l-0.34,2.7h-3.3l-1,8.11h-3.86Zm80.45,7.2a9.288,9.288,0,0,1,1.34.11,11.043,11.043,0,0,1,1.58.32l-0.65,2.79c-0.37-.06-0.73-0.11-1.08-0.14s-0.69-.04-1-0.04a4.555,4.555,0,0,0-1.07.12,1.813,1.813,0,0,0-.88.48,2.367,2.367,0,0,0-.6.97,4.845,4.845,0,0,0-.22,1.61,2.814,2.814,0,0,0,.16,1.06,1.25,1.25,0,0,0,.46.59,1.773,1.773,0,0,0,.71.26,8.751,8.751,0,0,0,.94.05c0.1,0,.25-0.01.44-0.02s0.4-.02.62-0.04,0.45-.05.68-0.08,0.45-.07.64-0.11l0.42,2.65c-0.3.11-.63,0.21-0.98,0.3s-0.7.15-1.06,0.2-0.72.09-1.07,0.12a8.858,8.858,0,0,1-.99.05,6.973,6.973,0,0,1-2.55-.39,3.857,3.857,0,0,1-1.53-1.03,3.36,3.36,0,0,1-.75-1.48,7.251,7.251,0,0,1-.2-1.76,9.964,9.964,0,0,1,.3-2.45,5.125,5.125,0,0,1,3.09-3.58A8.066,8.066,0,0,1,2222.53,1191.56Zm-10.51,0a9.4,9.4,0,0,1,1.34.11,11.631,11.631,0,0,1,1.58.32l-0.65,2.79c-0.37-.06-0.74-0.11-1.09-0.14s-0.69-.04-0.99-0.04a4.7,4.7,0,0,0-1.08.12,1.859,1.859,0,0,0-.88.48,2.367,2.367,0,0,0-.6.97,5.121,5.121,0,0,0-.22,1.61,2.814,2.814,0,0,0,.16,1.06,1.314,1.314,0,0,0,.46.59,1.773,1.773,0,0,0,.71.26,8.751,8.751,0,0,0,.94.05c0.11,0,.25-0.01.44-0.02s0.4-.02.62-0.04,0.45-.05.68-0.08,0.45-.07.64-0.11l0.43,2.65q-0.465.165-.99,0.3c-0.35.08-.7,0.15-1.06,0.2s-0.72.09-1.07,0.12a8.633,8.633,0,0,1-.99.05,6.973,6.973,0,0,1-2.55-.39,3.857,3.857,0,0,1-1.53-1.03,3.36,3.36,0,0,1-.75-1.48,7.781,7.781,0,0,1-.2-1.76,9.964,9.964,0,0,1,.3-2.45,5.17,5.17,0,0,1,3.1-3.58,8.034,8.034,0,0,1,3.25-.56h0Zm-17.42,11.06,1.35-10.8h8.71l-0.34,2.64h-4.8l-0.18,1.35h4.03l-0.3,2.5h-4.03l-0.22,1.68h5l-0.32,2.63h-8.9Zm-5.31-8.16-0.26,1.96h0.48a0.974,0.974,0,0,0,.76-0.32,1.228,1.228,0,0,0,.28-0.85,0.727,0.727,0,0,0-.24-0.63,1.148,1.148,0,0,0-.64-0.16h-0.38Zm1.33-2.64a5.762,5.762,0,0,1,1.84.25,3.228,3.228,0,0,1,1.19.67,2.366,2.366,0,0,1,.63.99,3.757,3.757,0,0,1,.19,1.22,4.263,4.263,0,0,1-.3,1.63,3.43,3.43,0,0,1-.87,1.27,4.26,4.26,0,0,1-1.4.81,5.7,5.7,0,0,1-1.87.28h-1.32l-0.44,3.68h-3.89l1.35-10.8h4.89Zm-12.25,10.8,1.02-8.16h-2.78l-1.01,8.16h-3.86l1.35-10.8h10.5l-1.35,10.8h-3.87Zm-10.47-11.06a9.288,9.288,0,0,1,1.34.11,11.33,11.33,0,0,1,1.58.32l-0.65,2.79c-0.37-.06-0.73-0.11-1.09-0.14s-0.68-.04-0.99-0.04a4.7,4.7,0,0,0-1.08.12,1.907,1.907,0,0,0-.88.48,2.465,2.465,0,0,0-.59.97,4.845,4.845,0,0,0-.22,1.61,2.814,2.814,0,0,0,.16,1.06,1.25,1.25,0,0,0,.46.59,1.719,1.719,0,0,0,.71.26,8.608,8.608,0,0,0,.94.05c0.1,0,.25-0.01.44-0.02s0.4-.02.62-0.04,0.45-.05.68-0.08,0.44-.07.63-0.11l0.43,2.65c-0.3.11-.63,0.21-0.98,0.3s-0.7.15-1.06,0.2-0.72.09-1.07,0.12a8.916,8.916,0,0,1-1,.05,6.952,6.952,0,0,1-2.54-.39,3.857,3.857,0,0,1-1.53-1.03,3.486,3.486,0,0,1-.76-1.48,7.783,7.783,0,0,1-.19-1.76,9.964,9.964,0,0,1,.3-2.45,5.333,5.333,0,0,1,1.05-2.1,5.186,5.186,0,0,1,2.04-1.48,8.066,8.066,0,0,1,3.25-.56h0Zm-9.91,5.51a2.535,2.535,0,0,1,.7.33,1.76,1.76,0,0,1,.42.45,1.6,1.6,0,0,1,.24.53,3.749,3.749,0,0,1,.13.58l0.6,3.66h-3.95l-0.46-3.13a1.319,1.319,0,0,0-.38-0.83,1.239,1.239,0,0,0-.79-0.23h-0.7l-0.52,4.19h-3.79l1.33-10.75h3.79l-0.48,3.83h0.45a1.8,1.8,0,0,0,.89-0.21,1.632,1.632,0,0,0,.66-0.88l1.1-2.74h3.76l-1.34,3.35a4.333,4.333,0,0,1-.59,1.04,2.161,2.161,0,0,1-1.06.72l-0.01.09h0Zm-14.75-5.51a7.7,7.7,0,0,1,2.66.39,4.469,4.469,0,0,1,1.66,1.05,3.5,3.5,0,0,1,.85,1.48,6.213,6.213,0,0,1,.24,1.72,9.826,9.826,0,0,1-.11,1.38,7.691,7.691,0,0,1-.36,1.47,6.66,6.66,0,0,1-.71,1.41,4.323,4.323,0,0,1-1.14,1.2,5.686,5.686,0,0,1-1.67.84,7.531,7.531,0,0,1-2.3.31,12.744,12.744,0,0,1-1.93-.15,9.255,9.255,0,0,1-1.83-.49l0.78-2.69c0.18,0.04.39,0.07,0.61,0.1s0.45,0.06.67,0.09,0.42,0.04.61,0.05,0.34,0.02.44,0.02a8.189,8.189,0,0,0,.87-0.04,2.717,2.717,0,0,0,.77-0.19,1.471,1.471,0,0,0,.58-0.43,1.823,1.823,0,0,0,.34-0.77l-3.19.04,0.28-2.62,3.15,0.08a0.982,0.982,0,0,0-.18-0.61,1.319,1.319,0,0,0-.44-0.37,1.94,1.94,0,0,0-.63-0.19,5.792,5.792,0,0,0-.72-0.04c-0.31,0-.64.01-1,0.04s-0.74.08-1.14,0.14l-0.37-2.77a13.045,13.045,0,0,1,1.65-.34,12.69,12.69,0,0,1,1.56-.11h0Zm-3.89,24.14v-7.25h6.64v7.25h-1.95v-5.54h-2.74v5.54h-1.95Zm11.61-7.41a3.784,3.784,0,1,1-3.95,3.78A3.645,3.645,0,0,1,2150.96,1208.29Zm0,1.76a2.021,2.021,0,1,0,1.95,2.02A1.845,1.845,0,0,0,2150.96,1210.05Zm11.38-1.6v7.25h-1.95v-5.54h-1.59c-0.23,2.97-.6,5.62-2.72,5.63a2.878,2.878,0,0,1-.91-0.15v-1.66a1.356,1.356,0,0,0,.51.04c1.19-.13,1.17-3.38,1.34-5.57h5.32Zm6.08,7.25v-2.97c0-.39.01-0.84,0.04-1.19l-2.89,4.16h-1.84v-7.25h1.95v2.96c0,0.4-.01.86-0.04,1.2l2.88-4.16h1.85v7.25h-1.95Zm3.34,0v-7.25h1.95v2.74h0.92l1.68-2.74h2.16l-2.32,3.53,2.43,3.72h-2.16l-1.8-2.8h-0.91v2.8h-1.95Zm14.11-7.25v7.25h-1.95v-5.54h-1.59c-0.24,2.97-.6,5.62-2.72,5.63a2.834,2.834,0,0,1-.91-0.15v-1.66a1.356,1.356,0,0,0,.51.04c1.19-.13,1.17-3.38,1.34-5.57h5.32Zm6.08,7.25v-2.97c0-.39.01-0.84,0.04-1.19l-2.89,4.16h-1.84v-7.25h1.95v2.96a11.317,11.317,0,0,1-.05,1.2l2.89-4.16h1.85v7.25h-1.95Zm9.97-7.25v7.25h-1.95v-2.77h-2.73v2.77h-1.95v-7.25h1.95v2.77h2.73v-2.77h1.95Zm6.08,7.25v-2.97a11.356,11.356,0,0,1,.05-1.19l-2.89,4.16h-1.85v-7.25h1.95v2.96c0,0.4-.01.86-0.04,1.2l2.89-4.16h1.84v7.25H2208Zm3.34,0v-7.25h1.95v2.74h0.93l1.68-2.74h2.16l-2.32,3.53,2.42,3.72H2216l-1.79-2.8h-0.92v2.8h-1.95Zm6.76,0,2.89-7.25h2.11l2.9,7.25h-2l-0.42-1.14h-3.06l-0.42,1.14h-2Zm3-2.7h1.9l-0.76-2.09a2.923,2.923,0,0,1-.19-0.73,3.45,3.45,0,0,1-.19.73Zm-133.15-18.35v-4.19h16.09v15.78h-4.26v-11.59h-11.83Zm14-1.88-13.86-13.85,0.23-.23,13.86,13.85Zm-0.14.14-13.86-13.85-0.14-.14,0.14-.13,0.23-.23,0.14-.14,0.14,0.14,13.86,13.85,0.14,0.13-0.14.14-0.23.23-0.14.13Zm14.03-2.45v4.19h-16.06v-15.78h4.26v11.59h11.8Zm-14.71-19.47h1.31v2.9h-1.31v-2.9Zm0-.24h1.56v3.38h-1.8v-3.38h0.24Zm1.07,0.48h-0.82v2.42h0.82v-2.42Zm21.78,22.02h-2.95v-1.29h2.95v1.29Zm0,0.24h-3.2v-1.77h3.45v1.77h-0.25Zm-2.7-.49h2.45v-0.8h-2.45v0.8h0Zm-20.15,18.83h1.31v2.89h-1.31v-2.89Zm0-.25h1.56v3.39h-1.8v-3.39h0.24Zm1.07,0.49h-0.82v2.41h0.82v-2.41Zm-19.28-18.82h-2.95v-1.29h2.95v1.29Zm0,0.24h-3.2v-1.77h3.45v1.77h-0.25Zm-2.7-.49h2.45v-0.8h-2.45v0.8Zm10.01-18.94,0.4-.22,0.87,1.47-0.4.23Zm-0.19-.33,0.4-.23,0.34-.19,0.19,0.34,0.87,1.47,0.2,0.34-0.34.19-0.4.22-0.34.2-0.2-.34-0.87-1.47-0.19-.34Zm-7.99,8.54,0.23-.39,1.5,0.86-0.23.39Zm-0.34-.19,0.23-.39,0.19-.34,0.35,0.2,1.5,0.85,0.34,0.19-0.2.34-0.23.39-0.2.34-0.34-.2-1.5-.85-0.34-.19Zm0.57,22.4-0.23-.39,1.5-.85,0.23,0.39Zm-0.34.19-0.23-.39-0.2-.33,0.34-.2,1.5-.85,0.35-.19,0.19,0.33,0.23,0.39,0.2,0.34-0.34.19-1.51.85-0.34.2Zm8.69,7.86-0.4-.23,0.87-1.48,0.4,0.23Zm-0.19.33-0.4-.23-0.34-.19,0.19-.33,0.87-1.48,0.2-.34,0.34,0.2,0.4,0.22,0.34,0.2-0.2.33-0.87,1.48-0.19.33Zm21.52-1.81,0.4-.23,0.87,1.48-0.4.22Zm-0.19-.34,0.4-.22,0.34-.2,0.19,0.34,0.87,1.48,0.2,0.33-0.34.19-0.4.23-0.34.19-0.2-.33-0.87-1.48-0.19-.33Zm7.91-7.08,0.23-.39,1.51,0.85-0.23.39Zm-0.34-.2,0.23-.39,0.2-.33,0.34,0.19,1.5,0.85,0.34,0.2-0.19.33-0.23.39-0.2.34-0.34-.2-1.5-.85-0.34-.19Zm0.57-20.3-0.23-.39,1.51-.86,0.23,0.39Zm-0.34.19-0.23-.39-0.19-.34,0.34-.19,1.5-.85,0.34-.19,0.2,0.33,0.23,0.39,0.19,0.34-0.34.19-1.5.85-0.34.19Zm-7.21-7.78-0.4-.23,0.87-1.47,0.4,0.22Zm-0.19.33-0.4-.22-0.34-.19,0.19-.34,0.87-1.48,0.2-.33,0.34,0.19,0.4,0.23,0.34,0.19-0.2.34-0.87,1.47-0.19.34ZM2071,1192.8h2.41a27.852,27.852,0,0,1,8.23-19.34c0.21-.21.46-0.44,0.68-0.64h0a28.785,28.785,0,0,1,19.4-7.45h0.02V1163h-0.02a31.213,31.213,0,0,0-21.07,8.11l0.41,0.42-0.41-.42c-0.23.21-.49,0.46-0.71,0.68A30.139,30.139,0,0,0,2071,1192.8Zm61.05-.22c0,0.14.01,0.28,0.01,0.42a29.635,29.635,0,0,1-8.54,20.8v0.01l-0.02.02h0c-0.11.11-.28,0.28-0.39,0.38a30.672,30.672,0,0,1-21.57,8.79v-2.37a28.26,28.26,0,0,0,19.87-8.09l0.37-.37h0a27.312,27.312,0,0,0,7.87-19.17c0-.14-0.01-0.28-0.01-0.42h2.41Zm-30.1,30.42h-0.42a30.727,30.727,0,0,1-21.17-8.39h-0.01l-0.02-.02h0c-0.11-.11-0.29-0.28-0.39-0.38a30.116,30.116,0,0,1-8.94-21.41h2.41a27.774,27.774,0,0,0,8.24,19.74c0.1,0.1.27,0.26,0.37,0.36h0a28.277,28.277,0,0,0,19.51,7.73h0.42V1223h0Zm-0.21-60v2.37a28.766,28.766,0,0,1,19.67,8.09c0.21,0.21.45,0.45,0.65,0.66h0a27.266,27.266,0,0,1,7.59,18.88v0.01h2.41V1193a29.624,29.624,0,0,0-8.25-20.51l-0.43.4,0.42-.4c-0.21-.23-0.46-0.48-0.68-0.7a31.22,31.22,0,0,0-21.38-8.79h0Z" transform="translate(-2062 -1143)"/>
</svg>
