<svg id="brand4.svg" xmlns="http://www.w3.org/2000/svg" width="175" height="100" viewBox="0 0 175 100">
  <defs>
    <style>
      .cls-1 {
        fill: none;
      }

      .cls-2 {
        fill: #112236;
        fill-rule: evenodd;
      }
    </style>
  </defs>
  <rect id="Rectangle_2120_copy_3" data-name="Rectangle 2120 copy 3" class="cls-1" width="175" height="100"/>
  <path class="cls-2" d="M2413.49,1197.26h-2.99v-1.23h-3.39v7.25h3.39v-1.23h2.99V1206h-9.37v-12.69h9.37v3.95Zm10.96-1.23h-3.18V1206h-2.99v-9.97h-3.19v-2.72h9.36v2.72Zm11.16,6.16h-6.37V1206h-2.99v-12.69h9.36v8.88Zm-6.37-2.72h3.39v-3.44h-3.39v3.44Zm18.53-6.16V1206h-9.36v-12.69h9.36Zm-6.37,9.97h3.38v-7.25h-3.38v7.25Zm12.15-9.97v7.58l3.95-7.58h2.99V1206h-2.99v-7.58l-3.95,7.58h-2.99v-12.69h2.99Zm4.47-3.32v2.27h-4.98v-2.27h4.98Zm8.25,3.32,2.85,4.64,2.85-4.64h2.99V1206h-2.99v-8.23l-2.85,4.57-2.85-4.57V1206h-2.99v-12.69h2.99Zm17.76,12.69-0.3-2.99h-3.29l-0.3,2.99h-2.99l1.36-12.69h7.15l1.36,12.69h-2.99Zm-0.56-5.71-0.44-4.26h-1.89l-0.44,4.26h2.77Zm14.11-4.26h-3.19V1206h-2.99v-9.97h-3.19v-2.72h9.37v2.72Zm10.96,0h-6.18v2.26h3.15v2.72h-3.15v2.27h6.18V1206h-9.17v-12.69h9.17v2.72Zm11.36,6.16h-6.38V1206h-2.98v-12.69h9.36v8.88Zm-6.38-2.72h3.4v-3.44h-3.4v3.44Zm12.16-6.16v7.58l3.95-7.58h2.99V1206h-2.99v-7.58l-3.95,7.58h-2.99v-12.69h2.99Zm16.01,12.69-0.3-2.99h-3.29l-0.3,2.99h-2.99l1.36-12.69h7.15l1.36,12.69h-2.99Zm-0.56-5.71-0.44-4.26h-1.89l-0.44,4.26h2.77Zm11.78,5.71v-9.97h-2.11l-1.36,9.97h-3.57v-2.72h1.08l1.24-9.97h7.71V1206h-2.99Zm8.77-12.69v4.66h6.18V1206h-9.17v-12.69h2.99Zm0,9.97h3.19v-2.59h-3.19v2.59Zm11.16-9.97V1206h-2.99v-12.69h2.99Zm-164.98-4.87h-1.1v-7.43H2404V1180h6.61v1.01h-2.75v7.43Zm5.37-6.32c1.9,0,2.75,1.66,2.75,3.24s-0.85,3.25-2.75,3.25-2.74-1.67-2.74-3.25S2411.34,1182.12,2413.23,1182.12Zm0,5.6c1.43,0,1.73-1.54,1.73-2.36s-0.3-2.35-1.73-2.35-1.72,1.52-1.72,2.35S2411.81,1187.72,2413.23,1187.72Zm3.88-5.43h0.93v0.87a1.961,1.961,0,0,1,1.8-1.04c1.57,0,2.45,1.32,2.45,3.06,0,1.47-.56,3.43-2.58,3.43a1.75,1.75,0,0,1-1.6-.89v3.15h-1v-8.58Zm1,3.06c0,1.33.51,2.37,1.59,2.37,0.63,0,1.57-.44,1.57-2.08,0-1.01-.1-2.6-1.54-2.6C2418.19,1183.04,2418.11,1184.55,2418.11,1185.35Zm9.17-3.06v0.86h-2.86v5.29h-1v-6.15h3.86Zm3.26-.17c1.89,0,2.75,1.66,2.75,3.24s-0.86,3.25-2.75,3.25-2.75-1.67-2.75-3.25S2428.65,1182.12,2430.54,1182.12Zm0,5.6c1.42,0,1.73-1.54,1.73-2.36s-0.31-2.35-1.73-2.35-1.73,1.52-1.73,2.35S2429.12,1187.72,2430.54,1187.72Zm3.88-5.43h2.69c1.31,0,1.94.72,1.94,1.57a1.335,1.335,0,0,1-1,1.32,1.589,1.589,0,0,1,1.35,1.63c0,0.98-.77,1.63-2.18,1.63h-2.8v-6.15Zm1,2.55h1.44c0.86,0,1.19-.26,1.19-0.94,0-.48-0.29-0.75-1.16-0.75h-1.47v1.69Zm0,2.74h1.78a0.96,0.96,0,0,0,1.2-.96,1.052,1.052,0,0,0-1.3-.97h-1.68v1.93Zm7.53-5.46c1.89,0,2.75,1.66,2.75,3.24s-0.86,3.25-2.75,3.25-2.75-1.67-2.75-3.25S2441.05,1182.12,2442.95,1182.12Zm0,5.6c1.42,0,1.72-1.54,1.72-2.36s-0.3-2.35-1.72-2.35-1.73,1.52-1.73,2.35S2441.52,1187.72,2442.95,1187.72Zm6.42-2.68h-2.77v0.85h2.77v-0.85Zm1.23-2.75h2.7a1.653,1.653,0,0,1,1.93,1.57,1.337,1.337,0,0,1-.99,1.32,1.59,1.59,0,0,1,1.34,1.63c0,0.98-.76,1.63-2.17,1.63h-2.81v-6.15Zm1,2.55h1.45c0.86,0,1.19-.26,1.19-0.94,0-.48-0.3-0.75-1.17-0.75h-1.47v1.69Zm0,2.74h1.78a0.956,0.956,0,0,0,1.2-.96,1.048,1.048,0,0,0-1.3-.97h-1.68v1.93Zm6.11-2.82h1.41c1.51,0,2.26.82,2.26,1.9,0,0.95-.63,1.78-2.23,1.78h-2.44v-6.15h1v2.47Zm0,2.82h1.42c0.91,0,1.22-.29,1.22-0.98a0.988,0.988,0,0,0-1.22-.97h-1.42v1.95Zm5.68,0.86h-1v-6.15h1v6.15Zm5.23-4.08a1.344,1.344,0,0,0-1.41-1.32c-1.23,0-1.62,1.22-1.62,2.32,0,1.06.25,2.36,1.61,2.36a1.523,1.523,0,0,0,1.42-1.46h0.96a2.374,2.374,0,0,1-2.41,2.35c-1.66,0-2.64-1.3-2.64-3.08,0-1.89.88-3.41,2.83-3.41a2.17,2.17,0,0,1,2.22,2.24h-0.96Zm6.35-2.07v0.86h-1.95v5.29h-1v-5.29h-1.95v-0.86h4.9Zm0.84,1.87c0-1.48.98-2.04,2.44-2.04,0.47,0,2.2.13,2.2,1.71v3.51a0.323,0.323,0,0,0,.32.39l0.33-.05v0.76a1.665,1.665,0,0,1-.54.11,0.886,0.886,0,0,1-1.05-.94,2.687,2.687,0,0,1-2.14,1,1.725,1.725,0,0,1-1.85-1.78c0-.73.18-1.81,2.26-1.97,1.56-.13,1.67-0.26,1.67-0.9,0-.67-0.43-0.98-1.38-0.98a1.178,1.178,0,0,0-1.34,1.18h-0.92Zm3.64,1.14a3.414,3.414,0,0,1-1.63.38,1.174,1.174,0,0,0-1.28.99,0.974,0.974,0,0,0,1.09,1.08,1.7,1.7,0,0,0,1.82-1.44v-1.01Zm2.68-3.01h2.69c1.31,0,1.94.72,1.94,1.57a1.335,1.335,0,0,1-1,1.32,1.589,1.589,0,0,1,1.35,1.63c0,0.98-.76,1.63-2.17,1.63h-2.81v-6.15Zm1,2.55h1.44c0.87,0,1.19-.26,1.19-0.94,0-.48-0.29-0.75-1.16-0.75h-1.47v1.69Zm0,2.74h1.78a0.96,0.96,0,0,0,1.2-.96,1.048,1.048,0,0,0-1.3-.97h-1.68v1.93Zm7.53-5.46c1.9,0,2.75,1.66,2.75,3.24s-0.85,3.25-2.75,3.25-2.74-1.67-2.74-3.25S2488.77,1182.12,2490.66,1182.12Zm0,5.6c1.43,0,1.73-1.54,1.73-2.36s-0.3-2.35-1.73-2.35-1.73,1.52-1.73,2.35S2489.24,1187.72,2490.66,1187.72Zm4.67-5.43v1.88a0.889,0.889,0,0,0,1.09.87,5.734,5.734,0,0,0,1.57-.2v-2.55h1v6.15h-1v-2.74a7.543,7.543,0,0,1-1.87.23,1.534,1.534,0,0,1-1.78-1.61v-2.03h0.99Zm6.11,2.47h2.77v-2.47h1v6.15h-1v-2.81h-2.77v2.81h-0.99v-6.15h0.99v2.47Zm6.22,0h1.42c1.51,0,2.25.82,2.25,1.9,0,0.95-.63,1.78-2.23,1.78h-2.43v-6.15h0.99v2.47Zm0,2.82h1.43c0.9,0,1.22-.29,1.22-0.98a0.992,0.992,0,0,0-1.22-.97h-1.43v1.95Zm5.69,0.86h-1v-6.15h1v6.15Zm2.45-1.55h0.02l2.91-4.6h1.04v6.15h-1v-4.61h-0.02l-2.9,4.61h-1.05v-6.15h1v4.6Zm1.58-5.96a1.1,1.1,0,0,0,1.16-.93h0.55a1.713,1.713,0,0,1-3.42,0h0.56A1.02,1.02,0,0,0,2517.38,1180.93Zm7.98,4.03,2.55-2.67h1.26l-2.26,2.29,2.4,3.86h-1.19l-1.92-3.14-0.84.81v2.33h-1v-6.15h1v2.67Zm6.88-2.84c1.9,0,2.75,1.66,2.75,3.24s-0.85,3.25-2.75,3.25-2.74-1.67-2.74-3.25S2530.35,1182.12,2532.24,1182.12Zm0,5.6c1.43,0,1.73-1.54,1.73-2.36s-0.3-2.35-1.73-2.35-1.72,1.52-1.72,2.35S2530.82,1187.72,2532.24,1187.72Zm5.28-5.43,1.83,4.82,1.83-4.82h1.38v6.15h-0.98v-3.57c0-.65.06-1.32,0.06-1.32h-0.08l-1.86,4.89h-0.72l-1.86-4.89h-0.08s0.06,0.67.06,1.32v3.57h-0.98v-6.15h1.4Zm11.26,0v6.15h-1v-5.29h-2.77v5.29h-1v-6.15h4.77Zm6.39,0v6.15h-1v-5.29h-2.34v2.8c0,1.86-.6,2.58-1.54,2.58a2.13,2.13,0,0,1-.64-0.09v-0.8a3.658,3.658,0,0,0,.41.02c0.56,0,.77-0.26.77-2.06v-3.31h4.34Zm6.43,4.22a2.505,2.505,0,0,1-2.67,2.1c-1.66,0-2.63-1.3-2.63-3.08,0-1.91.87-3.41,2.83-3.41,1.71,0,2.55,1.41,2.55,3.59h-4.32c0,1.26.57,2.01,1.72,2.01a1.5,1.5,0,0,0,1.52-1.21h1Zm-0.94-1.63a1.655,1.655,0,0,0-1.67-1.84,1.781,1.781,0,0,0-1.63,1.84h3.3Zm3.15,0.08,2.54-2.67h1.27l-2.27,2.29,2.4,3.86h-1.18l-1.92-3.14-0.84.81v2.33h-1v-6.15h1v2.67Zm8.23-.6a1.344,1.344,0,0,0-1.41-1.32c-1.23,0-1.62,1.22-1.62,2.32,0,1.06.24,2.36,1.61,2.36a1.523,1.523,0,0,0,1.42-1.46H2573a2.381,2.381,0,0,1-2.41,2.35c-1.66,0-2.65-1.3-2.65-3.08,0-1.89.89-3.41,2.84-3.41a2.17,2.17,0,0,1,2.22,2.24h-0.96Z" transform="translate(-2401 -1143)"/>
</svg>
