<svg id="brand5.svg" xmlns="http://www.w3.org/2000/svg" width="175" height="100" viewBox="0 0 175 100">
  <defs>
    <style>
      .cls-1 {
        fill: none;
      }

      .cls-2 {
        fill: #112236;
        fill-rule: evenodd;
      }
    </style>
  </defs>
  <rect id="Rectangle_2120_copy_3" data-name="Rectangle 2120 copy 3" class="cls-1" width="175" height="100"/>
  <path class="cls-2" d="M2480.93,1126.58V1128h-2.81v-1.42a2.025,2.025,0,0,0-2.31-2.33h-7.46c-1.66,0-2.31.68-2.34,2.33v9.54a2.023,2.023,0,0,0,2.34,2.33h7.46a2.014,2.014,0,0,0,2.31-2.33v-1.42h2.81v1.42a5.219,5.219,0,0,1-5.12,5.17h-7.46a5.225,5.225,0,0,1-5.15-5.17v-9.57a5.226,5.226,0,0,1,5.15-5.14h7.46A5.28,5.28,0,0,1,2480.93,1126.58Zm4.37,4.26h-2.82a4.249,4.249,0,0,1,4-4.03h4.56a4.249,4.249,0,0,1,4,4.03v10.45h-2.82v-0.7a5.6,5.6,0,0,1-2.48.7h-3.23a4.67,4.67,0,0,1-4.87-4.35c-0.03-2.41,2.39-4.43,4.84-4.43h5.74v-1.67a0.98,0.98,0,0,0-1.18-1.19h-4.56A0.98,0.98,0,0,0,2485.3,1130.84Zm6.92,4.51h-5.74c-1.44,0-2.06.49-2.03,1.53,0.03,1.17.51,1.65,1.95,1.57h3.34c1.27,0,2.48-.71,2.48-1.54v-1.56Zm7.01,4.52v1.42h-2.82v-10.45a4.489,4.489,0,0,1,4.25-4.03h4.62v2.84h-4.62c-0.98,0-1.43.39-1.43,1.19v9.03Zm18.85-13.06v14.48h-8.53a4.147,4.147,0,0,1-4.02-4.04v-6.38a4.245,4.245,0,0,1,3.99-4.06h5.75v-5.82h2.81v5.82Zm-2.81,2.84h-5.75a0.99,0.99,0,0,0-1.18,1.22v6.38c0,0.94.2,1.2,1.21,1.2h5.72v-8.8Zm16.17,1.19h-2.81a0.98,0.98,0,0,0-1.18-1.19h-3.97a1,1,0,0,0-1.21,1.22v0.05c-0.06,1.17.28,1.68,1.21,1.71h4.53a4.338,4.338,0,0,1,4,4.65,4.138,4.138,0,0,1-4,4.01h-4.56a4.151,4.151,0,0,1-4-4.04h2.82c0,0.94.2,1.2,1.18,1.2h4.56c0.99,0,1.18-.26,1.18-1.22v-0.03c0.06-1.36-.25-1.73-1.18-1.73h-4.62c-2.3-.09-4.05-2.53-3.94-4.66a4.25,4.25,0,0,1,4.03-4h3.97A4.24,4.24,0,0,1,2531.44,1130.84Zm2.22,1.93v-11.36h12.62c2.9,0,5.12,2.78,5.12,5.68,0,2.47-2.17,5.68-5.12,5.68h-9.8v8.52h-2.82v-8.52Zm2.82-2.84h9.8c1.49,0,2.3-1.22,2.3-2.84,0-1.87-.76-2.84-2.3-2.84h-9.8v5.68Zm17.67,9.94v1.42h-2.82v-10.45a4.489,4.489,0,0,1,4.25-4.03h4.62v2.84h-4.62c-0.98,0-1.43.39-1.43,1.19v9.03Zm6.3-9.03a4.24,4.24,0,0,1,3.99-4.03H2569a4.249,4.249,0,0,1,4,4.03v6.41a4.143,4.143,0,0,1-4,4.04h-4.56a4.141,4.141,0,0,1-3.99-4.04v-6.41Zm2.81,0v6.41c0,0.94.2,1.2,1.18,1.2H2569c0.99,0,1.19-.26,1.19-1.2v-6.41a0.986,0.986,0,0,0-1.19-1.19h-4.56A0.98,0.98,0,0,0,2563.26,1130.84Zm-105.34,21h-0.95v-46.68h0.95v46.68ZM2428.39,1105a23.593,23.593,0,0,0-2.75,47v-18.59a5.535,5.535,0,1,1,5.49,0v6.33a11.506,11.506,0,0,0-1.3-22.55v-5.48a16.952,16.952,0,0,1,1.3,33.58V1152A23.593,23.593,0,0,0,2428.39,1105Zm-11.41,23.59a11.53,11.53,0,0,0,5.92,10.07v5.93a16.961,16.961,0,0,1,4.04-32.88v5.48A11.475,11.475,0,0,0,2416.98,1128.59Z" transform="translate(-2401 -1078)"/>
</svg>
