<svg id="brand6.svg" xmlns="http://www.w3.org/2000/svg" width="175" height="100" viewBox="0 0 175 100">
  <defs>
    <style>
      .cls-1 {
        fill: none;
      }

      .cls-2 {
        fill: #112236;
        fill-rule: evenodd;
      }
    </style>
  </defs>
  <rect id="Rectangle_2120_copy_3" data-name="Rectangle 2120 copy 3" class="cls-1" width="175" height="100"/>
  <path class="cls-2" d="M2094.16,1157.26h-5.33v-0.48a4.049,4.049,0,0,0,.99-0.13,0.291,0.291,0,0,0,.22-0.24,0.867,0.867,0,0,0-.08-0.26,4.367,4.367,0,0,0-.22-0.39c-0.15-.25-0.34-0.55-0.58-0.92s-0.49-.73-0.75-1.12c-0.86,1-1.4,1.66-1.64,1.99a1.617,1.617,0,0,0-.34.65,0.605,0.605,0,0,0,.02.15,0.266,0.266,0,0,0,.15.11,0.781,0.781,0,0,0,.3.1,4.684,4.684,0,0,0,.49.06v0.48H2084v-0.48a3.021,3.021,0,0,0,.42-0.05,1.629,1.629,0,0,0,.31-0.11,2.532,2.532,0,0,0,.64-0.42c0.18-.17.37-0.37,0.57-0.59,0.29-.33.61-0.7,0.97-1.11s0.74-.85,1.14-1.31c-0.38-.57-0.75-1.13-1.13-1.66-0.38-.55-0.7-1-0.96-1.38a3.551,3.551,0,0,0-.49-0.57,2,2,0,0,0-.61-0.4,1.9,1.9,0,0,0-.36-0.12,2.841,2.841,0,0,0-.48-0.06v-0.49h5.34V1149a3.749,3.749,0,0,0-.92.11,0.313,0.313,0,0,0-.3.25,0.487,0.487,0,0,0,.06.22,4.08,4.08,0,0,0,.23.42c0.1,0.16.25,0.4,0.46,0.72s0.44,0.68.71,1.08c0.77-.93,1.26-1.53,1.46-1.81a1.4,1.4,0,0,0,.29-0.58,0.275,0.275,0,0,0-.17-0.26,2.671,2.671,0,0,0-.8-0.15v-0.49h3.4V1149a1.383,1.383,0,0,0-.38.04,1.455,1.455,0,0,0-.35.12,2.092,2.092,0,0,0-.64.42c-0.17.17-.36,0.37-0.57,0.59q-0.45.51-.87,0.99t-1.02,1.17c0.5,0.74.92,1.37,1.28,1.88s0.68,0.98,1,1.42a3.028,3.028,0,0,0,.48.57,1.837,1.837,0,0,0,.6.41c0.1,0.04.22,0.07,0.34,0.11a2.977,2.977,0,0,0,.51.06v0.48Zm8.64,0h-3.72v-0.45c0.07-.01.16-0.02,0.26-0.04a0.938,0.938,0,0,0,.28-0.1,0.526,0.526,0,0,0,.2-0.22,0.867,0.867,0,0,0,.06-0.36v-2.91l-2.46,2.92v0.02a0.847,0.847,0,0,0,.06.35,0.372,0.372,0,0,0,.2.21,0.815,0.815,0,0,0,.25.09c0.11,0.02.2,0.03,0.31,0.04v0.45h-3.72v-0.45c0.1-.01.21-0.01,0.31-0.03a1.562,1.562,0,0,0,.27-0.06,0.455,0.455,0,0,0,.27-0.21,0.788,0.788,0,0,0,.07-0.37v-3.87a0.771,0.771,0,0,0-.07-0.36,0.429,0.429,0,0,0-.27-0.22,0.887,0.887,0,0,0-.3-0.06,1.265,1.265,0,0,0-.28-0.03v-0.45h3.72v0.45a2.325,2.325,0,0,0-.28.05,1.008,1.008,0,0,0-.26.09,0.488,0.488,0,0,0-.2.23,0.951,0.951,0,0,0-.06.35v2.91l2.46-2.91v-0.03a0.88,0.88,0,0,0-.06-0.35,0.451,0.451,0,0,0-.2-0.21,0.828,0.828,0,0,0-.29-0.1q-0.165-.015-0.27-0.03v-0.45h3.72v0.45a1.354,1.354,0,0,0-.31.03,1.675,1.675,0,0,0-.27.06,0.414,0.414,0,0,0-.26.2,0.713,0.713,0,0,0-.09.38v3.87a0.887,0.887,0,0,0,.08.38,0.409,0.409,0,0,0,.27.2,1.848,1.848,0,0,0,.26.06,2.175,2.175,0,0,0,.32.03v0.45Zm10.12,0h-3.84v-0.45c0.1-.01.2-0.01,0.3-0.03a1.7,1.7,0,0,0,.28-0.06,0.405,0.405,0,0,0,.26-0.21,0.81,0.81,0,0,0,.08-0.37v-4.11h-0.18l-1.87,5.14h-0.84l-1.8-5.15h-0.19v3.92a1.317,1.317,0,0,0,.08.49,0.488,0.488,0,0,0,.26.25,1.149,1.149,0,0,0,.28.09c0.1,0.02.21,0.03,0.31,0.04v0.45h-2.46v-0.45c0.1-.01.19-0.01,0.29-0.02a0.98,0.98,0,0,0,.27-0.06,0.382,0.382,0,0,0,.26-0.25,1.271,1.271,0,0,0,.07-0.49v-3.64a0.87,0.87,0,0,0-.08-0.39,0.582,0.582,0,0,0-.26-0.23,1.576,1.576,0,0,0-.31-0.1c-0.1-.01-0.2-0.02-0.28-0.03v-0.45h3.51l1.22,3.6,1-2.82a3.644,3.644,0,0,0,.14-0.47c0.03-.17.05-0.27,0.06-0.31h3.44v0.45a1.3,1.3,0,0,0-.31.03,1.675,1.675,0,0,0-.27.06,0.414,0.414,0,0,0-.26.2,0.713,0.713,0,0,0-.09.38v3.87a0.887,0.887,0,0,0,.08.38,0.409,0.409,0,0,0,.27.2,1.848,1.848,0,0,0,.26.06,2.175,2.175,0,0,0,.32.03v0.45Zm8.4,0h-3.88v-0.45c0.11-.01.21-0.01,0.32-0.03a1.807,1.807,0,0,0,.27-0.06,0.455,0.455,0,0,0,.27-0.21,0.781,0.781,0,0,0,.08-0.37v-1.5a5.986,5.986,0,0,1-.95.52,2.8,2.8,0,0,1-1.07.2,2.288,2.288,0,0,1-1.59-.47,1.9,1.9,0,0,1-.5-1.45v-1.15a0.9,0.9,0,0,0-.06-0.36,0.6,0.6,0,0,0-.28-0.22,1.048,1.048,0,0,0-.29-0.08l-0.3-.03v-0.45h3.74v0.45a2.158,2.158,0,0,0-.27.05,1.008,1.008,0,0,0-.26.09,0.512,0.512,0,0,0-.21.23,0.956,0.956,0,0,0-.05.35v0.75a2.009,2.009,0,0,0,.05.55,0.759,0.759,0,0,0,.21.38,0.85,0.85,0,0,0,.37.24,1.782,1.782,0,0,0,.59.09,1.848,1.848,0,0,0,.44-0.06c0.14-.03.29-0.08,0.43-0.12v-1.83a0.862,0.862,0,0,0-.06-0.34,0.467,0.467,0,0,0-.2-0.24,0.782,0.782,0,0,0-.27-0.09c-0.1-.02-0.2-0.04-0.27-0.05v-0.45h3.74v0.45a1.354,1.354,0,0,0-.31.03,1.675,1.675,0,0,0-.27.06,0.414,0.414,0,0,0-.26.2,0.713,0.713,0,0,0-.09.38v3.87a0.887,0.887,0,0,0,.08.38,0.435,0.435,0,0,0,.27.2,1.848,1.848,0,0,0,.26.06,2.175,2.175,0,0,0,.32.03v0.45Zm9.04,0h-3.72v-0.45c0.07-.01.16-0.02,0.26-0.04a0.849,0.849,0,0,0,.28-0.1,0.492,0.492,0,0,0,.21-0.22,0.867,0.867,0,0,0,.06-0.36v-2.91l-2.47,2.92v0.02a0.847,0.847,0,0,0,.06.35,0.429,0.429,0,0,0,.21.21,0.657,0.657,0,0,0,.25.09c0.1,0.02.2,0.03,0.3,0.04v0.45h-3.72v-0.45a2.962,2.962,0,0,0,.31-0.03,1.373,1.373,0,0,0,.27-0.06,0.455,0.455,0,0,0,.27-0.21,0.788,0.788,0,0,0,.07-0.37v-3.87a0.771,0.771,0,0,0-.07-0.36,0.4,0.4,0,0,0-.27-0.22,0.887,0.887,0,0,0-.3-0.06,1.2,1.2,0,0,0-.28-0.03v-0.45h3.72v0.45a1.863,1.863,0,0,0-.27.05,1.069,1.069,0,0,0-.27.09,0.55,0.55,0,0,0-.2.23,0.951,0.951,0,0,0-.06.35v2.91l2.46-2.91v-0.03a0.88,0.88,0,0,0-.06-0.35,0.408,0.408,0,0,0-.2-0.21,0.774,0.774,0,0,0-.28-0.1c-0.11-.01-0.2-0.02-0.28-0.03v-0.45h3.72v0.45a1.354,1.354,0,0,0-.31.03,1.675,1.675,0,0,0-.27.06,0.442,0.442,0,0,0-.26.2,0.825,0.825,0,0,0-.08.38v3.87a0.89,0.89,0,0,0,.07.38,0.464,0.464,0,0,0,.27.2,1.848,1.848,0,0,0,.26.06,2.327,2.327,0,0,0,.32.03v0.45Zm4.25,0.2a4.066,4.066,0,0,1-1.5-.25,2.98,2.98,0,0,1-1.09-.68,2.864,2.864,0,0,1-.63-1.03,3.955,3.955,0,0,1-.21-1.31,2.879,2.879,0,0,1,.26-1.22,3.184,3.184,0,0,1,.69-1.01,3.048,3.048,0,0,1,1.11-.72,3.938,3.938,0,0,1,1.48-.27,3.2,3.2,0,0,1,1.79.43,1.307,1.307,0,0,1,.66,1.15,1.091,1.091,0,0,1-.23.72,1.04,1.04,0,0,1-.81.27,1.379,1.379,0,0,1-.78-0.22,0.7,0.7,0,0,1-.31-0.58,2.1,2.1,0,0,1,.1-0.6,2.178,2.178,0,0,0,.12-0.45,0.4,0.4,0,0,0-.17-0.17,0.691,0.691,0,0,0-.33-0.06,1.063,1.063,0,0,0-.5.13,1.379,1.379,0,0,0-.43.46,2.666,2.666,0,0,0-.3.82,5.634,5.634,0,0,0-.12,1.25,2.8,2.8,0,0,0,.52,1.77,1.5,1.5,0,0,0,1.23.67,1.742,1.742,0,0,0,1.09-.31,2.839,2.839,0,0,0,.71-0.86l0.46,0.32a4.1,4.1,0,0,1-.45.69,2.856,2.856,0,0,1-.64.55,3.5,3.5,0,0,1-.78.38A2.966,2.966,0,0,1,2134.61,1157.46Zm9.63-4.14h-0.4a3.611,3.611,0,0,0-.17-0.4,3.816,3.816,0,0,0-.28-0.52,2.56,2.56,0,0,0-.36-0.44,0.685,0.685,0,0,0-.42-0.23c-0.11-.01-0.22-0.02-0.33-0.02s-0.24-.01-0.39-0.01v4.44a0.81,0.81,0,0,0,.08.37,0.427,0.427,0,0,0,.26.21c0.1,0.02.2,0.05,0.29,0.06a2.677,2.677,0,0,0,.34.03v0.45h-3.96v-0.45c0.1-.01.22-0.02,0.34-0.03s0.21-.04.29-0.06a0.5,0.5,0,0,0,.27-0.22,0.745,0.745,0,0,0,.07-0.36v-4.44c-0.18,0-.32,0-0.41.01s-0.2.01-.32,0.02a0.665,0.665,0,0,0-.41.23,3.131,3.131,0,0,0-.36.44,3.391,3.391,0,0,0-.28.53c-0.07.18-.13,0.31-0.16,0.39h-0.4v-2.17h6.71v2.17Zm8.1,3.94h-2.85c-0.08-.35-0.14-0.65-0.2-0.9s-0.14-.52-0.24-0.81a1.978,1.978,0,0,0-.48-0.83,1.392,1.392,0,0,0-.93-0.29v1.66a0.869,0.869,0,0,0,.07.35,0.5,0.5,0,0,0,.2.23,2.067,2.067,0,0,0,.24.09c0.1,0.02.2,0.04,0.3,0.05v0.45h-3.75v-0.45c0.11-.01.21-0.01,0.32-0.03a1.434,1.434,0,0,0,.26-0.06,0.455,0.455,0,0,0,.27-0.21,0.781,0.781,0,0,0,.08-0.37v-3.87a0.767,0.767,0,0,0-.08-0.36,0.4,0.4,0,0,0-.27-0.22,0.792,0.792,0,0,0-.29-0.06,1.358,1.358,0,0,0-.29-0.03v-0.45h3.75v0.45a2.325,2.325,0,0,0-.28.05,1.008,1.008,0,0,0-.26.09,0.512,0.512,0,0,0-.21.23,1.217,1.217,0,0,0-.06.35v1.62h0.29a1.374,1.374,0,0,0,.49-0.07,0.551,0.551,0,0,0,.3-0.24,2.331,2.331,0,0,0,.27-0.55c0.06-.18.12-0.35,0.17-0.53a3.348,3.348,0,0,1,.19-0.53,2.32,2.32,0,0,1,.33-0.53,1.309,1.309,0,0,1,.5-0.38,1.618,1.618,0,0,1,.68-0.13,1.258,1.258,0,0,1,.55.1,0.985,0.985,0,0,1,.56.55,1.242,1.242,0,0,1,.06.37,0.983,0.983,0,0,1-.27.75,0.934,0.934,0,0,1-.64.25,1.052,1.052,0,0,1-.6-0.2,2.171,2.171,0,0,1-.5-0.45,0.646,0.646,0,0,0-.23.28c-0.05.13-.11,0.26-0.16,0.41s-0.12.3-.18,0.44a1.225,1.225,0,0,1-.26.38,1.989,1.989,0,0,1,1.07.51,2.5,2.5,0,0,1,.67.94c0.07,0.16.15,0.34,0.22,0.51s0.14,0.33.19,0.45a0.768,0.768,0,0,0,.28.36,0.614,0.614,0,0,0,.26.1c0.05,0.01.13,0.03,0.24,0.05a1.222,1.222,0,0,0,.22.03v0.45Zm7.44-.12q-0.27.1-.63,0.21a3.35,3.35,0,0,1-.79.1,2.042,2.042,0,0,1-1.11-.23,1.084,1.084,0,0,1-.48-0.64h-0.04a4.184,4.184,0,0,1-.4.36,2.218,2.218,0,0,1-.42.25,3.516,3.516,0,0,1-.56.21,3.639,3.639,0,0,1-.75.06,1.864,1.864,0,0,1-1.22-.42,1.416,1.416,0,0,1-.51-1.12,1.776,1.776,0,0,1,.12-0.69,1.568,1.568,0,0,1,.31-0.49,1.756,1.756,0,0,1,.43-0.33,5.458,5.458,0,0,1,.54-0.24c0.36-.14.81-0.28,1.32-0.42a6.977,6.977,0,0,0,1.14-.4v-0.59c0-.1-0.01-0.23-0.02-0.41a1.418,1.418,0,0,0-.11-0.42,0.858,0.858,0,0,0-.27-0.33,0.793,0.793,0,0,0-.49-0.14,1.169,1.169,0,0,0-.45.08,1.5,1.5,0,0,0-.29.16,2.682,2.682,0,0,0,.1.37,1.456,1.456,0,0,1,.09.49,1.054,1.054,0,0,1-.05.26,0.769,0.769,0,0,1-.16.25,1.135,1.135,0,0,1-.86.26,1.1,1.1,0,0,1-.79-0.25,0.838,0.838,0,0,1-.26-0.65,0.858,0.858,0,0,1,.27-0.62,2.187,2.187,0,0,1,.67-0.45,3.719,3.719,0,0,1,.89-0.29,5.478,5.478,0,0,1,.94-0.1,7.307,7.307,0,0,1,1.09.07,2.644,2.644,0,0,1,.9.29,1.608,1.608,0,0,1,.61.63,2.211,2.211,0,0,1,.22,1.07q0,0.69-.03,1.65c-0.02.64-.02,1.06-0.02,1.26a0.937,0.937,0,0,0,.08.44,0.53,0.53,0,0,0,.25.24,0.913,0.913,0,0,0,.33.05c0.15,0.01.29,0.01,0.41,0.01v0.46Zm-3.05-3.22c-0.23.08-.45,0.17-0.68,0.27a2.591,2.591,0,0,0-.56.32,1.2,1.2,0,0,0-.36.44,1.538,1.538,0,0,0-.13.63,1,1,0,0,0,.22.71,0.764,0.764,0,0,0,.54.21,1.056,1.056,0,0,0,.56-0.14,2.069,2.069,0,0,0,.39-0.34Zm6.49,3.02a2.453,2.453,0,0,1-.63,1.53,4.039,4.039,0,0,1-1.51,1.19l-0.27-.43c0.2-.11.39-0.23,0.57-0.35a2.224,2.224,0,0,0,.48-0.44,2.447,2.447,0,0,0,.34-0.52,2,2,0,0,0,.16-0.66h-0.35a1.372,1.372,0,0,1-.94-0.28,0.977,0.977,0,0,1-.33-0.78,0.964,0.964,0,0,1,.31-0.71,1,1,0,0,1,.76-0.32,1.251,1.251,0,0,1,1.05.47A2.092,2.092,0,0,1,2163.22,1156.94Zm12.45,0.32h-3.71v-0.45c0.07-.01.16-0.03,0.27-0.05a0.728,0.728,0,0,0,.25-0.09,0.468,0.468,0,0,0,.2-0.22,1.107,1.107,0,0,0,.05-0.36v-4.35h-2.17v4.35a0.933,0.933,0,0,0,.06.36,0.345,0.345,0,0,0,.19.22,0.751,0.751,0,0,0,.24.09,2.325,2.325,0,0,0,.28.05v0.45h-3.71v-0.45c0.1-.01.21-0.01,0.31-0.03a1.807,1.807,0,0,0,.27-0.06,0.455,0.455,0,0,0,.27-0.21,0.788,0.788,0,0,0,.07-0.37v-3.87a0.771,0.771,0,0,0-.07-0.36,0.4,0.4,0,0,0-.27-0.22,0.887,0.887,0,0,0-.3-0.06,1.265,1.265,0,0,0-.28-0.03v-0.45h8.05v0.45a1.206,1.206,0,0,0-.3.03,1.567,1.567,0,0,0-.28.06,0.442,0.442,0,0,0-.26.2,0.819,0.819,0,0,0-.09.38v3.87a0.887,0.887,0,0,0,.08.38,0.464,0.464,0,0,0,.27.2,1.848,1.848,0,0,0,.26.06,2.175,2.175,0,0,0,.32.03v0.45Zm8.24-3a3.127,3.127,0,0,1-.87,2.23,2.88,2.88,0,0,1-2.19.94,3.464,3.464,0,0,1-.96-0.12,2.665,2.665,0,0,1-.61-0.3h-0.05v1.74a0.779,0.779,0,0,0,.09.37,0.544,0.544,0,0,0,.27.23,2.324,2.324,0,0,0,.47.13c0.2,0.04.38,0.05,0.51,0.07V1160h-4.45v-0.45c0.1-.02.23-0.03,0.39-0.05s0.27-.05.35-0.07a0.392,0.392,0,0,0,.26-0.24,0.843,0.843,0,0,0,.07-0.37v-6.3a0.952,0.952,0,0,0-.09-0.36,0.877,0.877,0,0,0-.24-0.28,1.363,1.363,0,0,0-.33-0.12,2.832,2.832,0,0,0-.4-0.08v-0.45l3.01-.16,0.09,0.08v0.69l0.05,0.01a2.915,2.915,0,0,1,.9-0.64,2.2,2.2,0,0,1,.98-0.23,2.469,2.469,0,0,1,2.01.9A3.679,3.679,0,0,1,2183.91,1154.26Zm-2.21.03a6.3,6.3,0,0,0-.07-0.89,2.941,2.941,0,0,0-.24-0.76,1.623,1.623,0,0,0-.44-0.53,1.181,1.181,0,0,0-.67-0.2,1.274,1.274,0,0,0-.63.15,1.438,1.438,0,0,0-.42.36v3.49a1.351,1.351,0,0,0,.14.32,1.66,1.66,0,0,0,.21.31,0.943,0.943,0,0,0,.35.25,1.176,1.176,0,0,0,.43.08,1.1,1.1,0,0,0,.97-0.65A4.126,4.126,0,0,0,2181.7,1154.29Zm10.04,2.85c-0.18.07-.4,0.14-0.64,0.21a3.333,3.333,0,0,1-.78.1,2.081,2.081,0,0,1-1.12-.23,1.124,1.124,0,0,1-.48-0.64h-0.04a4.184,4.184,0,0,1-.4.36,2.218,2.218,0,0,1-.42.25,3.82,3.82,0,0,1-.55.21,3.639,3.639,0,0,1-.75.06,1.872,1.872,0,0,1-1.23-.42,1.408,1.408,0,0,1-.5-1.12,2,2,0,0,1,.11-0.69,1.773,1.773,0,0,1,.31-0.49,1.968,1.968,0,0,1,.43-0.33,5.458,5.458,0,0,1,.54-0.24,13.377,13.377,0,0,1,1.33-.42,7.548,7.548,0,0,0,1.13-.4v-0.59a3.42,3.42,0,0,0-.02-0.41,1.168,1.168,0,0,0-.11-0.42,0.71,0.71,0,0,0-.27-0.33,0.793,0.793,0,0,0-.49-0.14,1.246,1.246,0,0,0-.45.08,1.884,1.884,0,0,0-.29.16,2.682,2.682,0,0,0,.1.37,1.456,1.456,0,0,1,.09.49,1.054,1.054,0,0,1-.05.26,0.652,0.652,0,0,1-.17.25,1.23,1.23,0,0,1-.31.19,1.5,1.5,0,0,1-.54.07,1.1,1.1,0,0,1-.79-0.25,0.874,0.874,0,0,1-.26-0.65,0.858,0.858,0,0,1,.27-0.62,2.315,2.315,0,0,1,.67-0.45,3.719,3.719,0,0,1,.89-0.29,5.478,5.478,0,0,1,.94-0.1,7.539,7.539,0,0,1,1.1.07,2.59,2.59,0,0,1,.89.29,1.679,1.679,0,0,1,.61.63,2.205,2.205,0,0,1,.23,1.07c0,0.46-.02,1.01-0.03,1.65s-0.03,1.06-.03,1.26a1.081,1.081,0,0,0,.08.44,0.553,0.553,0,0,0,.26.24,0.875,0.875,0,0,0,.33.05c0.15,0.01.28,0.01,0.41,0.01v0.46Zm-3.06-3.22c-0.23.08-.46,0.17-0.68,0.27a2.591,2.591,0,0,0-.56.32,1.2,1.2,0,0,0-.36.44,1.538,1.538,0,0,0-.13.63,0.96,0.96,0,0,0,.22.71,0.764,0.764,0,0,0,.54.21,1.093,1.093,0,0,0,.57-0.14,1.749,1.749,0,0,0,.38-0.34Zm11.19,3.34H2196v-0.45c0.09-.01.2-0.01,0.31-0.03a1.373,1.373,0,0,0,.27-0.06,0.455,0.455,0,0,0,.27-0.21,0.678,0.678,0,0,0,.08-0.37v-1.5a5.986,5.986,0,0,1-.95.52,2.743,2.743,0,0,1-1.06.2,2.282,2.282,0,0,1-1.6-.47,1.9,1.9,0,0,1-.49-1.45v-1.15a0.884,0.884,0,0,0-.07-0.36,0.509,0.509,0,0,0-.28-0.22,1.048,1.048,0,0,0-.29-0.08l-0.3-.03v-0.45h3.75v0.45a1.863,1.863,0,0,0-.27.05,0.953,0.953,0,0,0-.27.09,0.488,0.488,0,0,0-.2.23,0.782,0.782,0,0,0-.06.35v0.75a2.009,2.009,0,0,0,.05.55,0.95,0.95,0,0,0,.21.38,0.85,0.85,0,0,0,.37.24,1.877,1.877,0,0,0,.59.09,1.784,1.784,0,0,0,.44-0.06c0.15-.03.29-0.08,0.43-0.12v-1.83a1.109,1.109,0,0,0-.05-0.34,0.487,0.487,0,0,0-.21-0.24,0.782,0.782,0,0,0-.27-0.09c-0.1-.02-0.19-0.04-0.27-0.05v-0.45h3.74v0.45a1.262,1.262,0,0,0-.3.03,1.567,1.567,0,0,0-.28.06,0.442,0.442,0,0,0-.26.2,0.825,0.825,0,0,0-.08.38v3.87a0.887,0.887,0,0,0,.08.38,0.414,0.414,0,0,0,.26.2,1.675,1.675,0,0,0,.27.06,2.017,2.017,0,0,0,.31.03v0.45Zm7.36-1.47a4.079,4.079,0,0,1-.52.66,2.951,2.951,0,0,1-.69.53,3.8,3.8,0,0,1-.84.36,3.525,3.525,0,0,1-.97.12,4.167,4.167,0,0,1-1.57-.26,2.97,2.97,0,0,1-1.09-.7,2.5,2.5,0,0,1-.64-1.03,3.566,3.566,0,0,1-.22-1.29,3.243,3.243,0,0,1,.23-1.2,3.362,3.362,0,0,1,.66-1.03,2.993,2.993,0,0,1,1.06-.71,3.56,3.56,0,0,1,1.42-.27,3.992,3.992,0,0,1,1.41.21,2.456,2.456,0,0,1,.92.58,1.932,1.932,0,0,1,.51.83,3,3,0,0,1,.16,1v0.4h-4.16a3.235,3.235,0,0,0,.49,1.92,2.026,2.026,0,0,0,2.59.34,2.837,2.837,0,0,0,.78-0.8Zm-2.35-2.35a6.51,6.51,0,0,0-.04-0.75,2.309,2.309,0,0,0-.13-0.63,0.994,0.994,0,0,0-.28-0.45,0.784,0.784,0,0,0-.46-0.14,0.854,0.854,0,0,0-.76.48,3.3,3.3,0,0,0-.31,1.52Zm10.6,3.82h-3.88v-0.45c0.11-.01.21-0.01,0.32-0.03a1.562,1.562,0,0,0,.27-0.06,0.455,0.455,0,0,0,.27-0.21,0.781,0.781,0,0,0,.08-0.37v-1.5a5.581,5.581,0,0,1-.95.52,2.78,2.78,0,0,1-1.06.2,2.271,2.271,0,0,1-1.59-.47,1.866,1.866,0,0,1-.51-1.45v-1.15a0.9,0.9,0,0,0-.06-0.36,0.509,0.509,0,0,0-.28-0.22,0.961,0.961,0,0,0-.29-0.08l-0.3-.03v-0.45h3.75v0.45a2.325,2.325,0,0,0-.28.05,1.154,1.154,0,0,0-.26.09,0.488,0.488,0,0,0-.2.23,0.951,0.951,0,0,0-.06.35v0.75a2.009,2.009,0,0,0,.05.55,0.843,0.843,0,0,0,.21.38,0.913,0.913,0,0,0,.37.24,1.877,1.877,0,0,0,.59.09,1.784,1.784,0,0,0,.44-0.06,4.426,4.426,0,0,0,.43-0.12v-1.83a1.109,1.109,0,0,0-.05-0.34,0.487,0.487,0,0,0-.21-0.24,0.782,0.782,0,0,0-.27-0.09c-0.1-.02-0.19-0.04-0.27-0.05v-0.45h3.74v0.45a1.416,1.416,0,0,0-.31.03,2.321,2.321,0,0,0-.27.06,0.442,0.442,0,0,0-.26.2,0.825,0.825,0,0,0-.08.38v3.87a0.887,0.887,0,0,0,.08.38,0.414,0.414,0,0,0,.26.2,1.945,1.945,0,0,0,.27.06,2.162,2.162,0,0,0,.31.03v0.45Zm8.96,0h-3.75v-0.45c0.07-.01.16-0.02,0.26-0.04a0.938,0.938,0,0,0,.28-0.1,0.468,0.468,0,0,0,.2-0.22,0.867,0.867,0,0,0,.06-0.36v-1.77h-2.3v1.77a0.88,0.88,0,0,0,.06.35,0.467,0.467,0,0,0,.21.23,1.543,1.543,0,0,0,.24.09,2.931,2.931,0,0,0,.29.05v0.45h-3.74v-0.45c0.1-.01.2-0.01,0.31-0.03a1.807,1.807,0,0,0,.27-0.06,0.455,0.455,0,0,0,.27-0.21,0.937,0.937,0,0,0,.07-0.37v-3.87a0.767,0.767,0,0,0-.08-0.36,0.41,0.41,0,0,0-.26-0.22,0.887,0.887,0,0,0-.3-0.06,1.265,1.265,0,0,0-.28-0.03v-0.45h3.74v0.45a2.325,2.325,0,0,0-.28.05,0.838,0.838,0,0,0-.25.09,0.512,0.512,0,0,0-.21.23,0.951,0.951,0,0,0-.06.35v1.43h2.3v-1.43a1.109,1.109,0,0,0-.05-0.34,0.487,0.487,0,0,0-.21-0.24,0.782,0.782,0,0,0-.27-0.09c-0.1-.02-0.19-0.04-0.27-0.05v-0.45h3.75v0.45a1.3,1.3,0,0,0-.31.03,1.47,1.47,0,0,0-.27.06,0.435,0.435,0,0,0-.27.2,0.825,0.825,0,0,0-.08.38v3.87a0.887,0.887,0,0,0,.08.38,0.409,0.409,0,0,0,.27.2,1.378,1.378,0,0,0,.26.06,2.038,2.038,0,0,0,.32.03v0.45Zm7.77-.12c-0.19.07-.4,0.14-0.64,0.21a3.333,3.333,0,0,1-.78.1,2,2,0,0,1-1.11-.23,1.1,1.1,0,0,1-.49-0.64h-0.03c-0.15.14-.28,0.26-0.41,0.36a2.5,2.5,0,0,1-.41.25,4.016,4.016,0,0,1-.57.21,3.467,3.467,0,0,1-.74.06,1.827,1.827,0,0,1-1.22-.42,1.386,1.386,0,0,1-.51-1.12,2,2,0,0,1,.11-0.69,1.434,1.434,0,0,1,.32-0.49,1.586,1.586,0,0,1,.43-0.33,5.251,5.251,0,0,1,.53-0.24c0.37-.14.81-0.28,1.33-0.42a7.762,7.762,0,0,0,1.14-.4v-0.59a3.908,3.908,0,0,0-.03-0.41,1.439,1.439,0,0,0-.1-0.42,0.8,0.8,0,0,0-.28-0.33,0.782,0.782,0,0,0-.48-0.14,1.169,1.169,0,0,0-.45.08,2.038,2.038,0,0,0-.3.16,1.92,1.92,0,0,0,.11.37,1.456,1.456,0,0,1,.09.49,0.783,0.783,0,0,1-.06.26,0.635,0.635,0,0,1-.16.25,1.289,1.289,0,0,1-.32.19,1.461,1.461,0,0,1-.54.07,1.061,1.061,0,0,1-.78-0.25,0.845,0.845,0,0,1-.27-0.65,0.858,0.858,0,0,1,.27-0.62,2.46,2.46,0,0,1,.67-0.45,3.719,3.719,0,0,1,.89-0.29,5.478,5.478,0,0,1,.94-0.1,7.539,7.539,0,0,1,1.1.07,2.644,2.644,0,0,1,.9.29,1.655,1.655,0,0,1,.6.63,2.205,2.205,0,0,1,.23,1.07q0,0.69-.03,1.65t-0.03,1.26a1.081,1.081,0,0,0,.08.44,0.553,0.553,0,0,0,.26.24,0.875,0.875,0,0,0,.33.05c0.15,0.01.28,0.01,0.41,0.01v0.46Zm-3.05-3.22c-0.24.08-.46,0.17-0.69,0.27a2.5,2.5,0,0,0-.55.32,1.034,1.034,0,0,0-.36.44,1.392,1.392,0,0,0-.14.63,1,1,0,0,0,.22.71,0.764,0.764,0,0,0,.54.21,1.031,1.031,0,0,0,.56-0.14,1.592,1.592,0,0,0,.39-0.34Zm10.84,3.34h-3.74v-0.45c0.07-.01.15-0.02,0.26-0.04a0.938,0.938,0,0,0,.28-0.1,0.526,0.526,0,0,0,.2-0.22,0.867,0.867,0,0,0,.06-0.36v-1.54a1.622,1.622,0,0,0-.9.23,1.547,1.547,0,0,0-.52.77c-0.12.32-.21,0.6-0.29,0.83s-0.15.52-.24,0.88h-2.83v-0.45c0.06-.01.14-0.01,0.24-0.03a1.637,1.637,0,0,0,.27-0.05,0.727,0.727,0,0,0,.23-0.12,0.88,0.88,0,0,0,.25-0.34c0.07-.17.14-0.32,0.2-0.44a3.947,3.947,0,0,1,.23-0.47,1.7,1.7,0,0,1,.51-0.62,2.245,2.245,0,0,1,.62-0.36v-0.06a3.983,3.983,0,0,1-.59-0.17,2.01,2.01,0,0,1-.49-0.3,1.267,1.267,0,0,1-.34-0.47,1.436,1.436,0,0,1-.14-0.64,1.321,1.321,0,0,1,.74-1.2,4.184,4.184,0,0,1,2.07-.42c0.79,0,1.52,0,2.19.01s1.24,0.02,1.73.02v0.45a1.206,1.206,0,0,0-.3.03,1.567,1.567,0,0,0-.28.06,0.442,0.442,0,0,0-.26.2,0.825,0.825,0,0,0-.08.38v3.87a0.761,0.761,0,0,0,.08.38,0.389,0.389,0,0,0,.26.2,1.848,1.848,0,0,0,.26.06,2.175,2.175,0,0,0,.32.03v0.45Zm-2.94-3.22v-2.41c-0.14-.01-0.25-0.02-0.33-0.02h-0.24a1.025,1.025,0,0,0-.77.32,1.461,1.461,0,0,0,0,1.8,1.336,1.336,0,0,0,.99.31h0.35Zm-38.12-43.72a40.813,40.813,0,0,1-12.62,29.9h-47.97c-6.98-7.17-11.34-18.61-11.34-29.9,0-21.72,16.1-39.32,35.96-39.32S2198.94,1088.6,2198.94,1110.32Zm-2.65,1.01a40.316,40.316,0,0,1-11.67,28.89h-44.37c-6.45-6.93-10.49-17.98-10.49-28.89,0-20.98,14.9-37.99,33.27-37.99S2196.29,1090.35,2196.29,1111.33Zm-19.78,31.55c-0.82,1.23-4.36,2.24-7.33,2.12-2.91-.12-7.74-2.73-7.13-5.64s4.65-3.51,7.74-3.27c4.11,0.32,11.74,4.48,19.91,3.94,11.67-.78,18.4-4.75,27.05-5.15,5.49-.26,10.57,2.82,10.28,5.94-0.33,3.58-6.11,5.21-9.92,3.33-0.24-.3-0.1-0.41.24-0.3,3.84,1.15,7.83.02,8.38-2.88,0.38-2.02-.86-4.4-5.05-4.88-5.68-.66-9.33.59-16.69,3.32-2.9,1.07-7.45,3.59-12.66,3.59s-9.57-1.55-14.28-3.88c-5.02-2.49-13.82-4.09-14.46.24-0.42,2.85,4.24,4.08,6.9,4.24a12.886,12.886,0,0,0,6.11-.66c0.54-.25,1.27-0.61.91-0.06h0Zm-29.02,0c0.82,1.23,4.36,2.24,7.33,2.12,2.91-.12,7.74-2.73,7.14-5.64s-4.66-3.51-7.75-3.27c-4.11.32-11.74,4.48-19.91,3.94-11.67-.78-18.4-4.75-27.05-5.15-5.49-.26-10.57,2.82-10.28,5.94,0.33,3.58,6.11,5.21,9.92,3.33,0.24-.3.1-0.41-0.24-0.3-3.84,1.15-7.83.02-8.38-2.88-0.38-2.02.86-4.4,5.05-4.88,5.68-.66,9.33.59,16.69,3.32,2.9,1.07,7.46,3.59,12.66,3.59s9.57-1.55,14.28-3.88c5.02-2.49,13.82-4.09,14.46.24,0.42,2.85-4.24,4.08-6.9,4.24a12.886,12.886,0,0,1-6.11-.66c-0.54-.25-1.27-0.61-0.91-0.06h0Zm6.23-55.07c-0.82-1.94-1.63-3.89-2.44-5.83l2.91,1.02,1.08,2.64,0.01,0.02,0.02,0.01,2.45,1.01a25.606,25.606,0,0,0-4.03,1.13h0Zm18.65,0.95q1.5-2.775,3.02-5.55l-3,.71-1.34,2.52-0.02.03h-0.02l-2.54.76a24.788,24.788,0,0,1,3.9,1.53h0Zm-4.84-.09a25.378,25.378,0,0,1,4.04,1.55c0.18-.32.35-0.65,0.53-0.97a24.141,24.141,0,0,0-3.97-1.52,22.352,22.352,0,0,0-10.09-.51,24.317,24.317,0,0,0-4.11,1.1c0.14,0.34.29,0.68,0.43,1.03a24.31,24.31,0,0,1,4.18-1.14,19.391,19.391,0,0,1,8.99.46h0Zm-0.41-1.8-1.66-1.87-0.01-.02v-0.02l0.15-2.9-2.14-2.03-2.33,1.8-0.14,2.9v0.02l-0.02.02-1.84,1.69a21.927,21.927,0,0,1,7.99.41h0Zm-4.68,18.16c0.52-1.21.97-2.37,1.35-3.49l1.24-3.55a12.545,12.545,0,0,1,1.32-2.7,11.6,11.6,0,0,1,1.74-2.14,9.535,9.535,0,0,1,2.03-1.41,5.238,5.238,0,0,1,2.11-.47,2.4,2.4,0,0,1,1.41.4,1.368,1.368,0,0,1,.59,1.1,1.435,1.435,0,0,1-.86,1.4c-1.21.46-2.26-.77-0.8-1.91,0.21-.16-0.25-0.56-0.87-0.56-1.16,0-2.21.94-3.15,2.8a19.6,19.6,0,0,0-1.09,2.44c-0.28.69-.62,1.66-1.01,2.89-0.42,1.38-.82,2.79-1.19,4.21a33.1,33.1,0,0,0-.89,3.53,7.584,7.584,0,0,0-.19,1.64,3.173,3.173,0,0,0,.36,1.61,1.082,1.082,0,0,0,.95.6,1.838,1.838,0,0,0,1.28-.56,4.712,4.712,0,0,0,1.06-1.68l0.32,0.16a5.4,5.4,0,0,1-1.21,1.88,2.174,2.174,0,0,1-1.48.59,2.285,2.285,0,0,1-1.51-.59,3.976,3.976,0,0,1-1.05-1.65,6.439,6.439,0,0,1-.4-2.33,13.007,13.007,0,0,1,.17-1.55s-1.66,3.65-2.86,4.51a2.039,2.039,0,0,1-1.18.43,1.673,1.673,0,0,1-1.42-.86,3.869,3.869,0,0,1-.55-2.14,5.381,5.381,0,0,1,.29-1.74c-0.79,1.29-1.27,2.11-1.68,2.79a5.136,5.136,0,0,1-1.18,1.48,1.868,1.868,0,0,1-1.18.43,1.634,1.634,0,0,1-1.41-.85,3.789,3.789,0,0,1-.56-2.14,7.38,7.38,0,0,1,.39-2.11,14.958,14.958,0,0,1,1.09-2.63l1.44-2.87a13.5,13.5,0,0,0,1.74-5.56,5.671,5.671,0,0,0-.52-2.43,6.124,6.124,0,0,0-1.48-1.94,7.063,7.063,0,0,0-2.24-1.25,8.592,8.592,0,0,0-2.79-.43,11.043,11.043,0,0,0-2.04.19,7.673,7.673,0,0,0-1.77.6,10.4,10.4,0,0,0-1.71.95,11.422,11.422,0,0,0-1.54,1.42,10.5,10.5,0,0,0-1.97,3.13,8.674,8.674,0,0,0-.69,3.42,7.853,7.853,0,0,0,.92,3.75,7.051,7.051,0,0,0,2.46,2.73,6.2,6.2,0,0,0,3.35.99,6.71,6.71,0,0,0,3.45-.96,7.358,7.358,0,0,0,2.67-2.53l0.36,0.16a7.454,7.454,0,0,1-2.76,2.7,7.261,7.261,0,0,1-3.72,1.02,6.969,6.969,0,0,1-3.71-1.05,7.74,7.74,0,0,1-2.69-2.9,7.883,7.883,0,0,1-1.02-3.95,9.577,9.577,0,0,1,3.22-7.04,10.06,10.06,0,0,1,7.16-3.03,9.162,9.162,0,0,1,3.25.56,8.417,8.417,0,0,1,2.76,1.65,6.786,6.786,0,0,1,2.4,5.39,7.823,7.823,0,0,1-.36,2.37,16.49,16.49,0,0,1-.72,1.91c-0.27.64-.45,1.08-0.56,1.32l-0.23.56-1.42,3.29-1.08,2.4a4.764,4.764,0,0,0-.46,1.75,1.044,1.044,0,0,0,.23.69,0.794,0.794,0,0,0,.62.29c0.68,0,1.7-1.28,3.32-4.11,1.33-2.3,3.29-6.02,3.29-6.02,3.01-5.78,1.39-8.5,1.28-8.72l0.43-.04a7.356,7.356,0,0,1,1.38,4.35,7.623,7.623,0,0,1-.37,2.37,13.813,13.813,0,0,1-.72,1.91c-0.26.63-.44,1.07-0.56,1.31l-0.23.56-1.41,3.29-1.08,2.41a4.677,4.677,0,0,0-.46,1.74,1.044,1.044,0,0,0,.23.69,0.79,0.79,0,0,0,.62.3c0.68,0,1.43-.72,2.23-2.14C2161.3,1107.44,2162.44,1105.03,2162.44,1105.03Zm11.73-1.02,0.36,0.13c-0.57,1.43-.97,2.37-1.22,2.83-0.57,1.1-1.22,1.65-1.97,1.65a1.112,1.112,0,0,1-.95-0.53,2.31,2.31,0,0,1-.36-1.38v-0.3c-0.44.73-.75,1.2-0.92,1.42a1.7,1.7,0,0,1-1.42.76,1.1,1.1,0,0,1-.85-0.37,1.471,1.471,0,0,1-.33-0.98,5.884,5.884,0,0,1,.26-1.39l1.48-5.49c0.35,0.02.62,0.03,0.79,0.03a6.325,6.325,0,0,0,.86-0.06l-1.68,6.18-0.2.76a1.32,1.32,0,0,0-.06.39c0,0.25.08,0.37,0.26,0.37a1.464,1.464,0,0,0,.82-0.7,10.933,10.933,0,0,0,.99-1.87,23.724,23.724,0,0,0,.85-2.44l0.53-1.87,0.06-.27c0.05-.13.1-0.3,0.17-0.52h0.16q0,0.03.06,0.03l0.76,0.03h0.07c0.02,0,.08-0.01.2-0.03a1.818,1.818,0,0,1,.32-0.03l-1.77,6.52a2.514,2.514,0,0,0-.16.75,0.4,0.4,0,0,0,.42.49,1.406,1.406,0,0,0,1.02-.85,15.925,15.925,0,0,0,1.25-2.73Zm6.67,0,0.33,0.13-0.17.43a12.566,12.566,0,0,1-1.48,3.16,1.936,1.936,0,0,1-1.57.82,1.379,1.379,0,0,1-1.02-.39,1.282,1.282,0,0,1-.43-0.99,15.622,15.622,0,0,1,.98-3.45,2.114,2.114,0,0,0,.07-0.5c0-.44-0.32-0.66-0.95-0.66a2.306,2.306,0,0,0-.46.07l-1.61,5.82a5.166,5.166,0,0,0-.76-0.06c-0.15,0-.42.02-0.82,0.06l2.34-8.52a2.639,2.639,0,0,0,.78.1,3.562,3.562,0,0,0,.79-0.1l-0.62,2.27h0.29a1.714,1.714,0,0,0,.7-0.13,1.77,1.77,0,0,0,.52-0.46l0.65-.83a1.883,1.883,0,0,1,1.45-.75,0.916,0.916,0,0,1,.99.89,0.86,0.86,0,0,1-.27.65,0.925,0.925,0,0,1-.65.27,1.239,1.239,0,0,1-1.09-.63,0.823,0.823,0,0,0-.56.4,3.774,3.774,0,0,1-.72.72,1.72,1.72,0,0,1,1.38,1.51,5.4,5.4,0,0,1-.46,1.75c-0.24.68-.4,1.14-0.49,1.38-0.05.16-.42,1.12,0.33,1.12a1.4,1.4,0,0,0,1.05-.82,18.539,18.539,0,0,0,1.28-2.83Zm-27.6,25.63a9.481,9.481,0,0,1-2.86,1.84,8.906,8.906,0,0,1-3.81.86,8.472,8.472,0,0,1-6.96-3.39,10.42,10.42,0,0,1-2.37-6.62,9.318,9.318,0,0,1,.69-3.58,9.808,9.808,0,0,1,1.87-3,9.411,9.411,0,0,1,2.93-2.07,9.716,9.716,0,0,1,3.61-.92,8.149,8.149,0,0,1,5.84-2.48,22.374,22.374,0,0,1,4.08,1.19,43.678,43.678,0,0,0,4.44,1.35c4.64,0.99,7.27-3.2,7.27-3.2-0.8,1.94-3.02,4.85-6.61,4.95a7.549,7.549,0,0,1-1.91-.23,6.189,6.189,0,0,0-1.71,2.36,24.148,24.148,0,0,0-1.21,4.55c-0.31,1.56-.58,2.78-0.82,3.68-0.05.16-.12,0.38-0.2,0.66a5.385,5.385,0,0,1,2.69-.59,5.163,5.163,0,0,1,1.18.23c0.12-.55.48-3.34-0.12-4.02-0.22-.25-0.71-0.4-0.78-0.24a0.847,0.847,0,0,1-1.47.33,0.593,0.593,0,0,1,.62-0.89c4.91,0.32,3.84,5.78,3.93,5.91,0.44,0.69,1.4,3.14,1.54,2.4l-0.25,1.09c-0.33-.22-1.3-2.8-1.54-3.06-0.46,1.67-2.89,5.48-5.87,5.59C2153.57,1132.41,2153.17,1130.56,2153.24,1129.64Zm5.72-15.4a14.134,14.134,0,0,1-2.14-.73l-2.23-.98a11.049,11.049,0,0,0-4.18-1.22,5.132,5.132,0,0,0-1.87.36,4.738,4.738,0,0,0-1.61,1.09,8.85,8.85,0,0,1,2.76.59,6.257,6.257,0,0,1,2.1,1.41,6.638,6.638,0,0,1,1.42,2.18,9.161,9.161,0,0,1,.56,2.79,10.627,10.627,0,0,0,1.02-2.6l0.36,0.13a9.923,9.923,0,0,1-1.38,3.23,8.44,8.44,0,0,1-.66,2.67,7.28,7.28,0,0,1-1.41,2.11,5.937,5.937,0,0,1-2.01,1.37,5.768,5.768,0,0,1-2.43.5,5.021,5.021,0,0,1-3.68-1.45,4.8,4.8,0,0,1-1.51-3.62,6.3,6.3,0,0,1,.26-1.71l0.4,0.1a6.048,6.048,0,0,0-.27,1.61,4.726,4.726,0,0,0,.63,2.34,4.383,4.383,0,0,0,1.64,1.67,4.252,4.252,0,0,0,2.27.63,4.9,4.9,0,0,0,2-.43,5.315,5.315,0,0,0,1.84-1.18,8.672,8.672,0,0,0,1.48-1.81,7.194,7.194,0,0,0,.85-2.18,6.969,6.969,0,0,1-1.7,1.13,5.5,5.5,0,0,1-1.81.29,4.631,4.631,0,0,1-2.5-.72,4.945,4.945,0,0,1-1.8-2.01,6.026,6.026,0,0,1-.67-2.8,6.132,6.132,0,0,1,1.32-3.85,10.525,10.525,0,0,0-2.4.59,9.425,9.425,0,0,0-1.97,1.22,10.725,10.725,0,0,0-2.07,2.14,9.758,9.758,0,0,0-1.31,2.67,9.489,9.489,0,0,0-.46,2.93,9.2,9.2,0,0,0,.69,3.52,9.375,9.375,0,0,0,1.8,2.96,8.545,8.545,0,0,0,2.67,2.01,7.45,7.45,0,0,0,3.18.72,5.838,5.838,0,0,0,2.57-.56,6.226,6.226,0,0,0,2.13-1.68,12.967,12.967,0,0,0,1.87-3.03,33.285,33.285,0,0,0,1.65-4.37c0.41-1.32.73-2.31,0.95-2.96q0.42-1.1.72-1.71a11.413,11.413,0,0,1,.79-1.22A12.325,12.325,0,0,1,2158.96,1114.24Zm-5.65,5.43a6.971,6.971,0,0,0-.37-2.27,5.771,5.771,0,0,0-1.15-1.94,5.7,5.7,0,0,0-1.71-1.45,6.563,6.563,0,0,0-1.6-.69,7.981,7.981,0,0,0-1.94-.2,5.789,5.789,0,0,0-1.45,3.88,5.355,5.355,0,0,0,1.35,3.65,4.131,4.131,0,0,0,3.25,1.52,3.891,3.891,0,0,0,1.81-.4,7.389,7.389,0,0,0,1.81-1.41v-0.69Zm0.49,9.25c-0.09.44-.16,2.98,1.31,2.93,2.94-.11,3.84-5.03,4.14-6.26a4.179,4.179,0,0,0-1.14-.16,6.111,6.111,0,0,0-1.88.33,3.983,3.983,0,0,0-.79.29c-0.17.38-.39,0.82-0.65,1.32A8.291,8.291,0,0,1,2153.8,1128.92Zm14.47-6.37,0.3-1.02c0.15,0.02.3,0.04,0.44,0.05s0.29,0.01.44,0.01c0.11,0,.24,0,0.36-0.01a3.328,3.328,0,0,0,.37-0.05s-0.96,3.57-.96,3.59c-0.1.42-.21,0.8-0.31,1.15s-0.19.68-.27,0.99c-0.1.3-.16,0.54-0.2,0.71a6.324,6.324,0,0,0-.2.87,0.371,0.371,0,0,0,.43.42,1.481,1.481,0,0,0,1.05-.88c0.17-.29.37-0.69,0.61-1.2,0.22-.52.49-1.16,0.8-1.93l0.36,0.13-0.16.43c-0.22.55-.43,1.02-0.61,1.43a11.318,11.318,0,0,1-.51,1.04c-0.76,1.21-1.42,1.51-1.77,1.51a1.312,1.312,0,0,1-1.55-1.74c0.23-1.08.53-2.23,1.1-4.24-0.24.86-3.03,6.57-4.74,6.21a0.682,0.682,0,0,1-.56-0.46,3.2,3.2,0,0,1,.22-1.58c0.18-.57.33-1.02,0.45-1.36s0.28-.78.48-1.31a0.825,0.825,0,0,1,.33,0c-0.12.4-.98,3.37-0.96,3.59-0.06.46,0.08,0.61,0.45,0.61,1.17,0,4.09-5.91,4.45-6.6Zm8.25,2.7,0.33,0.13a17,17,0,0,1-1.06,2.3c-0.78,1.41-1.74,2.11-2.85,2.11a1.971,1.971,0,0,1-1.55-.72,2.633,2.633,0,0,1-.62-1.81,7.784,7.784,0,0,1,2.04-4.91,2.479,2.479,0,0,1,1.67-.88,1.315,1.315,0,0,1,1.12.52,2.166,2.166,0,0,1,.43,1.38,4.372,4.372,0,0,1-.46,1.92,3.621,3.621,0,0,1-1.19,1.41,4.28,4.28,0,0,1-2.04.62,5.887,5.887,0,0,0-.09.89c0,0.79.28,1.19,0.85,1.19,1.14,0,2.22-1.28,3.25-3.82Zm-4.07,1.65a2.275,2.275,0,0,0,1.15-.27,2.5,2.5,0,0,0,.78-0.85,6.57,6.57,0,0,0,.63-1.49,6.41,6.41,0,0,0,.26-1.61c0-.17-0.05-0.81-0.56-0.79-0.35.02-.73,0.54-1.15,1.61A20.027,20.027,0,0,0,2172.45,1126.9Zm9.26-1.65,0.36,0.13-0.2.56c-0.33.81-.59,1.41-0.78,1.78a5.793,5.793,0,0,1-.83,1.12,2.678,2.678,0,0,1-1.9.95,1.788,1.788,0,0,1-1.51-.79,3.271,3.271,0,0,1-.59-2.04,6.829,6.829,0,0,1,.55-2.6,6.123,6.123,0,0,1,1.45-2.14,2.532,2.532,0,0,1,1.7-.82,1.3,1.3,0,0,1,1.03.46,2.013,2.013,0,0,1,.39,1.28,3.493,3.493,0,0,1-.26,1.35,3.259,3.259,0,0,1-.66,1.09,1.287,1.287,0,0,1-.86.4,0.493,0.493,0,0,1-.42-0.24,0.774,0.774,0,0,1-.17-0.52,1.306,1.306,0,0,1,.3-0.86,1.393,1.393,0,0,1,.86-0.43,0.97,0.97,0,0,0,.62-0.26,0.9,0.9,0,0,0,.16-0.63,1.54,1.54,0,0,0-.23-0.88,0.765,0.765,0,0,0-.62-0.33,1.243,1.243,0,0,0-.95.92,17.312,17.312,0,0,0-1.02,3.06,11.759,11.759,0,0,0-.49,2.63,0.975,0.975,0,0,0,.22.66,0.743,0.743,0,0,0,.63.26,1.833,1.833,0,0,0,1.18-.49,4.219,4.219,0,0,0,1.05-1.35A18.185,18.185,0,0,0,2181.71,1125.25Zm6.67,0,0.33,0.13-0.17.43a12.278,12.278,0,0,1-1.47,3.16,1.968,1.968,0,0,1-1.58.82,1.379,1.379,0,0,1-1.02-.39,1.332,1.332,0,0,1-.43-0.99,15.465,15.465,0,0,1,.99-3.46,2.489,2.489,0,0,0,.06-0.49c0-.44-0.31-0.66-0.95-0.66a3.445,3.445,0,0,0-.46.07l-1.61,5.82a5.063,5.063,0,0,0-.76-0.06c-0.15,0-.42.02-0.82,0.06l2.34-8.52a2.74,2.74,0,0,0,.78.1,3.489,3.489,0,0,0,.79-0.1l-0.62,2.27h0.29a1.6,1.6,0,0,0,.69-0.13,1.677,1.677,0,0,0,.53-0.46l0.66-.83a1.835,1.835,0,0,1,1.44-.75,1.124,1.124,0,0,1,.69.23,0.786,0.786,0,0,1,.3.66,0.93,0.93,0,0,1-.26.66,1,1,0,0,1-.66.26,0.893,0.893,0,0,1-.72-0.3l-0.2-.19a0.209,0.209,0,0,0-.17-0.14,0.938,0.938,0,0,0-.56.4,3.776,3.776,0,0,1-.72.72,1.733,1.733,0,0,1,1.39,1.52,5.512,5.512,0,0,1-.47,1.74c-0.24.68-.4,1.14-0.49,1.38a2.25,2.25,0,0,0-.07.56c0,0.37.14,0.56,0.4,0.56a1.4,1.4,0,0,0,1.05-.82,18.539,18.539,0,0,0,1.28-2.83Zm-14.93-10.24,0.28,0.1c-0.45,1.14-.77,1.89-0.97,2.26a1.923,1.923,0,0,1-1.57,1.32,0.909,0.909,0,0,1-.76-0.42,1.9,1.9,0,0,1-.29-1.11v-0.23a11,11,0,0,1-.73,1.12,1.339,1.339,0,0,1-1.13.61,0.876,0.876,0,0,1-.68-0.29,1.212,1.212,0,0,1-.26-0.79,4.478,4.478,0,0,1,.21-1.1l1.18-4.39q0.42,0.03.63,0.03a5.314,5.314,0,0,0,.68-0.05l-1.34,4.93-0.15.61a0.853,0.853,0,0,0-.06.31c0,0.2.07,0.29,0.21,0.29a1.134,1.134,0,0,0,.66-0.55,8.549,8.549,0,0,0,.78-1.5,16.05,16.05,0,0,0,.69-1.94l0.42-1.5,0.05-.21c0.03-.1.08-0.24,0.13-0.42h0.13c0,0.02.02,0.03,0.05,0.03l0.6,0.03h0.06a1.159,1.159,0,0,0,.15-0.03,2.076,2.076,0,0,1,.27-0.03l-1.42,5.2a1.959,1.959,0,0,0-.13.61,0.323,0.323,0,0,0,.34.39,1.139,1.139,0,0,0,.81-0.68,12.591,12.591,0,0,0,1-2.18Z" transform="translate(-2074 -1065)"/>
</svg>
