<svg id="brand7.svg" xmlns="http://www.w3.org/2000/svg" width="175" height="100" viewBox="0 0 175 100">
  <defs>
    <style>
      .cls-1 {
        fill: none;
      }

      .cls-2 {
        fill: #112236;
        fill-rule: evenodd;
      }
    </style>
  </defs>
  <rect id="Rectangle_2120_copy_3" data-name="Rectangle 2120 copy 3" class="cls-1" width="175" height="100"/>
  <path class="cls-2" d="M1841.73,1115.82a9.809,9.809,0,0,0-3.55-3.97,10.9,10.9,0,0,0-5.9-1.61h-8.2v21.49h8.2a10.986,10.986,0,0,0,5.9-1.61,9.835,9.835,0,0,0,3.55-3.98A11.872,11.872,0,0,0,1841.73,1115.82Zm-4.46,6.86a5.565,5.565,0,0,1-1.66,2.85,4.9,4.9,0,0,1-3.33,1.2h-2.64v-11.49h2.64a4.945,4.945,0,0,1,3.33,1.19,5.646,5.646,0,0,1,1.66,2.85A6.986,6.986,0,0,1,1837.27,1122.68Zm42.22,2.55,4.13,6.5,6.38,0.01-7.59-11.14-3.11-4.51-3.61-5.92h-6.2l6.86,10.43,2.95,4.63h0.19Zm-90.65-3.99a2.4,2.4,0,0,0,1.89-1.01,3.9,3.9,0,0,0,.62-2.1,3.767,3.767,0,0,0-.57-2.12,2.1,2.1,0,0,0-1.79-.97c-0.66-.01-1.33-0.02-2-0.01s-1.34.01-1.98,0.01v16.66h-5.56v-21.57h9.57a7.4,7.4,0,0,1,7.5,5.64,9.073,9.073,0,0,1,0,4.74,7.728,7.728,0,0,1-2.5,3.96c-1.25,1.06-3.08.93-5.16,0.97a37.23,37.23,0,0,1-2.76-3.87Zm40.8,5.48c-1.53,1.4-3.37,3.09-5.55,5.01h8.19a10.986,10.986,0,0,0,5.9-1.61,9.835,9.835,0,0,0,3.55-3.98,11.872,11.872,0,0,0,0-10.32,9.723,9.723,0,0,0-3.55-3.97C1841.33,1114.04,1844.04,1127.17,1829.64,1126.72Zm18.73-.05c-0.07-.11-0.16-0.22-0.24-0.33a12.455,12.455,0,0,1,0-12.39,10.271,10.271,0,0,1,4.14-3.72,11.528,11.528,0,0,1,5.23-1.23c0,1.49,0,3.82.01,5.34a5.769,5.769,0,0,0-1.47.23,5.249,5.249,0,0,0-2.71,1.85,6.721,6.721,0,0,0,0,7.46l0.15,0.19Zm7.81-15.98a12.057,12.057,0,0,1,5.25,1.24,10.136,10.136,0,0,1,4.13,3.73,12.39,12.39,0,0,1,0,12.39,10.182,10.182,0,0,1-4.13,3.72,11.559,11.559,0,0,1-5.23,1.23c0-1.49,0-3.82-.01-5.34a5.769,5.769,0,0,0,1.47-.23,5.249,5.249,0,0,0,2.71-1.85,6.721,6.721,0,0,0,0-7.46,5.171,5.171,0,0,0-2.71-1.87,5.466,5.466,0,0,0-1.5-.24Zm-2.7,13.38a5.144,5.144,0,0,0,2.56,1.68,5.466,5.466,0,0,0,1.5.24l-0.02,5.32a12.057,12.057,0,0,1-5.25-1.24,10.049,10.049,0,0,1-3.9-3.4l1.51-2.46Zm21.71,7.65h-6.5l7.65-11.15,6.04,0.01Zm4.17-15.54,3.89-6.01h6.24l-7.1,10.4Zm-132.98,5.08a2.388,2.388,0,0,0,1.9-.99,3.847,3.847,0,0,0,.62-2.11,3.809,3.809,0,0,0-.56-2.11,2.117,2.117,0,0,0-1.8-.97c-0.65-.02-1.32-0.02-2-0.02s-1.34.01-1.98,0.02v16.58H1737v-21.5h9.57a7.425,7.425,0,0,1,7.51,5.65,9.248,9.248,0,0,1,0,4.73,7.648,7.648,0,0,1-2.5,3.96,7.737,7.737,0,0,1-5.01,1.67l-0.48.05c-0.62-1.04-1.65-3.19-2.44-4.62Zm47.4,3.4,4.19,7.04h-6.33s-5.29-9.34-5.93-10.51c11.51,1.28,7.33-11.06,2.65-11.06a7.9,7.9,0,0,1,5.66,1.67,7.755,7.755,0,0,1,2.5,3.97,8.882,8.882,0,0,1,.03,4.77A7.427,7.427,0,0,1,1793.78,1124.66Zm-47.87-14.5a8.455,8.455,0,0,1,5.67,1.68,7.715,7.715,0,0,1,2.5,3.97,9.248,9.248,0,0,1,0,4.73,8.058,8.058,0,0,1-2.54,4.07,8.878,8.878,0,0,1-5.29,1.9s-2.2-3.86-2.99-5.29C1754.77,1122.5,1750.6,1110.16,1745.91,1110.16Zm14.16,21.51h-5.94l9.82-21.5h5.32Zm16.92,0.04h-5.69l-1.4-2.79h-8.66l-4.51-4.61h11.46l-2.57-5.62,2.5-5.84Zm39.17-.04h5.94l-9.95-21.83h-5.35Zm-16.92.04h5.69l1.4-2.79h8.65l4.52-4.61h-11.46l2.56-5.61-2.5-5.84Z" transform="translate(-1726 -1071)"/>
</svg>
