<svg id="brand8.svg" xmlns="http://www.w3.org/2000/svg" width="175" height="100" viewBox="0 0 175 100">
  <defs>
    <style>
      .cls-1 {
        fill: none;
      }

      .cls-2 {
        fill: #112236;
        fill-rule: evenodd;
      }
    </style>
  </defs>
  <rect id="Rectangle_2120_copy_3" data-name="Rectangle 2120 copy 3" class="cls-1" width="175" height="100"/>
  <path class="cls-2" d="M1495.44,1095.53a19.44,19.44,0,1,1-38.88,0v-11.45h0v-2.22a17.516,17.516,0,0,1,16.38,11.38,22.729,22.729,0,0,1,.92-2.71,19.413,19.413,0,0,0-17.3-10.62V1076a23.285,23.285,0,0,1,19.44,10.49,23.285,23.285,0,0,1,19.44-10.49v1.95a21.342,21.342,0,0,0-18.32,10.41,23,23,0,0,1,1.94,4.88,17.516,17.516,0,0,1,16.38-11.38v1.95a15.59,15.59,0,0,0-15.55,15.63H1476a19.6,19.6,0,0,0-1.02-6.26,21.543,21.543,0,0,0-.92,6.26h-3.89a13.666,13.666,0,0,0-9.73-13.11v9.2a15.555,15.555,0,1,0,31.11,0h3.89Zm-87.6,43.57h-4.23v-0.09a4.339,4.339,0,0,0,.62-0.52,1.9,1.9,0,0,0,.38-0.54,4.205,4.205,0,0,0,.26-1.74v-9.48l-8.52,10.87a9.5,9.5,0,0,1-1.34,1.35,4.874,4.874,0,0,1-1.79.9l0.04-13.58a4.29,4.29,0,0,0-.27-1.81,3.057,3.057,0,0,0-.99-1.03v-0.05h4.19v0.05a1.822,1.822,0,0,0-1.05,1.1,5.8,5.8,0,0,0-.21,1.65v9.35l8.68-11.03a2.861,2.861,0,0,0,.73-1.12h3.5v0.05a3.351,3.351,0,0,0-.98.91,4.171,4.171,0,0,0-.28,1.8v10.07a4.833,4.833,0,0,0,.26,1.79,2.116,2.116,0,0,0,1,1.01v0.09h0Zm12.22,0h-3.93v-0.07a1.443,1.443,0,0,0,.73-1.58v-3.77h-4.61v3.77a1.453,1.453,0,0,0,.72,1.58v0.07h-3.83v-0.07a1.453,1.453,0,0,0,.72-1.58v-7.73a1.574,1.574,0,0,0-.72-1.65v-0.06h3.83v0.06a0.952,0.952,0,0,0-.58.69,5.064,5.064,0,0,0-.14,1.36v2.36h4.61v-2.53a4.823,4.823,0,0,0-.12-1.23,0.859,0.859,0,0,0-.61-0.65v-0.06h3.93v0.06a0.946,0.946,0,0,0-.57.57,4.115,4.115,0,0,0-.16,1.31v7.5a1.443,1.443,0,0,0,.73,1.58v0.07h0Zm10.44-9a1.464,1.464,0,0,0-.38-0.37,3.652,3.652,0,0,0-.75-0.28c-0.16,0-.46-0.01-0.9-0.02s-0.73-.03-0.88-0.03a0.668,0.668,0,0,0-.77.73v6.97a2.808,2.808,0,0,0,.2,1.14,1.655,1.655,0,0,0,.73.77v0.09h-4v-0.09a1.4,1.4,0,0,0,.77-0.77,4.431,4.431,0,0,0,.12-1.09v-7.02a0.66,0.66,0,0,0-.76-0.73c-0.27,0-.55.01-0.84,0.02l-0.94.03a3.571,3.571,0,0,0-.76.28,1.439,1.439,0,0,0-.37.37v-2.25l3.15,0.16h3.23l3.15-.16v2.25h0Zm10.8,6.5-1.16,2.21a9.171,9.171,0,0,1-3.28.63,7.628,7.628,0,0,1-4.81-1.59,5.2,5.2,0,0,1-2.05-4.33v-0.16a5.6,5.6,0,0,1,1.58-3.89,5.712,5.712,0,0,1,4.43-1.71,5.471,5.471,0,0,1,2.7.68,4.819,4.819,0,0,1,1.93,1.92,5.631,5.631,0,0,1,.66,2.78v0.09h-8.72a4.828,4.828,0,0,0,1.03,3,4.236,4.236,0,0,0,3.15,1.56,2.532,2.532,0,0,1,.6.05,5.428,5.428,0,0,0,.95-0.09c0.33-.06.69-0.14,1.07-0.24a6.188,6.188,0,0,0,1.88-.91h0.04Zm-2.47-4.78a2.041,2.041,0,0,0-.25-1.03,2.5,2.5,0,0,0-.7-0.79,3.572,3.572,0,0,0-.95-0.49,3.845,3.845,0,0,0-1.1-.16,3.547,3.547,0,0,0-2.06.65,2.6,2.6,0,0,0-1.09,1.82h6.15Zm13.63,2.57,0.05-.74a4.6,4.6,0,0,0-.86-2.81,3.523,3.523,0,0,0-5.2-.45,2.887,2.887,0,0,0-.91,2.04v8.83a7.624,7.624,0,0,0,.14,1.81,1.567,1.567,0,0,0,.79.84V1144h-3.99v-0.09a1.856,1.856,0,0,0,.92-1.78v-11.84a2.174,2.174,0,0,0-.92-2.1v-0.1c0.71,0,1.19.02,1.45,0.05a3.909,3.909,0,0,0,.97-0.1,1.584,1.584,0,0,0,.59-0.24h0.05v1.7a3.922,3.922,0,0,1,1.75-1.29,5.894,5.894,0,0,1,2.14-.41h0.24a4.719,4.719,0,0,1,1.41.21,5.69,5.69,0,0,1,1.34.61,5.179,5.179,0,0,1,1.93,2.19,6.2,6.2,0,0,1,.4,1.24,7.021,7.021,0,0,1,.14,1.41h0v0.65a5.6,5.6,0,0,1-1.79,3.79,5.375,5.375,0,0,1-3.8,1.49,6.037,6.037,0,0,1-1.9-.29l-1.24-1.95a5.659,5.659,0,0,0,1.19.5,5,5,0,0,0,1.4.18,4.356,4.356,0,0,0,1.39-.22m16.75,1.49h-3.62v-0.07a1.457,1.457,0,0,0,.73-1.58v-8.14h-4.81v8.14c0,0.9.24,1.43,0.7,1.58v0.07h-3.77v-0.07a1.453,1.453,0,0,0,.72-1.58v-7.64a1.616,1.616,0,0,0-.72-1.67l7.61-.02h3.16a1.086,1.086,0,0,0-.56.61,3.637,3.637,0,0,0-.17,1.3v7.42a1.457,1.457,0,0,0,.73,1.58v0.07h0Zm13.66-5.64v0.65a5.6,5.6,0,0,1-1.79,3.79,5.358,5.358,0,0,1-3.8,1.49,6.037,6.037,0,0,1-1.9-.29l-1.24-1.95a5.659,5.659,0,0,0,1.19.5,5,5,0,0,0,1.4.18,4.356,4.356,0,0,0,1.39-.22,3.724,3.724,0,0,0,1.15-.67,3.616,3.616,0,0,0,1.17-2.55l0.05-.74a4.6,4.6,0,0,0-.86-2.81,3.523,3.523,0,0,0-5.2-.45,2.887,2.887,0,0,0-.91,2.04v8.83a7.624,7.624,0,0,0,.14,1.81,1.607,1.607,0,0,0,.79.84V1144h-3.99v-0.09a1.856,1.856,0,0,0,.92-1.78v-11.84a2.174,2.174,0,0,0-.92-2.1v-0.1c0.71,0,1.19.02,1.45,0.05a3.909,3.909,0,0,0,.97-0.1,1.584,1.584,0,0,0,.59-0.24h0.05v1.7a3.922,3.922,0,0,1,1.75-1.29,5.894,5.894,0,0,1,2.14-.41h0.24a4.719,4.719,0,0,1,1.41.21,5.69,5.69,0,0,1,1.34.61,5.179,5.179,0,0,1,1.93,2.19,6.2,6.2,0,0,1,.4,1.24,7.021,7.021,0,0,1,.14,1.41h0Zm13.46,0.06a5.513,5.513,0,0,1-1.89,4.12,6.136,6.136,0,0,1-4.3,1.75,6.01,6.01,0,0,1-4.39-1.69,5.3,5.3,0,0,1-1.65-3.93v-0.14a5.518,5.518,0,0,1,1.58-3.97,6.161,6.161,0,0,1,4.7-1.86h0.19a5.592,5.592,0,0,1,4,1.62,5.469,5.469,0,0,1,1.76,4.1h0Zm-2.46.35a5.011,5.011,0,0,0-.99-3.14,3.31,3.31,0,0,0-2.74-1.37h-0.05a3.416,3.416,0,0,0-2.43.93,3.944,3.944,0,0,0-1.14,3.03,5.073,5.073,0,0,0,1.05,3.21,3.145,3.145,0,0,0,2.57,1.35l0.19-.05a3.235,3.235,0,0,0,2.64-1.18,4.186,4.186,0,0,0,.9-2.78h0Zm20.24,5.21v0.02h-3.7v-0.07a0.934,0.934,0,0,0,.73-1v-0.41l-0.02-.29-1.03-7.62-4.26,9.59a4.159,4.159,0,0,1-.9-0.72,6,6,0,0,1-.66-1.05l-3.79-7.82-1.13,7.67-0.01.24a1.32,1.32,0,0,1-.02.28,1.118,1.118,0,0,0,.7,1.13v0.07h-3.08v-0.07a3.022,3.022,0,0,0,1.04-2.13l1.09-7.09,0.04-.34,0.05-.19v-0.26a0.952,0.952,0,0,0-.68-0.9l3.36-.03a2.185,2.185,0,0,0,.22.72l3.61,7.4,3.23-7.24a2.133,2.133,0,0,0,.24-0.88h3.31a1.014,1.014,0,0,0-.6.96l0.02,0.33,1.24,7.98a2.74,2.74,0,0,0,.29,1.07,1.984,1.984,0,0,0,.71.65h0Zm12.3-5.4a4.886,4.886,0,0,1-.25,1.58,6.106,6.106,0,0,1-.7,1.43,5.508,5.508,0,0,1-2.38,2,7.526,7.526,0,0,1-1.68.55,9.433,9.433,0,0,1-1.96.2c-0.18,0-.34,0-0.46-0.01q-0.84-.06-0.96-0.06c-0.24,0-.42-0.01-0.54-0.02s-0.52-.09-1.21-0.23l-1.2-.17v-0.04a1.418,1.418,0,0,0,.7-1.44v-0.18l-0.05-10.78a3.236,3.236,0,0,1,1.51-2.67,6.65,6.65,0,0,1,3.98-1.1h1.12l0.8,0.07a6.55,6.55,0,0,1,.81.11l1.09,0.16-1.63,1.83a2.758,2.758,0,0,0-1.39-.37h-0.68c-2.29,0-3.43.61-3.43,1.83v11.05a15.3,15.3,0,0,0,1.95.37,4.38,4.38,0,0,0,3.05-1.12,3.9,3.9,0,0,0,1.09-3.01v-0.34a4.569,4.569,0,0,0-.28-1.69,2.827,2.827,0,0,0-.79-1.18,3.691,3.691,0,0,0-2.45-.85,3.5,3.5,0,0,0-2,.5l1.24-2.05a7.882,7.882,0,0,1,1.74-.25,4.671,4.671,0,0,1,2.65.8,5,5,0,0,1,1.79,2.12,6.384,6.384,0,0,1,.52,2.62v0.34h0Zm12.16,4.11-1.07,1.65a4.153,4.153,0,0,1-2.36-.77,2.147,2.147,0,0,1-.76-1.82v-3.72a7.074,7.074,0,0,1-2.05.7,7.956,7.956,0,0,0-2.05.71,1.415,1.415,0,0,0-.63,1.33,1.632,1.632,0,0,0,.69,1.41,2.557,2.557,0,0,0,.81.4,3.4,3.4,0,0,0,1.02.15,4.912,4.912,0,0,0,.82-0.06q0.36-.075.99-0.24l-1.4,1.77c-0.25.03-.47,0.06-0.65,0.07a5.055,5.055,0,0,1-.55.02,4.408,4.408,0,0,1-2.94-.96,2.933,2.933,0,0,1-1.15-2.31v-0.1a3.079,3.079,0,0,1,2.12-2.8,9.319,9.319,0,0,1,1.7-.49c0.79-.17,1.38-0.32,1.76-0.44a2.707,2.707,0,0,0,1.07-.48,0.831,0.831,0,0,0,.31-0.39,1.25,1.25,0,0,0,.13-0.59,1.171,1.171,0,0,0-.74-1.09,3.643,3.643,0,0,0-1.55-.34,7.329,7.329,0,0,0-3.23.93l1.57-2.39h0.18a1.629,1.629,0,0,1,.18-0.04l0.45-.05,0.39-.05h0.4a5.551,5.551,0,0,1,3.26.9,3.146,3.146,0,0,1,1.28,2.75v4.17a2.31,2.31,0,0,0,.43,1.59,1.572,1.572,0,0,0,.61.42,2.754,2.754,0,0,0,.96.16h0Zm11.22,1.31h-3.93v-0.07a1.443,1.443,0,0,0,.73-1.58v-3.77h-4.62v3.77a1.467,1.467,0,0,0,.72,1.58v0.07h-3.82v-0.07a1.453,1.453,0,0,0,.72-1.58v-7.73a1.574,1.574,0,0,0-.72-1.65v-0.06h3.82v0.06a1,1,0,0,0-.58.69,5.508,5.508,0,0,0-.14,1.36v2.36h4.62v-2.53a5.323,5.323,0,0,0-.12-1.23,0.859,0.859,0,0,0-.61-0.65v-0.06h3.93v0.06a0.946,0.946,0,0,0-.57.57,4.073,4.073,0,0,0-.17,1.31v7.5a1.447,1.447,0,0,0,.74,1.58v0.07h0Zm12.53,0h-1.85a3.326,3.326,0,0,1-1.22-.19,1.357,1.357,0,0,1-.64-0.4c-0.06-.07-0.16-0.2-0.3-0.38s-0.3-.41-0.47-0.65l-3.32-4.55,2.26-2.5a3.034,3.034,0,0,0,.91-1.55,0.744,0.744,0,0,0-.43-0.69v-0.1h3.62l-4,4.61,3.07,3.9,0.64,0.82a5.968,5.968,0,0,0,.72.86,6.652,6.652,0,0,0,1.01.82h0Zm-7.34,0h-3.95v-0.09a1.632,1.632,0,0,0,.76-0.82,9.579,9.579,0,0,0,.11-1.84v-5.99c0-.33,0-0.6-0.02-0.81a5.4,5.4,0,0,0-.09-0.6,1.373,1.373,0,0,0-.76-0.74v-0.04l1.14-.03h0.29a3.23,3.23,0,0,0,.66-0.05,1.057,1.057,0,0,0,.26-0.02,1.715,1.715,0,0,0,.26-0.1,0.726,0.726,0,0,0,.36-0.23h0.05v9.21a3.7,3.7,0,0,0,.16,1.22,1.6,1.6,0,0,0,.77.84v0.09h0Z" transform="translate(-1388 -1060)"/>
</svg>
