<svg id="brand9.svg" xmlns="http://www.w3.org/2000/svg" width="175" height="100" viewBox="0 0 175 100">
  <defs>
    <style>
      .cls-1 {
        fill: none;
      }

      .cls-2 {
        fill: #112236;
        fill-rule: evenodd;
      }
    </style>
  </defs>
  <rect id="Rectangle_2120_copy_3" data-name="Rectangle 2120 copy 3" class="cls-1" width="175" height="100"/>
  <path class="cls-2" d="M1452.17,1300.16c-0.32-.07-0.64-0.14-0.96-0.2l0.02-5.59-3.16-.31c0.22,3.31.32,6.6,0.38,9.87a3.43,3.43,0,0,1-.8-0.87c0.04,1.31.08,1.25,0.11,2.6,0.21,0.15.46,0.34,0.73,0.54,0.01,1.29.03,2.58,0.04,3.87-1.4.18-2.6,0.05-3.38-.92a5.056,5.056,0,0,1-.75-3.52l0.18-10.02c-0.87.54-1.75,1.07-2.62,1.6-0.1,1.08-.12,2.14-0.23,3.22-2.11.94-5.59,2.78-6.51,4.88-0.98,2.24.68,4.72,4.02,3.53a11.429,11.429,0,0,0,2.86-1.46,13.842,13.842,0,0,0,.1,1.66,10.627,10.627,0,0,1-2.9.75c-1.03.09-1.86,0.14-2.5,0.14a9.477,9.477,0,0,1-1.95-.19c-0.58-.13-1.09-0.23-1.53-0.33a3.289,3.289,0,0,1-.24-0.74,4.645,4.645,0,0,1-.05-0.69,11.277,11.277,0,0,1,.08-1.2c0.04-.46.08-1.16,0.11-2.11a2.1,2.1,0,0,0-.33-1.33,0.949,0.949,0,0,0-.76-0.43c-0.99,1.01-1.76,1.8-2.31,2.35s-0.98.96-1.26,1.23-0.51.47-.67,0.6c-0.19,0-.29-0.31-0.29-0.9a13.443,13.443,0,0,0-.21-3.04,0.826,0.826,0,0,0-.79-0.71,9.244,9.244,0,0,0-2.14,2.37c-0.67,1.01-1.29,1.9-1.86,2.65a0.991,0.991,0,0,1-.48.48,1.142,1.142,0,0,1-.19-0.48l1.05-13.99a9.973,9.973,0,0,0-1.88,1.78,3.868,3.868,0,0,0-.93,2.54v13.33a9.132,9.132,0,0,0,.09,1.65,0.573,0.573,0,0,0,.62.53h0.19a4.029,4.029,0,0,0,1.07-.9c0.37-.41.73-0.87,1.1-1.36s0.73-.96,1.1-1.44a7.5,7.5,0,0,1,1.02-1.14,2.768,2.768,0,0,1,.38,1.09,9.133,9.133,0,0,1,.15,1.75,8.934,8.934,0,0,0,.04,1.1,0.28,0.28,0,0,0,.29.28,2.663,2.663,0,0,0,1.38-.9q0.435-.435.93-1.02c0.33-.39.69-0.83,1.07-1.3,0.42-.48.75-0.84,1-1.09l0.48-.48a0.468,0.468,0,0,1,.48.57,0.766,0.766,0,0,1-.1.61,3.107,3.107,0,0,0,1.53,2.81,7.128,7.128,0,0,0,3.81.94,18.236,18.236,0,0,0,3.19-.26,3.621,3.621,0,0,0,2.05-.83,4.976,4.976,0,0,0,.72-0.64c1.01,2.01,3.08,1.74,5.77-.11,0.02,2.01.03,4.01,0.06,6.01-0.04,1.3-1.77,2.59-3.65,2.45-2.41-.19-6.93-3.75-7.44-4.15-0.02.55,3.49,4.89,5.75,5.96a6.491,6.491,0,0,0,3.51.55c2.37-.2,4.43-1.24,4.4-3.72l0.03-10.05a7.218,7.218,0,0,0,.99.46c2.29,0.85,4.44.59,5.39-1.75C1458.13,1303.5,1455.01,1300.83,1452.17,1300.16Zm-10.66,4.42c-4.72,3.63-3.27-2.49.13-2.87C1441.54,1302.66,1441.61,1303.63,1441.51,1304.58Zm10.71,1.48a2.832,2.832,0,0,1-1.02-.31l0.01-4.56C1455.76,1301.99,1456.56,1306.31,1452.22,1306.06Zm-35.84-12.4c-7.43-4.45-14.86,5.17-12.13,9.27,0.3,0.44.56-2.66,1.28-4.05a5.259,5.259,0,0,1,3.35-2.45,3.328,3.328,0,0,1,3.05.68,6.141,6.141,0,0,1,1.82,3.44,11.025,11.025,0,0,1-.9,7.76,7.778,7.778,0,0,1-5.25,4.41,5.5,5.5,0,0,1-4.9-1.09,9.042,9.042,0,0,1-2.98-5.23,23,23,0,0,1,.29-10.9,31.141,31.141,0,0,1,5.16-10.95,24.948,24.948,0,0,1,4.86-5.05,13.511,13.511,0,0,1,5.09-2.57,3.535,3.535,0,0,1,2.64.25,3.188,3.188,0,0,1,1.38,2.14,7.709,7.709,0,0,1,.1,2.78,16.044,16.044,0,0,1-.82,2.96c-0.87,2.71-3.27,1.66-3.96-.21-0.6-1.65.45-4.08-.16-3.64-5.9,4.24,1.07,13.17,7.54,6.54,5.83-5.97-1.78-21.21-19.28-6.61-4.72,3.92-7.99,11.42-9.08,17.25a21.585,21.585,0,0,0-.15,8.48,9.606,9.606,0,0,0,4.19,6.39c5.44,3.37,14.08,1.98,17.94-3.28a20.585,20.585,0,0,0,3.71-10.12C1419.35,1297.43,1418.73,1295.06,1416.38,1293.66Zm61,7.81a2.532,2.532,0,0,0,1.54.45,3.516,3.516,0,0,0,2.11-.7,3.437,3.437,0,0,0,1.33-1.96,3.54,3.54,0,0,1-2.5,1.36c-1.02,0-1.53-.8-1.53-2.41a1.535,1.535,0,0,0-1.17.75,2.453,2.453,0,0,0-.39,1.25A1.48,1.48,0,0,0,1477.38,1301.47Zm3.79,8.7a2.078,2.078,0,0,1-1.47-.62,1.934,1.934,0,0,1-.64-1.42,14.038,14.038,0,0,1,.79-3.57,0.42,0.42,0,0,0-.24-0.46,0.632,0.632,0,0,0-.59.15,14.051,14.051,0,0,0-.69,1.43,14.892,14.892,0,0,1-.93,1.82,7.088,7.088,0,0,1-1.25,1.58,2.65,2.65,0,0,1-.26.21h-0.02c-0.62.08-1.24,0.13-1.88,0.16h-0.02a0.95,0.95,0,0,1-.11-0.37l1.68-15.38h-1.63l-1.77,1.51v13.22a7.711,7.711,0,0,0,.09,1.06c-0.89-.01-1.62-0.04-2.17-0.1a2.332,2.332,0,0,1-1.41-.66,4.294,4.294,0,0,1-.25-0.83,7.315,7.315,0,0,1-.07-1.07,10.245,10.245,0,0,1,.19-1.93c0.12-.68.23-1.49,0.32-2.44l-1.52.63a4.956,4.956,0,0,1-1.07,1.39,2.933,2.933,0,0,1-1.66.4,7.588,7.588,0,0,1-.9-0.6,1.863,1.863,0,0,0-1.13-.43h-0.19a1.077,1.077,0,0,0-.69.47,1.6,1.6,0,0,0-.28.96,1.389,1.389,0,0,0,.49,1.05,2.685,2.685,0,0,0,1.55.58,1.841,1.841,0,0,1-.17.73,4.219,4.219,0,0,1-.48.85,1.686,1.686,0,0,1-1.34.88,1.041,1.041,0,0,1-1.09-.66,4.378,4.378,0,0,1-.25-1.53v-0.91l1.66-12.35-3.09,1.55v10.68c0.06,0.92.15,1.74,0.25,2.42s0.21,1.25.3,1.67a2.966,2.966,0,0,0,.79,1.51,2.3,2.3,0,0,0,1.52.44,1.889,1.889,0,0,0,1.11-.28,5.477,5.477,0,0,0,.79-0.76l0.18-.2a5.714,5.714,0,0,0,.65-1.04c0.18-.39.34-0.78,0.48-1.18a6.551,6.551,0,0,0,.3-1.13,5.778,5.778,0,0,0,.09-0.93,1.821,1.821,0,0,1,1.3-.64,1.857,1.857,0,0,1,.09.48c0.03,0.26.08,0.63,0.14,1.11a8.4,8.4,0,0,0,.53,2.22,3.237,3.237,0,0,0,1.13,1.35l0.23,0.2c0.19,0.16.37,0.29,0.53,0.4a2.377,2.377,0,0,0,.72.26,9.652,9.652,0,0,0,1.22.14c0.51,0.02,1.2.04,2.06,0.04a8.877,8.877,0,0,0,2.31-.46,5.518,5.518,0,0,0,1.55-.83,5.039,5.039,0,0,0,.88-0.91,8.176,8.176,0,0,0,.57.94,2.426,2.426,0,0,0,.71.63,2.3,2.3,0,0,0,.89.25q0.48,0.03,1.17.03a15.446,15.446,0,0,0,4.81-.73,4.469,4.469,0,0,0,1.57-1.14,3.08,3.08,0,0,0,.39-1.21,10.627,10.627,0,0,1-3.21,1.05A21.112,21.112,0,0,1,1481.17,1310.17Zm40.22-16.13a9.646,9.646,0,0,0-14.27-.05c-0.2.22-.38,0.44-0.56,0.66a84.812,84.812,0,0,1,.25-8.55,18.334,18.334,0,0,0,.43-2.71c0.94-.58,1.78-1.17,3.04-1.93,3.55-2.13,12.01-4.38,15.6-2.02,0.98,0.64.74,3.24-1.19,5.42a13.6,13.6,0,0,1-3.24,2.95c-2.18,1.34-4.78,2.35-3.46,2.44a23.16,23.16,0,0,0,6.69-1.25c5.83-2.72,8.73-7.97,2.93-11.08a11.55,11.55,0,0,0-4.78-1.46,18.726,18.726,0,0,0-6.12.56c-3.18.89-6.5,2.62-9.25,3.74l-0.06.03a4.087,4.087,0,0,0-.87-2.09c-2.52-4.99-3.4,1.86-3.5,4.02a0.66,0.66,0,0,0-.01.14,1.091,1.091,0,0,0-.11.06c-1.18.75-3.48,1.89-5.04,0.66-0.42-.32-1.67-1.67-2.1-2-0.11,1.73,1.37,4.48,3.22,4.56a12.064,12.064,0,0,0,3.92-.75c-0.24,7.01-.22,13.96-0.09,21,0.13,2.72-2.8,3.16-4.89,2.39-1.03-.39-3.99-3.9-4.31-4.39a10.7,10.7,0,0,0,1.7,6.21,7.728,7.728,0,0,0,2.81,2.42,4.884,4.884,0,0,0,3.03.11c2.44-.42,4.45-2.77,5.21-4.89,0.23,0.3.48,0.6,0.75,0.89a9.335,9.335,0,0,0,7.13,3.19,9.439,9.439,0,0,0,7.12-3.15,10.665,10.665,0,0,0,2.97-7.56A10.809,10.809,0,0,0,1521.39,1294.04Zm-3.22,15.39a5.4,5.4,0,0,1-3.4,1.13,7.389,7.389,0,0,1-3.79-1.1,9.214,9.214,0,0,1-2.94-2.76,10.2,10.2,0,0,1-1.42-2.96c-0.02-1.43-.04-3.27-0.05-5.22a5.732,5.732,0,0,1,1.94-2.85,5.393,5.393,0,0,1,3.41-1.14,7.317,7.317,0,0,1,3.82,1.12,9.239,9.239,0,0,1,2.95,2.79,9.831,9.831,0,0,1,1.82,5.65A6.332,6.332,0,0,1,1518.17,1309.43Zm16.5,2.56c-0.91-.99-0.91-2.23-0.97-3.48-0.14-3.33-.28-6.67-0.43-10-0.84.58-1.67,1.17-2.52,1.75-0.03,1.09.01,2.14-.03,3.23-2.05,1.07-5.42,3.11-6.2,5.27-0.85,2.29.96,4.66,4.22,3.27a10.933,10.933,0,0,0,2.77-1.62c0.45,6.41,3.74,6.06,8.18,1.87C1537.67,1312.9,1535.81,1313.24,1534.67,1311.99Zm-3.92-4.34c-4.49,3.9-3.42-2.3-.05-2.88C1530.66,1305.73,1530.8,1306.69,1530.75,1307.65Zm14.53,4.81a2.905,2.905,0,0,0,3.46-2.16c-0.47.15-1.23,0.89-1.69,1.04-1.7.57-1.99-1.5-2.27-2.38-0.31-.94-0.63-1.87-1.06-2.99a15.362,15.362,0,0,0-3.21-4.47c1.46-.8,2.72-2.45,3.66-3.23,0.68-.55,1.36.24,1.55,0.87a1.486,1.486,0,0,0,.13-1.66,1.792,1.792,0,0,0-2.19-.57c-1.48.53-1.87,2.54-3.25,3.67-0.15.12-.32,0.24-0.5,0.36-0.26-.23-0.52-0.46-0.8-0.68-0.09-2.85-.06-5.33.36-5.09a9.249,9.249,0,0,1,1.08,1.94,23.776,23.776,0,0,0-1.57-6.47c-1.6-3.13-2.54,1.14-2.61,2.49-0.1,2.2-.08,4.37-0.02,6.55a0.88,0.88,0,0,0-.15.05,1.576,1.576,0,0,1,.15.12c0.08,2.68.22,5.37,0.27,8.08,0.08,1.71.25,2.63-1.06,2.06a11.425,11.425,0,0,1-1.53-.87c0.61,1.69,1.5,3.18,3.23,2.84,1.8-.35,2.11-2.48,2.17-3.94,0.03-.54-0.12-2.99-0.24-5.61a8,8,0,0,1,1.58,2.64,26.5,26.5,0,0,0,1.86,4.92A6.024,6.024,0,0,0,1545.28,1312.46Zm12.68-8.13a12.139,12.139,0,0,0-.11-2.03c-0.1-.59.37-0.43-0.38-0.45-0.35-.01-1.39.02-1.46,0.57-0.13,1.06-.29,2.85-0.47,4.78-2.78,4.9-5.64,2.41-1.34-5.17-0.98.01-2.12,0.14-3.19,0.15-4.94,7.59.42,14.5,4.27,7.92-0.13,1.51-.26,2.93-0.38,3.96a5.116,5.116,0,0,1-4.02,4.81c-0.79.17-1.88,0.27-4.26-.85a8.786,8.786,0,0,1-3.94-4.56c1.82,12.27,14.86,11.69,15.09-4.18,0.02-1.25.17-3.18,0.19-4.83a0.3,0.3,0,0,1,.04-0.1Z" transform="translate(-1388 -1248)"/>
</svg>
